<svg xmlns="http://www.w3.org/2000/svg" xmlns:xlink="http://www.w3.org/1999/xlink" width="113" height="113" viewBox="0 0 113 113">
  <defs>
    <filter id="Path_982547" x="0" y="0" width="113" height="113" filterUnits="userSpaceOnUse">
      <feOffset dy="3" input="SourceAlpha"/>
      <feGaussianBlur stdDeviation="3" result="blur"/>
      <feFlood flood-opacity="0.161"/>
      <feComposite operator="in" in2="blur"/>
      <feComposite in="SourceGraphic"/>
    </filter>
  </defs>
  <g id="Group_1220458" data-name="Group 1220458" transform="translate(-743 -3158.09)">
    <g id="Group_1220241" data-name="Group 1220241">
      <g id="Group_1219408" data-name="Group 1219408" transform="translate(0.955 -736.059)">
        <g id="Group_1210959" data-name="Group 1210959" transform="translate(0 -689.385)">
          <g id="Group_1209936" data-name="Group 1209936" transform="translate(0 -2945.274)">
            <g id="Group_1208706" data-name="Group 1208706" transform="translate(-1.454 3213.429)">
              <g id="Group_1148634" data-name="Group 1148634" transform="translate(488.454 600.047)">
                <g id="Group_1148525" data-name="Group 1148525" transform="translate(264.046 3721.333)">
                  <g transform="matrix(1, 0, 0, 1, -9, -6)" filter="url(#Path_982547)">
                    <g id="Path_982547-2" data-name="Path 982547" transform="translate(9 6)" fill="#e6d567">
                      <path d="M 47.5 93.5 C 41.28937149047852 93.5 35.26533508300781 92.28397369384766 29.59518623352051 89.88570404052734 C 24.11771965026855 87.56893157958984 19.19813346862793 84.25196075439453 14.97309303283691 80.02691650390625 C 10.74804019927979 75.80186462402344 7.431066513061523 70.88229370117188 5.114293098449707 65.40481567382812 C 2.716026782989502 59.73468017578125 1.5 53.71062850952148 1.5 47.5 C 1.5 41.28937149047852 2.716026782989502 35.26533508300781 5.114293098449707 29.59518623352051 C 7.431066513061523 24.11771965026855 10.74804019927979 19.19813346862793 14.97309303283691 14.97309303283691 C 19.19813346862793 10.74804019927979 24.11771965026855 7.431066513061523 29.59518623352051 5.114293098449707 C 35.26533508300781 2.716026782989502 41.28937149047852 1.5 47.5 1.5 C 53.71062850952148 1.5 59.73468017578125 2.716026782989502 65.40481567382812 5.114293098449707 C 70.88229370117188 7.431066513061523 75.80186462402344 10.74804019927979 80.02691650390625 14.97309303283691 C 84.25196075439453 19.19813346862793 87.56893157958984 24.11771965026855 89.88570404052734 29.59518623352051 C 92.28397369384766 35.26533508300781 93.5 41.28937149047852 93.5 47.5 C 93.5 53.71062850952148 92.28397369384766 59.73468017578125 89.88570404052734 65.40481567382812 C 87.56893157958984 70.88229370117188 84.25196075439453 75.80186462402344 80.02691650390625 80.02691650390625 C 75.80186462402344 84.25196075439453 70.88229370117188 87.56893157958984 65.40481567382812 89.88570404052734 C 59.73468017578125 92.28397369384766 53.71062850952148 93.5 47.5 93.5 Z" stroke="none"/>
                      <path d="M 47.5 3 C 41.49121475219727 3 35.66376876831055 4.176155090332031 30.17950439453125 6.495796203613281 C 24.88084411621094 8.736953735351562 20.12152099609375 11.94598388671875 16.03375244140625 16.03375244140625 C 11.94598388671875 20.12152099609375 8.736953735351562 24.88084411621094 6.495796203613281 30.17950439453125 C 4.176155090332031 35.66376876831055 3 41.49121475219727 3 47.5 C 3 53.50878524780273 4.176155090332031 59.33623123168945 6.495796203613281 64.82049560546875 C 8.736953735351562 70.11915588378906 11.94598388671875 74.87847900390625 16.03375244140625 78.96624755859375 C 20.12152099609375 83.05401611328125 24.88084411621094 86.26304626464844 30.17950439453125 88.50419616699219 C 35.66376876831055 90.82384490966797 41.49121475219727 92 47.5 92 C 53.50878524780273 92 59.33623123168945 90.82384490966797 64.82049560546875 88.50419616699219 C 70.11915588378906 86.26304626464844 74.87847900390625 83.05401611328125 78.96624755859375 78.96624755859375 C 83.05401611328125 74.87847900390625 86.26304626464844 70.11915588378906 88.50419616699219 64.82049560546875 C 90.82384490966797 59.33623123168945 92 53.50878524780273 92 47.5 C 92 41.49121475219727 90.82384490966797 35.66376876831055 88.50419616699219 30.17950439453125 C 86.26304626464844 24.88084411621094 83.05401611328125 20.12152099609375 78.96624755859375 16.03375244140625 C 74.87847900390625 11.94598388671875 70.11915588378906 8.736953735351562 64.82049560546875 6.495796203613281 C 59.33623123168945 4.176155090332031 53.50878524780273 3 47.5 3 M 47.5 0 C 73.7335205078125 0 95 21.2664794921875 95 47.5 C 95 73.7335205078125 73.7335205078125 95 47.5 95 C 21.2664794921875 95 0 73.7335205078125 0 47.5 C 0 21.2664794921875 21.2664794921875 0 47.5 0 Z" stroke="none" fill="#ba9c5a"/>
                    </g>
                  </g>
                </g>
              </g>
            </g>
          </g>
        </g>
      </g>
      <g id="democracia_2_" data-name="democracia (2)" transform="translate(762.414 3184.918)">
        <g id="Group_1220239" data-name="Group 1220239" transform="translate(1.086 1.086)">
          <g id="Group_1220226" data-name="Group 1220226" transform="translate(25.665)">
            <path id="Path_1090359" data-name="Path 1090359" d="M235.36,104.612h5.954v7.422H235.36Z" transform="translate(-228.015 -90.544)" fill="#ae6c6c"/>
            <path id="Path_1090360" data-name="Path 1090360" d="M207.014,133.3v4.568h-9.235l-1.086-.29-1.086.29H186.66v-4.278a2.977,2.977,0,0,1,2.579-2.951l.158-.35,4.318-.584,1.891,1.519.122.533.951.329.921-.3.179-.577,1.89-1.505,4.766.645A2.977,2.977,0,0,1,207.014,133.3Z" transform="translate(-186.37 -111.997)" fill="#6a7682"/>
            <path id="Path_1090361" data-name="Path 1090361" d="M187.686,133.731v7.579H184.66v-4.568a2.977,2.977,0,0,1,2.579-2.951Z" transform="translate(-184.66 -115.444)" fill="#5d6875"/>
            <path id="Path_1090362" data-name="Path 1090362" d="M228.237,33.568V37.01a3.97,3.97,0,0,1-1.372,3l-1.544,1.337a4.169,4.169,0,0,1-5.457,0l-1.544-1.337a3.97,3.97,0,0,1-1.372-3V33.568C220.717,28.862,224.48,28.848,228.237,33.568Z" transform="translate(-212.271 -26.769)" fill="#b98080"/>
            <path id="Path_1090363" data-name="Path 1090363" d="M227.391,11.719l-.6,2.61a4.36,4.36,0,0,0-2.4-.713,4.808,4.808,0,0,0-2.584.846,1.16,1.16,0,0,1-1.332,0,4.861,4.861,0,0,0-2.188-.826s-.316-.322-.448-.324a3.559,3.559,0,0,0-2.166.629l-.352-2.411a1.668,1.668,0,0,1,.3-1.558A4.83,4.83,0,0,1,218.2,8.2a6.152,6.152,0,0,0,.763-.439,9.012,9.012,0,0,1,2.191-.257,7.2,7.2,0,0,1,5.858,2.538A1.967,1.967,0,0,1,227.391,11.719Z" transform="translate(-210.821 -7.5)" fill="#6a7682"/>
            <path id="Path_1090364" data-name="Path 1090364" d="M215.374,12.45l.5,2.713c-.13-.014-.261-.023-.393-.025a4.352,4.352,0,0,0-2.4.714l-.6-2.6a1.973,1.973,0,0,1,.384-1.689,6.825,6.825,0,0,1,3.687-2.279,7.617,7.617,0,0,0-.79,1.024A3.038,3.038,0,0,0,215.374,12.45Z" transform="translate(-208.403 -9.022)" fill="#5d6875"/>
          </g>
          <g id="Group_1220227" data-name="Group 1220227" transform="translate(0.145 8.339)">
            <path id="Path_1090365" data-name="Path 1090365" d="M8.716,74.048a4.848,4.848,0,0,0,3.649.561.939.939,0,0,1,.352.073c2.114-.488,4.228-1.653,6.342-1.429a4.158,4.158,0,0,1,1.884.514V66.422a.44.44,0,0,0-.214-.375,4.879,4.879,0,0,0-1.53-.79c-.045-.01-.14-.166-.14-.166-2.11-.224-4.223.934-6.329,1.425a.955.955,0,0,1-.276.208A4.755,4.755,0,0,1,9.126,66.4a.434.434,0,0,0-.624.39v6.885a.439.439,0,0,0,.214.375Z" transform="translate(-8.502 -65.062)" fill="#c1e9af"/>
          </g>
          <g id="Group_1220228" data-name="Group 1220228" transform="translate(59.412 8.409)">
            <path id="Path_1090366" data-name="Path 1090366" d="M429.989,74.606c-3.5,2.119-6.993-1.311-10.489-.94a2.1,2.1,0,0,0-1.739.079l-.145-6.911a.44.44,0,0,1,.214-.375,9.8,9.8,0,0,1,1.567-.885h0c3.359-.357,6.822,2.725,10.182,1.093a.434.434,0,0,1,.624.39v7.175A.44.44,0,0,1,429.989,74.606Z" transform="translate(-417.616 -65.545)" fill="#c1e9af"/>
          </g>
          <g id="Group_1220229" data-name="Group 1220229" transform="translate(9.344 27.233)">
            <path id="Path_1090367" data-name="Path 1090367" d="M128.8,251.039l-.073-42.458-51.143-.31.337,42.769h4.957l.385.145H94.24l.441-.145,13.3-.006.556.151h10.98l.329-.145Z" transform="translate(-76.772 -206.418)" fill="#7e8b96"/>
            <path id="Path_1090368" data-name="Path 1090368" d="M72,195.489v44.443h4.907l-.06-33.487a2.234,2.234,0,0,1,2.234-2.234H94.137l.993,2.9,5.97.446,1.086-3.344h17.02l2.321,2.864,3.766-2.943v-8.644H72Z" transform="translate(-72 -195.489)" fill="#6a7682"/>
          </g>
          <path id="Path_1090369" data-name="Path 1090369" d="M107.33,179.462H54.581l-.8.163-5.559-.018a.724.724,0,0,0-.724.724v3.629a.724.724,0,0,0,.724.724l5.271-.025,1.086.17H107.33a.724.724,0,0,0,.724-.724v-3.919A.724.724,0,0,0,107.33,179.462Z" transform="translate(-41.705 -154.55)" fill="#909ba6"/>
          <g id="Group_1220232" data-name="Group 1220232" transform="translate(0 33.306)">
            <path id="Path_1090370" data-name="Path 1090370" d="M28.612,252.491a2.809,2.809,0,0,0-2.727,1.854l-.287.766a22.6,22.6,0,0,0-.851,3.253V242.138a2.054,2.054,0,0,0-1.936-2.051s-.063.16-.1.16a1.957,1.957,0,0,0-1.994,1.86c0,.042-.075.031-.075.031v-2.652a2.049,2.049,0,0,0-1.926-2.046s-.119.092-.161.092a1.855,1.855,0,0,0-1.87,1.992l-.011,2.366-.131.016a2.051,2.051,0,0,0-1.928-2.047l-.123.141a1.812,1.812,0,0,0-1.906,1.906v3.085l-.145.019a1.939,1.939,0,0,0-1.7-1.925l-.242.084a1.7,1.7,0,0,0-1.751,1.836l.112,14.72a7.993,7.993,0,0,0,1.262,4.108,10.476,10.476,0,0,1,1.1,5.2v.435h12.1l.166-.435v-.179a5.109,5.109,0,0,1,2.616-4.46,5.109,5.109,0,0,0,2.616-4.46V258.1a5.107,5.107,0,0,1,.394-1.969l.791-1.894a1.355,1.355,0,0,0-.992-1.852A1.016,1.016,0,0,1,28.612,252.491Z" transform="translate(-8.56 -237.436)" fill="#ffdfd4"/>
            <path id="Path_1090371" data-name="Path 1090371" d="M10.551,296.362A11.629,11.629,0,0,1,12,301.948v.328l-.407.4-1.472-.016-.173-.386a9.671,9.671,0,0,0-.284-2.376,9.877,9.877,0,0,0-1-2.466,8.886,8.886,0,0,1-1.16-4.388v-14.8a1.939,1.939,0,0,1,1.938-1.938,1.793,1.793,0,0,1,.235.014v16.722A6.745,6.745,0,0,0,10.551,296.362Z" transform="translate(-7.5 -270.675)" fill="#feccbc"/>
            <path id="Path_1090372" data-name="Path 1090372" d="M38.9,460.758H26.779l.451-4.608,1.256-.6H38.9Z" transform="translate(-23.986 -423.952)" fill="#f2fbff"/>
            <path id="Path_1090373" data-name="Path 1090373" d="M24.4,455.554h2.052v5.2H24.4Z" transform="translate(-21.949 -423.952)" fill="#dfeef4"/>
            <path id="Path_1090374" data-name="Path 1090374" d="M15.079,486.854v-.789a.724.724,0,0,1,.724-.724l2.265-.1.412-.189H29.812a.724.724,0,0,1,.724.724v1.369a.724.724,0,0,1-.724.724H18.481l-.354-.183-2.323-.107A.724.724,0,0,1,15.079,486.854Z" transform="translate(-13.981 -449.176)" fill="#ade194"/>
            <path id="Path_1090375" data-name="Path 1090375" d="M16.771,485.05v2.818H13.8a.725.725,0,0,1-.724-.724v-1.369a.725.725,0,0,1,.724-.724Z" transform="translate(-12.272 -449.175)" fill="#97da7b"/>
            <g id="Group_1220230" data-name="Group 1220230" transform="translate(3.878)">
              <path id="Path_1090376" data-name="Path 1090376" d="M36.443,254.114v9.652a1.738,1.738,0,0,1-1.738,1.738.434.434,0,0,1-.435-.435v-8.909a2.053,2.053,0,0,1,2.05-2.051C36.362,254.11,36.4,254.111,36.443,254.114Z" transform="translate(-34.27 -251.691)" fill="#feccbc"/>
              <path id="Path_1090377" data-name="Path 1090377" d="M64.753,237.414v12.072a1.738,1.738,0,0,1-1.738,1.738.434.434,0,0,1-.435-.435V239.46a2.05,2.05,0,0,1,2.05-2.05C64.672,237.41,64.712,237.411,64.753,237.414Z" transform="translate(-58.479 -237.41)" fill="#feccbc"/>
              <path id="Path_1090378" data-name="Path 1090378" d="M93.043,255.694v9.424a1.738,1.738,0,0,1-1.738,1.738.435.435,0,0,1-.435-.435v-8.678a2.053,2.053,0,0,1,2.054-2.054c.041,0,.08,0,.119,0Z" transform="translate(-82.671 -253.042)" fill="#feccbc"/>
            </g>
            <g id="Group_1220231" data-name="Group 1220231" transform="translate(16.187 14.927)">
              <path id="Path_1090379" data-name="Path 1090379" d="M123.395,340.475l-.388.846-1.1,2.644a6.459,6.459,0,0,0-.5,2.487v1.26a2.175,2.175,0,0,1-1.638,2.107.433.433,0,0,1-.535-.423v-2.944a8.645,8.645,0,0,1,.662-3.32l.3-.723a3.179,3.179,0,0,1,2.935-1.959A1.366,1.366,0,0,1,123.395,340.475Z" transform="translate(-119.24 -340.45)" fill="#feccbc"/>
            </g>
          </g>
          <g id="Group_1220235" data-name="Group 1220235" transform="translate(25.279 33.306)">
            <path id="Path_1090380" data-name="Path 1090380" d="M203.112,252.491a2.809,2.809,0,0,0-2.727,1.854l-.287.766a22.6,22.6,0,0,0-.851,3.253V242.138a2.054,2.054,0,0,0-1.936-2.051s-.081.1-.12.1a1.951,1.951,0,0,0-1.943,1.933c0,.037-.109.019-.109.019v-2.652a2.049,2.049,0,0,0-1.926-2.046s-.119.092-.161.092a1.855,1.855,0,0,0-1.87,1.992l-.011,2.366-.131.016a2.051,2.051,0,0,0-1.928-2.047l-.123.141a1.812,1.812,0,0,0-1.906,1.906v3.085l-.145.019a1.939,1.939,0,0,0-1.7-1.925l-.242.084a1.7,1.7,0,0,0-1.751,1.836l.112,14.72a7.993,7.993,0,0,0,1.262,4.108,10.476,10.476,0,0,1,1.1,5.2v.435h12.1l.166-.435v-.179a5.109,5.109,0,0,1,2.616-4.46,5.109,5.109,0,0,0,2.616-4.46V258.1a5.107,5.107,0,0,1,.394-1.969l.791-1.894a1.355,1.355,0,0,0-.992-1.852A1.018,1.018,0,0,1,203.112,252.491Z" transform="translate(-183.06 -237.436)" fill="#c59191"/>
            <path id="Path_1090381" data-name="Path 1090381" d="M185.051,296.362a11.629,11.629,0,0,1,1.449,5.586v.328l-.264.428-1.644-.036-.143-.392a9.671,9.671,0,0,0-.284-2.376,9.877,9.877,0,0,0-1-2.466,8.885,8.885,0,0,1-1.16-4.388v-14.8a1.939,1.939,0,0,1,1.938-1.938,1.792,1.792,0,0,1,.235.014v16.722A6.744,6.744,0,0,0,185.051,296.362Z" transform="translate(-182 -270.675)" fill="#b98080"/>
            <path id="Path_1090382" data-name="Path 1090382" d="M213.4,460.758H201.279l.451-4.608,1.256-.6H213.4Z" transform="translate(-198.486 -423.952)" fill="#f2fbff"/>
            <path id="Path_1090383" data-name="Path 1090383" d="M198.9,455.554h2.052v5.2H198.9Z" transform="translate(-196.449 -423.952)" fill="#dfeef4"/>
            <path id="Path_1090384" data-name="Path 1090384" d="M189.579,486.854v-.789a.724.724,0,0,1,.724-.724l2.265-.1.412-.189h11.332a.724.724,0,0,1,.724.724v1.369a.724.724,0,0,1-.724.724H192.981l-.354-.183-2.323-.107A.724.724,0,0,1,189.579,486.854Z" transform="translate(-188.481 -449.176)" fill="#94d8e6"/>
            <path id="Path_1090385" data-name="Path 1090385" d="M191.271,485.05v2.818H188.3a.725.725,0,0,1-.724-.724v-1.369a.725.725,0,0,1,.724-.724Z" transform="translate(-186.772 -449.175)" fill="#75c5d8"/>
            <g id="Group_1220233" data-name="Group 1220233" transform="translate(3.878)">
              <path id="Path_1090386" data-name="Path 1090386" d="M210.943,254.114v9.652a1.738,1.738,0,0,1-1.738,1.738.434.434,0,0,1-.435-.435v-8.909a2.053,2.053,0,0,1,2.05-2.051C210.862,254.11,210.9,254.111,210.943,254.114Z" transform="translate(-208.77 -251.691)" fill="#b98080"/>
              <path id="Path_1090387" data-name="Path 1090387" d="M239.253,237.414v12.072a1.738,1.738,0,0,1-1.738,1.738.434.434,0,0,1-.435-.435V239.46a2.05,2.05,0,0,1,2.05-2.05C239.172,237.41,239.212,237.411,239.253,237.414Z" transform="translate(-232.979 -237.41)" fill="#b98080"/>
              <path id="Path_1090388" data-name="Path 1090388" d="M267.543,255.694v9.424a1.738,1.738,0,0,1-1.738,1.738.435.435,0,0,1-.435-.435v-8.678a2.053,2.053,0,0,1,2.054-2.054c.041,0,.08,0,.119,0Z" transform="translate(-257.171 -253.042)" fill="#b98080"/>
            </g>
            <g id="Group_1220234" data-name="Group 1220234" transform="translate(16.187 14.927)">
              <path id="Path_1090389" data-name="Path 1090389" d="M297.895,340.475l-.388.846-1.1,2.644a6.458,6.458,0,0,0-.5,2.487v1.26a2.175,2.175,0,0,1-1.638,2.107.433.433,0,0,1-.535-.423v-2.944a8.645,8.645,0,0,1,.662-3.32l.3-.723a3.179,3.179,0,0,1,2.935-1.959A1.366,1.366,0,0,1,297.895,340.475Z" transform="translate(-293.74 -340.45)" fill="#b98080"/>
            </g>
          </g>
          <g id="Group_1220238" data-name="Group 1220238" transform="translate(50.559 33.306)">
            <path id="Path_1090390" data-name="Path 1090390" d="M377.611,252.491a2.809,2.809,0,0,0-2.727,1.854l-.287.766a22.6,22.6,0,0,0-.851,3.253V242.138a2.054,2.054,0,0,0-1.936-2.051s-.089.149-.129.149a1.9,1.9,0,0,0-1.855,1.847l-.189.056v-2.652a2.05,2.05,0,0,0-1.926-2.046s-.119.092-.161.092a1.855,1.855,0,0,0-1.87,1.992l-.011,2.366-.131.016a2.051,2.051,0,0,0-1.928-2.047l-.123.141a1.812,1.812,0,0,0-1.906,1.906v3.085l-.145.019a1.939,1.939,0,0,0-1.7-1.925l-.242.084a1.7,1.7,0,0,0-1.751,1.836l.112,14.72a7.993,7.993,0,0,0,1.262,4.108,10.476,10.476,0,0,1,1.1,5.2v.435h12.1l.166-.435v-.179a5.109,5.109,0,0,1,2.616-4.46,5.109,5.109,0,0,0,2.616-4.46V258.1a5.107,5.107,0,0,1,.394-1.969l.791-1.894a1.355,1.355,0,0,0-.992-1.852A1.014,1.014,0,0,1,377.611,252.491Z" transform="translate(-357.559 -237.436)" fill="#ffdfd4"/>
            <path id="Path_1090391" data-name="Path 1090391" d="M359.551,296.362A11.629,11.629,0,0,1,361,301.948v.328l-.262.434-1.327-.04-.462-.395a9.672,9.672,0,0,0-.284-2.376,9.876,9.876,0,0,0-1-2.466,8.886,8.886,0,0,1-1.16-4.388v-14.8a1.939,1.939,0,0,1,1.938-1.938,1.792,1.792,0,0,1,.235.014v16.722A6.745,6.745,0,0,0,359.551,296.362Z" transform="translate(-356.5 -270.675)" fill="#feccbc"/>
            <path id="Path_1090392" data-name="Path 1090392" d="M387.9,460.758H375.779l.451-4.608,1.256-.6H387.9Z" transform="translate(-372.986 -423.952)" fill="#f2fbff"/>
            <path id="Path_1090393" data-name="Path 1090393" d="M373.4,455.554h2.052v5.2H373.4Z" transform="translate(-370.949 -423.952)" fill="#dfeef4"/>
            <path id="Path_1090394" data-name="Path 1090394" d="M364.079,486.854v-.789a.724.724,0,0,1,.724-.724l2.265-.1.412-.189h11.332a.724.724,0,0,1,.724.724v1.369a.724.724,0,0,1-.724.724H367.481l-.354-.183-2.323-.107A.724.724,0,0,1,364.079,486.854Z" transform="translate(-362.981 -449.176)" fill="#ffd15b"/>
            <path id="Path_1090395" data-name="Path 1090395" d="M365.771,485.05v2.818H362.8a.725.725,0,0,1-.724-.724v-1.369a.725.725,0,0,1,.724-.724Z" transform="translate(-361.272 -449.175)" fill="#ffc344"/>
            <g id="Group_1220236" data-name="Group 1220236" transform="translate(3.878)">
              <path id="Path_1090396" data-name="Path 1090396" d="M385.443,254.114v9.652a1.738,1.738,0,0,1-1.738,1.738.434.434,0,0,1-.435-.435v-8.909a2.053,2.053,0,0,1,2.05-2.051C385.362,254.11,385.4,254.111,385.443,254.114Z" transform="translate(-383.27 -251.691)" fill="#feccbc"/>
              <path id="Path_1090397" data-name="Path 1090397" d="M413.753,237.414v12.072a1.738,1.738,0,0,1-1.738,1.738.434.434,0,0,1-.435-.435V239.46a2.05,2.05,0,0,1,2.05-2.05C413.672,237.41,413.712,237.411,413.753,237.414Z" transform="translate(-407.479 -237.41)" fill="#feccbc"/>
              <path id="Path_1090398" data-name="Path 1090398" d="M442.043,255.694v9.424a1.738,1.738,0,0,1-1.738,1.738.435.435,0,0,1-.435-.435v-8.678a2.053,2.053,0,0,1,2.054-2.054c.041,0,.08,0,.119,0Z" transform="translate(-431.671 -253.042)" fill="#feccbc"/>
            </g>
            <g id="Group_1220237" data-name="Group 1220237" transform="translate(16.187 14.927)">
              <path id="Path_1090399" data-name="Path 1090399" d="M472.395,340.475l-.388.846-1.1,2.644a6.459,6.459,0,0,0-.5,2.487v1.26a2.175,2.175,0,0,1-1.638,2.107.433.433,0,0,1-.535-.423v-2.944a8.644,8.644,0,0,1,.662-3.32l.3-.723a3.178,3.178,0,0,1,2.935-1.959A1.366,1.366,0,0,1,472.395,340.475Z" transform="translate(-468.24 -340.45)" fill="#feccbc"/>
            </g>
          </g>
          <path id="Path_1090400" data-name="Path 1090400" d="M53.726,179.46v5.369h-6.5a.725.725,0,0,1-.724-.724v-3.92a.725.725,0,0,1,.724-.724Z" transform="translate(-40.85 -154.549)" fill="#7e8b96"/>
          <path id="Path_1090401" data-name="Path 1090401" d="M11.873,73.289l-.013,8.166a5.273,5.273,0,0,1-4.146-.489A.438.438,0,0,1,7.5,80.59V73.417a.434.434,0,0,1,.624-.39A5.455,5.455,0,0,0,11.873,73.289Z" transform="translate(-7.499 -63.496)" fill="#ade194"/>
        </g>
        <g id="Group_1220240" data-name="Group 1220240" transform="translate(0 0)">
          <path id="Path_1090402" data-name="Path 1090402" d="M195.672,244.84a4.253,4.253,0,0,0-2.811,1.057V235.7a3.142,3.142,0,0,0-4.126-2.983,3.136,3.136,0,0,0-6.206-.219,3.138,3.138,0,0,0-4.15,2.97v.2a3.03,3.03,0,0,0-3.878,2.9v14.8a10.005,10.005,0,0,0,1.3,4.923,8.409,8.409,0,0,1,1.146,4.307v3.187H176.4a1.086,1.086,0,0,0-1.087,1.086v2.818a1.086,1.086,0,0,0,2.173,0v-1.731h13.575v1.731a1.086,1.086,0,0,0,2.173,0v-2.818a1.086,1.086,0,0,0-1.087-1.086h-.553v-3.365a4.086,4.086,0,0,1,2.06-3.511,6.2,6.2,0,0,0,3.173-5.408v-1.838a4,4,0,0,1,.311-1.55l.791-1.894a2.441,2.441,0,0,0-2.253-3.381Zm-16.55,20.948v-2.1h10.3v2.1Zm16.8-18.4-.791,1.894a6.164,6.164,0,0,0-.478,2.387V253.5a4.026,4.026,0,0,1-2.06,3.511,6.2,6.2,0,0,0-3.1,4.5H179.07a10.649,10.649,0,0,0-1.377-4.292,7.827,7.827,0,0,1-1.019-3.852v-14.8a.852.852,0,0,1,1.7,0v5.812a1.087,1.087,0,1,0,2.173,0V235.47a.964.964,0,0,1,1.928,0v8.916a1.087,1.087,0,0,0,2.173,0V233.05a.963.963,0,0,1,1.926,0v11.336a1.087,1.087,0,0,0,2.173,0V235.7a.968.968,0,0,1,1.936,0v17.487a1.086,1.086,0,1,0,2.173,0v-1.26a7.534,7.534,0,0,1,.579-2.9l.3-.722a2.086,2.086,0,0,1,1.932-1.29.268.268,0,0,1,.247.371Z" transform="translate(-149.222 -196.607)"/>
          <path id="Path_1090403" data-name="Path 1090403" d="M66.3,19.45a12.964,12.964,0,0,0,4.076.891,5.775,5.775,0,0,0,3.314-1.019,1.087,1.087,0,0,0,.481-.9V10.257a1.087,1.087,0,0,0-1.692-.9c-1.7,1.143-3.455.554-5.486-.128-2.249-.756-4.8-1.612-7.39.128a1.087,1.087,0,0,0-.481.9V24.912h-4.9V20.5a2.543,2.543,0,0,0-.808-1.856l-3.437-3.2a1.087,1.087,0,1,0-1.48,1.591l3.437,3.2a.364.364,0,0,1,.115.265v4.412H48.494V23.254a4.078,4.078,0,0,0-3.52-4.027l-3.825-.517V15.963c0-.009,0-.017,0-.025l.908-.786A5.053,5.053,0,0,0,43.8,11.328V8.04L44.38,5.55a3.034,3.034,0,0,0-.591-2.609A8.293,8.293,0,0,0,37.086,0a8.352,8.352,0,0,0-6.718,2.937,3.073,3.073,0,0,0-.6,2.62l.575,2.484v3.287a5.054,5.054,0,0,0,1.747,3.823l.933.808s0,0,0,0v2.747l-3.825.517a4.078,4.078,0,0,0-3.52,4.027v1.658H22.122V20.5a.364.364,0,0,1,.115-.265l3.437-3.2a1.087,1.087,0,0,0-1.48-1.591l-3.437,3.2a2.543,2.543,0,0,0-.808,1.856v4.412h-4.9V10.256a1.087,1.087,0,0,0-.481-.9,5.924,5.924,0,0,0-4.117-.972,1.086,1.086,0,1,0,.238,2.16,3.8,3.8,0,0,1,2.187.336V16.72c-2-.573-3.94.079-5.7.67-1.84.618-3.453,1.16-5.006.405V11.949a7.149,7.149,0,0,0,3.72-.057,1.086,1.086,0,1,0-.525-2.109,4.185,4.185,0,0,1-3.676-.429,1.087,1.087,0,0,0-1.693.9V18.42a1.087,1.087,0,0,0,.481.9,5.774,5.774,0,0,0,3.314,1.019,12.969,12.969,0,0,0,4.076-.891c1.84-.618,3.453-1.16,5.006-.405v5.867H6.736A1.086,1.086,0,0,0,5.65,26v4.643a1.086,1.086,0,0,0,1.086,1.086H9.344v2.13a3.14,3.14,0,0,0-1.316,2.035,3.138,3.138,0,0,0-4.15,2.97v.2A3.03,3.03,0,0,0,0,41.967v14.8a10,10,0,0,0,1.3,4.923,8.41,8.41,0,0,1,1.146,4.307v3.187H1.895A1.086,1.086,0,0,0,.808,70.268v2.818a1.086,1.086,0,1,0,2.173,0V71.354H16.556v1.731a1.086,1.086,0,1,0,2.173,0V70.268a1.086,1.086,0,0,0-1.086-1.087h-.553V65.816a4.026,4.026,0,0,1,2.06-3.511A6.2,6.2,0,0,0,22.322,56.9V55.058a4,4,0,0,1,.311-1.55l.791-1.894a2.441,2.441,0,0,0-2.252-3.381A4.253,4.253,0,0,0,18.36,49.29V45.823a1.086,1.086,0,1,0-2.173,0V56.582a1.086,1.086,0,1,0,2.173,0v-1.26a7.535,7.535,0,0,1,.579-2.9l.3-.722a2.086,2.086,0,0,1,1.932-1.29.268.268,0,0,1,.247.371l-.791,1.894a6.164,6.164,0,0,0-.478,2.387V56.9a4.026,4.026,0,0,1-2.06,3.511,6.2,6.2,0,0,0-3.1,4.5H4.569a10.649,10.649,0,0,0-1.377-4.292,7.826,7.826,0,0,1-1.019-3.852v-14.8a.852.852,0,0,1,1.7,0v5.812a1.086,1.086,0,1,0,2.173,0V38.863a.964.964,0,1,1,1.928,0v8.916a1.086,1.086,0,1,0,2.173,0V36.443a.963.963,0,1,1,1.926,0V47.779a1.086,1.086,0,1,0,2.173,0V39.1a.968.968,0,0,1,1.936,0v1.658a1.086,1.086,0,1,0,2.173,0V39.1a3.142,3.142,0,0,0-4.126-2.983,3.14,3.14,0,0,0-2.717-2.777V31.728H62.655v1.739a3.127,3.127,0,0,0-4.069,2.426,3.138,3.138,0,0,0-4.15,2.97v.2a3.03,3.03,0,0,0-3.878,2.9v8.7a1.086,1.086,0,1,0,2.173,0v-8.7a.852.852,0,0,1,1.7,0v5.812a1.087,1.087,0,0,0,2.173,0V38.863a.964.964,0,0,1,1.928,0v8.916a1.087,1.087,0,0,0,2.173,0V36.443a.963.963,0,1,1,1.926,0V47.779a1.087,1.087,0,0,0,2.173,0V39.1a.968.968,0,0,1,1.936,0V56.581a1.086,1.086,0,1,0,2.173,0v-1.26a7.534,7.534,0,0,1,.579-2.9l.3-.722a2.086,2.086,0,0,1,1.932-1.29.268.268,0,0,1,.247.371l-.791,1.894a6.164,6.164,0,0,0-.478,2.387V56.9a4.026,4.026,0,0,1-2.06,3.511,6.2,6.2,0,0,0-3.1,4.5H55.127a10.649,10.649,0,0,0-1.377-4.292,7.826,7.826,0,0,1-1.019-3.852V55.738a1.086,1.086,0,1,0-2.173,0v1.026a10,10,0,0,0,1.3,4.923,8.41,8.41,0,0,1,1.146,4.307v3.187h-.553a1.086,1.086,0,0,0-1.087,1.086v2.818a1.086,1.086,0,1,0,2.173,0V71.354H67.114v1.731a1.086,1.086,0,1,0,2.173,0V70.268A1.086,1.086,0,0,0,68.2,69.181h-.553V65.816a4.026,4.026,0,0,1,2.06-3.511A6.2,6.2,0,0,0,72.88,56.9V55.058a4,4,0,0,1,.311-1.55l.791-1.894a2.441,2.441,0,0,0-2.252-3.381,4.253,4.253,0,0,0-2.811,1.057V39.1a3.138,3.138,0,0,0-4.09-2.993V31.728h2.608a1.086,1.086,0,0,0,1.086-1.086V26a1.086,1.086,0,0,0-1.086-1.087H61.3V19.044c1.553-.754,3.166-.213,5.006.405ZM14.916,69.181H4.621v-2.1h10.3v2.1Zm40.263,0v-2.1h10.3v2.1Zm-18.1-48.532-1.881-1.511V17.417a5.3,5.3,0,0,0,3.782-.01v1.728ZM32.051,4.31a6.157,6.157,0,0,1,5.035-2.137A6.1,6.1,0,0,1,42.1,4.307a.886.886,0,0,1,.165.753h0l-.3,1.306a5.47,5.47,0,0,0-1.639-.25A6.206,6.206,0,0,0,37.1,7.166a.077.077,0,0,1-.079-.006,5.875,5.875,0,0,0-3.187-1.044,6.194,6.194,0,0,0-1.654.251l-.3-1.3a.884.884,0,0,1,.167-.756Zm.464,4.252a3.277,3.277,0,0,1,1.3-.273,3.705,3.705,0,0,1,1.969.656,2.252,2.252,0,0,0,1.286.4,2.226,2.226,0,0,0,1.3-.416,3.75,3.75,0,0,1,1.975-.642,3.283,3.283,0,0,1,1.284.272v2.766a2.881,2.881,0,0,1-1,2.18L39.09,14.845a3.1,3.1,0,0,1-4.034,0l-1.544-1.337a2.882,2.882,0,0,1-1-2.18ZM27.85,23.253a1.9,1.9,0,0,1,1.638-1.874l4.3-.581L36,22.572v2.34H27.85V23.253Zm38.5,6.3H7.823v-2.47H39.76a1.086,1.086,0,1,0,0-2.173H38.172V22.554L40.377,20.8l4.306.582a1.9,1.9,0,0,1,1.638,1.874v1.658H44.831a1.086,1.086,0,1,0,0,2.173H66.349ZM61.3,10.881c1.553-.755,3.166-.213,5.006.405,1.757.59,3.7,1.242,5.7.67V17.8c-1.553.754-3.165.213-5.006-.405a12.964,12.964,0,0,0-4.076-.891,5.854,5.854,0,0,0-1.621.221Z" transform="translate(0 0)"/>
        </g>
      </g>
    </g>
  </g>
</svg>
