<svg xmlns="http://www.w3.org/2000/svg" xmlns:xlink="http://www.w3.org/1999/xlink" width="93.934" height="93.934" viewBox="0 0 93.934 93.934">
  <defs>
    <filter id="Path_978624" x="0" y="0" width="93.934" height="93.934" filterUnits="userSpaceOnUse">
      <feOffset dy="3" input="SourceAlpha"/>
      <feGaussianBlur stdDeviation="3" result="blur"/>
      <feFlood flood-opacity="0.161"/>
      <feComposite operator="in" in2="blur"/>
      <feComposite in="SourceGraphic"/>
    </filter>
  </defs>
  <g id="Group_1220436" data-name="Group 1220436" transform="translate(-190.467 -7296.165)">
    <g id="Group_1220206" data-name="Group 1220206" transform="translate(1.467)">
      <g id="Group_1219121" data-name="Group 1219121" transform="translate(198 7302.165)">
        <g id="Group_1208068" data-name="Group 1208068">
          <g id="Group_1144123" data-name="Group 1144123">
            <g transform="matrix(1, 0, 0, 1, -9, -6)" filter="url(#Path_978624)">
              <g id="Path_978624-2" data-name="Path 978624" transform="translate(9 6)" fill="#efeadd">
                <path d="M 37.966796875 74.43359375 C 33.04315185546875 74.43359375 28.26757431030273 73.46962738037109 23.77274131774902 71.56847381591797 C 19.43047523498535 69.73184967041016 15.53040790557861 67.10224914550781 12.18087482452393 63.75271987915039 C 8.831341743469238 60.4031867980957 6.201741218566895 56.50312042236328 4.365118980407715 52.16086196899414 C 2.463963508605957 47.66601943969727 1.499996900558472 42.89044189453125 1.499996900558472 37.966796875 C 1.499996900558472 33.04315185546875 2.463963508605957 28.26757431030273 4.365118980407715 23.77274131774902 C 6.201741218566895 19.43047523498535 8.831341743469238 15.53040790557861 12.18087482452393 12.18087482452393 C 15.53040790557861 8.831341743469238 19.43047523498535 6.201741218566895 23.77274131774902 4.365118980407715 C 28.26757431030273 2.463963508605957 33.04315185546875 1.499996900558472 37.966796875 1.499996900558472 C 42.89044189453125 1.499996900558472 47.66601943969727 2.463963508605957 52.16086196899414 4.365118980407715 C 56.50312042236328 6.201741218566895 60.4031867980957 8.831341743469238 63.75271987915039 12.18087482452393 C 67.10224914550781 15.53040790557861 69.73184967041016 19.43047523498535 71.56847381591797 23.77274131774902 C 73.46962738037109 28.26757431030273 74.43359375 33.04315185546875 74.43359375 37.966796875 C 74.43359375 42.89044189453125 73.46962738037109 47.66601943969727 71.56847381591797 52.16086196899414 C 69.73184967041016 56.50313186645508 67.10224914550781 60.4031867980957 63.75271987915039 63.75271987915039 C 60.4031867980957 67.10224914550781 56.50313186645508 69.73184967041016 52.16086196899414 71.56847381591797 C 47.66601943969727 73.46962738037109 42.89044189453125 74.43359375 37.966796875 74.43359375 Z" stroke="none"/>
                <path d="M 37.966796875 3 C 33.2449836730957 3 28.66600799560547 3.924095153808594 24.35705947875977 5.746635437011719 C 20.19359588623047 7.507621765136719 16.45379638671875 10.02927398681641 13.24153518676758 13.24153518676758 C 10.02927398681641 16.45379638671875 7.507621765136719 20.19359588623047 5.746635437011719 24.35705947875977 C 3.924095153808594 28.66600799560547 3 33.2449836730957 3 37.966796875 C 3 42.6886100769043 3.924095153808594 47.26758575439453 5.746635437011719 51.57653427124023 C 7.507621765136719 55.73999786376953 10.02927398681641 59.47979736328125 13.24153518676758 62.69205856323242 C 16.45379638671875 65.90431976318359 20.19359588623047 68.42597198486328 24.35705947875977 70.18695831298828 C 28.66600799560547 72.00949859619141 33.2449836730957 72.93359375 37.966796875 72.93359375 C 42.6886100769043 72.93359375 47.26758575439453 72.00949859619141 51.57653427124023 70.18695831298828 C 55.73999786376953 68.42597198486328 59.47979736328125 65.90431976318359 62.69205856323242 62.69205856323242 C 65.90431976318359 59.47979736328125 68.42597198486328 55.73999786376953 70.18695831298828 51.57653427124023 C 72.00949859619141 47.26758575439453 72.93359375 42.6886100769043 72.93359375 37.966796875 C 72.93359375 33.2449836730957 72.00949859619141 28.66600799560547 70.18695831298828 24.35705947875977 C 68.42597198486328 20.19359588623047 65.90431976318359 16.45379638671875 62.69205856323242 13.24153518676758 C 59.47979736328125 10.02927398681641 55.73999786376953 7.507621765136719 51.57653427124023 5.746635437011719 C 47.26758575439453 3.924095153808594 42.6886100769043 3 37.966796875 3 M 37.966796875 0 C 58.93528366088867 0 75.93359375 16.99831008911133 75.93359375 37.966796875 C 75.93359375 58.93528366088867 58.93528366088867 75.93359375 37.966796875 75.93359375 C 16.99831008911133 75.93359375 0 58.93528366088867 0 37.966796875 C 0 16.99831008911133 16.99831008911133 0 37.966796875 0 Z" stroke="none" fill="#847625"/>
              </g>
            </g>
          </g>
        </g>
      </g>
      <g id="americano" transform="translate(199.203 7238.595)">
        <g id="Group_1220204" data-name="Group 1220204" transform="translate(1.149 76.763)">
          <path id="Path_1089977" data-name="Path 1089977" d="M290.644,90.566H254.866V83.488H288.49a2.154,2.154,0,0,1,2.154,2.154Z" transform="translate(-219.414 -83.488)" fill="#ff748f"/>
          <path id="Path_1089978" data-name="Path 1089978" d="M254.866,132.777h35.778v7.078H254.866Z" transform="translate(-219.414 -125.699)" fill="#eeeff4"/>
          <path id="Path_1089979" data-name="Path 1089979" d="M254.866,182.066h35.778v7.078H254.866Z" transform="translate(-219.414 -167.909)" fill="#ff748f"/>
          <path id="Path_1089980" data-name="Path 1089980" d="M8,231.355H79.23v7.078H8Z" transform="translate(-8 -210.12)" fill="#eeeff4"/>
          <path id="Path_1089981" data-name="Path 1089981" d="M8,280.645H79.23v7.078H8Z" transform="translate(-8 -252.332)" fill="#ff748f"/>
          <path id="Path_1089982" data-name="Path 1089982" d="M8,329.934H79.23v7.078H8Z" transform="translate(-8 -294.542)" fill="#eeeff4"/>
          <path id="Path_1089983" data-name="Path 1089983" d="M77.076,386.3H10.154A2.154,2.154,0,0,1,8,384.148v-4.924H79.23v4.924A2.154,2.154,0,0,1,77.076,386.3Z" transform="translate(-8 -336.754)" fill="#ff748f"/>
          <path id="Path_1089984" data-name="Path 1089984" d="M77.076,397.667H10.154A2.154,2.154,0,0,1,8,395.513V398.1a2.154,2.154,0,0,0,2.154,2.154H77.076A2.154,2.154,0,0,0,79.23,398.1v-2.585A2.154,2.154,0,0,1,77.076,397.667Z" transform="translate(-8 -350.704)" fill="#ff577f"/>
          <path id="Path_1089985" data-name="Path 1089985" d="M43.452,104.723H8V85.642a2.154,2.154,0,0,1,2.154-2.154h33.3Z" transform="translate(-8 -83.488)" fill="#65add6"/>
        </g>
        <g id="Group_1220205" data-name="Group 1220205" transform="translate(0 75.635)">
          <path id="Path_1089986" data-name="Path 1089986" d="M70.29,75.635H3.238A3.241,3.241,0,0,0,0,78.872V124.2a3.241,3.241,0,0,0,3.238,3.238H51.232a1.079,1.079,0,1,0,0-2.158H3.238A1.08,1.08,0,0,1,2.158,124.2v-3.855H71.369V124.2a1.08,1.08,0,0,1-1.079,1.079H55.548a1.079,1.079,0,1,0,0,2.158H70.29a3.241,3.241,0,0,0,3.238-3.238V78.872A3.241,3.241,0,0,0,70.29,75.635ZM2.158,106.162H15.521a1.079,1.079,0,1,0,0-2.158H2.158V99.07H71.369V104H19.837a1.079,1.079,0,1,0,0,2.158H71.369V111.1H2.158Zm69.211-9.25H37.842V91.978H71.369v4.934Zm0-18.039v3.855h-9.03a1.079,1.079,0,1,0,0,2.158h9.03v4.934H37.68V84.886H58.022a1.079,1.079,0,1,0,0-2.158H37.68V77.793H70.29A1.08,1.08,0,0,1,71.369,78.872Zm-69.211,0a1.08,1.08,0,0,1,1.079-1.079H35.522V96.912H2.158Zm0,39.316v-4.934H71.369v4.934Z" transform="translate(0 -75.635)"/>
          <path id="Path_1089987" data-name="Path 1089987" d="M68.954,144.442a1.079,1.079,0,0,0-1.526,0l-.8.8a1.079,1.079,0,0,0,0,1.526l.8.8a1.079,1.079,0,0,0,1.526,0l.8-.8a1.079,1.079,0,0,0,0-1.526Z" transform="translate(-56.787 -134.29)"/>
          <path id="Path_1089988" data-name="Path 1089988" d="M68.954,107.128a1.079,1.079,0,0,0-1.526,0l-.8.8a1.079,1.079,0,0,0,0,1.526l.8.8a1.079,1.079,0,0,0,1.526,0l.8-.8a1.079,1.079,0,0,0,0-1.526Z" transform="translate(-56.787 -102.335)"/>
          <path id="Path_1089989" data-name="Path 1089989" d="M68.953,181.758a1.079,1.079,0,0,0-1.526,0l-.8.8a1.079,1.079,0,0,0,0,1.526l.8.8a1.079,1.079,0,0,0,1.526,0l.8-.8a1.079,1.079,0,0,0,0-1.526Z" transform="translate(-56.786 -166.247)"/>
          <path id="Path_1089990" data-name="Path 1089990" d="M34.97,125.784a1.079,1.079,0,0,0-1.526,0l-.8.8a1.079,1.079,0,0,0,0,1.526l.8.8a1.079,1.079,0,0,0,1.526,0l.8-.8a1.079,1.079,0,0,0,0-1.526Z" transform="translate(-27.683 -118.312)"/>
          <path id="Path_1089991" data-name="Path 1089991" d="M34.97,163.1a1.079,1.079,0,0,0-1.526,0l-.8.8a1.079,1.079,0,0,0,0,1.526l.8.8a1.079,1.079,0,0,0,1.526,0l.8-.8a1.079,1.079,0,0,0,0-1.526Z" transform="translate(-27.683 -150.268)"/>
          <path id="Path_1089992" data-name="Path 1089992" d="M136.921,144.442a1.079,1.079,0,0,0-1.526,0l-.8.8a1.079,1.079,0,0,0,0,1.526l.8.8a1.079,1.079,0,0,0,1.526,0l.8-.8a1.079,1.079,0,0,0,0-1.526Z" transform="translate(-114.993 -134.29)"/>
          <path id="Path_1089993" data-name="Path 1089993" d="M136.921,107.128a1.079,1.079,0,0,0-1.526,0l-.8.8a1.079,1.079,0,0,0,0,1.526l.8.8a1.079,1.079,0,0,0,1.526,0l.8-.8a1.079,1.079,0,0,0,0-1.526Z" transform="translate(-114.993 -102.335)"/>
          <path id="Path_1089994" data-name="Path 1089994" d="M136.922,181.758a1.079,1.079,0,0,0-1.526,0l-.8.8a1.079,1.079,0,0,0,0,1.526l.8.8a1.079,1.079,0,0,0,1.526,0l.8-.8a1.079,1.079,0,0,0,0-1.526Z" transform="translate(-114.994 -166.247)"/>
          <path id="Path_1089995" data-name="Path 1089995" d="M102.938,125.784a1.079,1.079,0,0,0-1.526,0l-.8.8a1.079,1.079,0,0,0,0,1.526l.8.8a1.079,1.079,0,0,0,1.526,0l.8-.8a1.079,1.079,0,0,0,0-1.526Z" transform="translate(-85.891 -118.312)"/>
          <path id="Path_1089996" data-name="Path 1089996" d="M102.938,163.1a1.079,1.079,0,0,0-1.526,0l-.8.8a1.079,1.079,0,0,0,0,1.526l.8.8a1.079,1.079,0,0,0,1.526,0l.8-.8a1.079,1.079,0,0,0,0-1.526Z" transform="translate(-85.891 -150.268)"/>
          <path id="Path_1089997" data-name="Path 1089997" d="M204.89,144.442a1.079,1.079,0,0,0-1.526,0l-.8.8a1.079,1.079,0,0,0,0,1.526l.8.8a1.079,1.079,0,0,0,1.526,0l.8-.8a1.079,1.079,0,0,0,0-1.526Z" transform="translate(-173.201 -134.29)"/>
          <path id="Path_1089998" data-name="Path 1089998" d="M204.89,107.128a1.079,1.079,0,0,0-1.526,0l-.8.8a1.079,1.079,0,0,0,0,1.526l.8.8a1.079,1.079,0,0,0,1.526,0l.8-.8a1.079,1.079,0,0,0,0-1.526Z" transform="translate(-173.201 -102.335)"/>
          <path id="Path_1089999" data-name="Path 1089999" d="M204.891,181.758a1.079,1.079,0,0,0-1.526,0l-.8.8a1.079,1.079,0,0,0,0,1.526l.8.8a1.079,1.079,0,0,0,1.526,0l.8-.8a1.079,1.079,0,0,0,0-1.526Z" transform="translate(-173.202 -166.247)"/>
          <path id="Path_1090000" data-name="Path 1090000" d="M170.906,125.784a1.079,1.079,0,0,0-1.526,0l-.8.8a1.079,1.079,0,0,0,0,1.526l.8.8a1.079,1.079,0,0,0,1.526,0l.8-.8a1.079,1.079,0,0,0,0-1.526Z" transform="translate(-144.098 -118.312)"/>
          <path id="Path_1090001" data-name="Path 1090001" d="M170.906,163.1a1.079,1.079,0,0,0-1.526,0l-.8.8a1.079,1.079,0,0,0,0,1.526l.8.8a1.079,1.079,0,0,0,1.526,0l.8-.8a1.079,1.079,0,0,0,0-1.526Z" transform="translate(-144.098 -150.268)"/>
        </g>
      </g>
    </g>
  </g>
</svg>
