<svg xmlns="http://www.w3.org/2000/svg" xmlns:xlink="http://www.w3.org/1999/xlink" width="113" height="113" viewBox="0 0 113 113">
  <defs>
    <filter id="Path_982547" x="0" y="0" width="113" height="113" filterUnits="userSpaceOnUse">
      <feOffset dy="3" input="SourceAlpha"/>
      <feGaussianBlur stdDeviation="3" result="blur"/>
      <feFlood flood-opacity="0.161"/>
      <feComposite operator="in" in2="blur"/>
      <feComposite in="SourceGraphic"/>
    </filter>
  </defs>
  <g id="Group_1220457" data-name="Group 1220457" transform="translate(-323 -3158.09)">
    <g id="Group_1220225" data-name="Group 1220225">
      <g id="Group_1219407" data-name="Group 1219407" transform="translate(-2 -736.059)">
        <g id="Group_1210956" data-name="Group 1210956" transform="translate(0 -689.385)">
          <g id="Group_1209935" data-name="Group 1209935" transform="translate(0 -2945.274)">
            <g id="Group_1208705" data-name="Group 1208705" transform="translate(-1.454 3213.429)">
              <g id="Group_1148633" data-name="Group 1148633" transform="translate(71.408 600.047)">
                <g id="Group_1148525" data-name="Group 1148525" transform="translate(264.046 3721.333)">
                  <g transform="matrix(1, 0, 0, 1, -9, -6)" filter="url(#Path_982547)">
                    <g id="Path_982547-2" data-name="Path 982547" transform="translate(9 6)" fill="#e6d567">
                      <path d="M 47.5 93.5 C 41.28937149047852 93.5 35.26533508300781 92.28397369384766 29.59518623352051 89.88570404052734 C 24.11771965026855 87.56893157958984 19.19813346862793 84.25196075439453 14.97309303283691 80.02691650390625 C 10.74804019927979 75.80186462402344 7.431066513061523 70.88229370117188 5.114293098449707 65.40481567382812 C 2.716026782989502 59.73468017578125 1.5 53.71062850952148 1.5 47.5 C 1.5 41.28937149047852 2.716026782989502 35.26533508300781 5.114293098449707 29.59518623352051 C 7.431066513061523 24.11771965026855 10.74804019927979 19.19813346862793 14.97309303283691 14.97309303283691 C 19.19813346862793 10.74804019927979 24.11771965026855 7.431066513061523 29.59518623352051 5.114293098449707 C 35.26533508300781 2.716026782989502 41.28937149047852 1.5 47.5 1.5 C 53.71062850952148 1.5 59.73468017578125 2.716026782989502 65.40481567382812 5.114293098449707 C 70.88229370117188 7.431066513061523 75.80186462402344 10.74804019927979 80.02691650390625 14.97309303283691 C 84.25196075439453 19.19813346862793 87.56893157958984 24.11771965026855 89.88570404052734 29.59518623352051 C 92.28397369384766 35.26533508300781 93.5 41.28937149047852 93.5 47.5 C 93.5 53.71062850952148 92.28397369384766 59.73468017578125 89.88570404052734 65.40481567382812 C 87.56893157958984 70.88229370117188 84.25196075439453 75.80186462402344 80.02691650390625 80.02691650390625 C 75.80186462402344 84.25196075439453 70.88229370117188 87.56893157958984 65.40481567382812 89.88570404052734 C 59.73468017578125 92.28397369384766 53.71062850952148 93.5 47.5 93.5 Z" stroke="none"/>
                      <path d="M 47.5 3 C 41.49121475219727 3 35.66376876831055 4.176155090332031 30.17950439453125 6.495796203613281 C 24.88084411621094 8.736953735351562 20.12152099609375 11.94598388671875 16.03375244140625 16.03375244140625 C 11.94598388671875 20.12152099609375 8.736953735351562 24.88084411621094 6.495796203613281 30.17950439453125 C 4.176155090332031 35.66376876831055 3 41.49121475219727 3 47.5 C 3 53.50878524780273 4.176155090332031 59.33623123168945 6.495796203613281 64.82049560546875 C 8.736953735351562 70.11915588378906 11.94598388671875 74.87847900390625 16.03375244140625 78.96624755859375 C 20.12152099609375 83.05401611328125 24.88084411621094 86.26304626464844 30.17950439453125 88.50419616699219 C 35.66376876831055 90.82384490966797 41.49121475219727 92 47.5 92 C 53.50878524780273 92 59.33623123168945 90.82384490966797 64.82049560546875 88.50419616699219 C 70.11915588378906 86.26304626464844 74.87847900390625 83.05401611328125 78.96624755859375 78.96624755859375 C 83.05401611328125 74.87847900390625 86.26304626464844 70.11915588378906 88.50419616699219 64.82049560546875 C 90.82384490966797 59.33623123168945 92 53.50878524780273 92 47.5 C 92 41.49121475219727 90.82384490966797 35.66376876831055 88.50419616699219 30.17950439453125 C 86.26304626464844 24.88084411621094 83.05401611328125 20.12152099609375 78.96624755859375 16.03375244140625 C 74.87847900390625 11.94598388671875 70.11915588378906 8.736953735351562 64.82049560546875 6.495796203613281 C 59.33623123168945 4.176155090332031 53.50878524780273 3 47.5 3 M 47.5 0 C 73.7335205078125 0 95 21.2664794921875 95 47.5 C 95 73.7335205078125 73.7335205078125 95 47.5 95 C 21.2664794921875 95 0 73.7335205078125 0 47.5 C 0 21.2664794921875 21.2664794921875 0 47.5 0 Z" stroke="none" fill="#ba9c5a"/>
                    </g>
                  </g>
                </g>
              </g>
            </g>
          </g>
        </g>
      </g>
      <g id="libro_5_" data-name="libro (5)" transform="translate(337.632 3127.945)">
        <g id="Group_1220223" data-name="Group 1220223" transform="translate(1.21 54.405)">
          <g id="Group_1220221" data-name="Group 1220221" transform="translate(0 46.862)">
            <path id="Path_1090330" data-name="Path 1090330" d="M47.591,351.164v6.958a2.234,2.234,0,0,1-2.233,2.233H9.733A2.234,2.234,0,0,1,7.5,358.122v-6.958Z" transform="translate(-7.5 -351.164)" fill="#d88a55"/>
            <path id="Path_1090331" data-name="Path 1090331" d="M211.382,351.164v6.958a2.234,2.234,0,0,1-2.233,2.233h5.326a2.234,2.234,0,0,0,2.233-2.233v-6.958Z" transform="translate(-176.616 -351.164)" fill="#c57a44"/>
            <path id="Path_1090332" data-name="Path 1090332" d="M296.091,351.164v6.958a2.234,2.234,0,0,1-2.233,2.233H258.233A2.234,2.234,0,0,1,256,358.122v-6.958Z" transform="translate(-215.909 -351.164)" fill="#d88a55"/>
            <path id="Path_1090333" data-name="Path 1090333" d="M459.882,351.164v6.958a2.234,2.234,0,0,1-2.233,2.233h5.326a2.234,2.234,0,0,0,2.233-2.233v-6.958Z" transform="translate(-385.025 -351.164)" fill="#c57a44"/>
          </g>
          <path id="Path_1090334" data-name="Path 1090334" d="M45.358,110.885H9.733A2.233,2.233,0,0,1,7.5,108.653V62.928A2.233,2.233,0,0,1,9.733,60.7H38.555a9.037,9.037,0,0,1,9.037,9.037v38.921a2.233,2.233,0,0,1-2.233,2.233Z" transform="translate(-7.5 -60.695)" fill="#f3f0f3"/>
          <path id="Path_1090335" data-name="Path 1090335" d="M172.3,60.695h-5.326a9.037,9.037,0,0,1,9.037,9.037v38.921a2.233,2.233,0,0,1-2.233,2.233h5.326a2.233,2.233,0,0,0,2.233-2.233V69.732a9.036,9.036,0,0,0-9.037-9.037Z" transform="translate(-141.248 -60.695)" fill="#e2dee2"/>
          <path id="Path_1090336" data-name="Path 1090336" d="M293.858,110.885H258.233A2.233,2.233,0,0,1,256,108.653V69.732a9.037,9.037,0,0,1,9.037-9.037h28.822a2.233,2.233,0,0,1,2.233,2.233v45.725a2.233,2.233,0,0,1-2.233,2.233Z" transform="translate(-215.909 -60.695)" fill="#f3f0f3"/>
          <path id="Path_1090337" data-name="Path 1090337" d="M462.975,60.695h-5.326a2.233,2.233,0,0,1,2.233,2.233v45.725a2.233,2.233,0,0,1-2.233,2.233h5.326a2.233,2.233,0,0,0,2.233-2.233V62.928A2.233,2.233,0,0,0,462.975,60.695Z" transform="translate(-385.025 -60.695)" fill="#e2dee2"/>
          <path id="Path_1090338" data-name="Path 1090338" d="M41.507,291.678h27.43a1.007,1.007,0,0,0,1.007-1.007v-2.56a1.007,1.007,0,0,0-1.007-1.007H41.507a1.007,1.007,0,0,0-1.007,1.007v2.56A1.007,1.007,0,0,0,41.507,291.678Z" transform="translate(-35.176 -250.578)" fill="#ffd15b"/>
          <g id="Group_1220222" data-name="Group 1220222" transform="translate(57.198 7.427)">
            <path id="Path_1090339" data-name="Path 1090339" d="M363.537,116.706,362.12,112.9a1.39,1.39,0,0,1,1.071-1.855l4.007-.677,2.59-3.132a1.39,1.39,0,0,1,2.142,0l2.59,3.132,4.007.677A1.39,1.39,0,0,1,379.6,112.9l-1.417,3.809,1.417,3.809a1.39,1.39,0,0,1-1.071,1.855l-4.007.677-2.59,3.132a1.39,1.39,0,0,1-2.142,0l-2.59-3.132-4.007-.677a1.39,1.39,0,0,1-1.071-1.855Z" transform="translate(-362.032 -106.729)" fill="#ffd15b"/>
            <circle id="Ellipse_14284" data-name="Ellipse 14284" cx="3.159" cy="3.159" r="3.159" transform="translate(5.669 6.818)" fill="#60b7ff"/>
          </g>
          <path id="Path_1090340" data-name="Path 1090340" d="M101.163,225.435H89.679a1.245,1.245,0,0,1-1.082-1.86l.586-1.03a4.159,4.159,0,0,1,3.616-2.1h5.246a4.159,4.159,0,0,1,3.616,2.1l.586,1.03A1.245,1.245,0,0,1,101.163,225.435Z" transform="translate(-75.375 -194.67)" fill="#d88a55"/>
          <path id="Path_1090341" data-name="Path 1090341" d="M188.632,384.375l-1.364-.96-1.364.96a1.4,1.4,0,0,1-2.21-1.147V371.794h7.148v11.433A1.4,1.4,0,0,1,188.632,384.375Z" transform="translate(-155.268 -321.604)" fill="#4f66d0"/>
          <path id="Path_1090342" data-name="Path 1090342" d="M203.011,371.794v11.943l.458-.322,1.364.96a1.4,1.4,0,0,0,2.21-1.147V371.794h-4.032Z" transform="translate(-171.469 -321.604)" fill="#314dc9"/>
        </g>
        <g id="Group_1220224" data-name="Group 1220224" transform="translate(0 53.195)">
          <path id="Path_1090343" data-name="Path 1090343" d="M64.863,284.382v-2.56a2.219,2.219,0,0,0-2.217-2.217H35.217A2.219,2.219,0,0,0,33,281.823v2.56a2.219,2.219,0,0,0,2.217,2.216h27.43A2.219,2.219,0,0,0,64.863,284.382Zm-2.42-.2H35.42v-2.153H62.443Z" transform="translate(-27.676 -243.078)"/>
          <path id="Path_1090344" data-name="Path 1090344" d="M77.335,336.295a1.21,1.21,0,0,0,0,2.42H92.863a1.21,1.21,0,0,0,0-2.42Z" transform="translate(-63.844 -290.622)"/>
          <path id="Path_1090345" data-name="Path 1090345" d="M282.71,111.959h7.057a1.21,1.21,0,0,0,0-2.42H282.71a1.21,1.21,0,0,0,0,2.42Z" transform="translate(-236.085 -100.449)"/>
          <path id="Path_1090346" data-name="Path 1090346" d="M282.71,140.3h7.057a1.21,1.21,0,0,0,0-2.42H282.71a1.21,1.21,0,0,0,0,2.42Z" transform="translate(-236.085 -124.221)"/>
          <path id="Path_1090347" data-name="Path 1090347" d="M282.71,168.649h7.057a1.21,1.21,0,0,0,0-2.42H282.71a1.21,1.21,0,0,0,0,2.42Z" transform="translate(-236.085 -147.993)"/>
          <path id="Path_1090348" data-name="Path 1090348" d="M282.71,196.992h7.057a1.21,1.21,0,0,0,0-2.42H282.71a1.21,1.21,0,0,0,0,2.42Z" transform="translate(-236.085 -171.763)"/>
          <path id="Path_1090349" data-name="Path 1090349" d="M282.71,225.337h7.057a1.21,1.21,0,0,0,0-2.42H282.71a1.21,1.21,0,0,0,0,2.42Z" transform="translate(-236.085 -195.535)"/>
          <path id="Path_1090350" data-name="Path 1090350" d="M282.71,253.682h28.213a1.21,1.21,0,1,0,0-2.42H282.71a1.21,1.21,0,0,0,0,2.42Z" transform="translate(-236.085 -219.307)"/>
          <path id="Path_1090351" data-name="Path 1090351" d="M282.71,282.026h28.213a1.21,1.21,0,1,0,0-2.42H282.71a1.21,1.21,0,0,0,0,2.42Z" transform="translate(-236.085 -243.078)"/>
          <path id="Path_1090352" data-name="Path 1090352" d="M282.71,310.37h18.666a1.21,1.21,0,0,0,0-2.42H282.71a1.21,1.21,0,0,0,0,2.42Z" transform="translate(-236.085 -266.85)"/>
          <path id="Path_1090353" data-name="Path 1090353" d="M437.425,307.95h-3.878a1.21,1.21,0,1,0,0,2.42h3.878a1.21,1.21,0,0,0,0-2.42Z" transform="translate(-362.587 -266.85)"/>
          <path id="Path_1090354" data-name="Path 1090354" d="M282.71,338.715h28.213a1.21,1.21,0,1,0,0-2.42H282.71a1.21,1.21,0,0,0,0,2.42Z" transform="translate(-236.085 -290.622)"/>
          <path id="Path_1090355" data-name="Path 1090355" d="M354.88,116.009a2.592,2.592,0,0,0,1.818,1.264l3.564.6,2.3,2.785a2.592,2.592,0,0,0,2,.943h0a2.592,2.592,0,0,0,2-.943l2.3-2.785,3.563-.6a2.6,2.6,0,0,0,2-3.47l-1.26-3.387,1.26-3.387a2.6,2.6,0,0,0-2-3.47l-3.564-.6-2.3-2.785a2.6,2.6,0,0,0-4.007,0l-2.3,2.785-3.563.6a2.6,2.6,0,0,0-2,3.47l1.26,3.387-1.26,3.387A2.593,2.593,0,0,0,354.88,116.009Zm3.5-6.016-1.417-3.809a.18.18,0,0,1,.139-.24l4.007-.677a1.211,1.211,0,0,0,.731-.422l2.59-3.132a.18.18,0,0,1,.277,0l2.59,3.132a1.21,1.21,0,0,0,.731.422l4.007.677a.18.18,0,0,1,.139.24l-1.417,3.809a1.211,1.211,0,0,0,0,.844l1.417,3.809a.18.18,0,0,1-.139.24l-4.007.677a1.211,1.211,0,0,0-.731.422l-2.59,3.132a.18.18,0,0,1-.277,0l-2.59-3.131a1.211,1.211,0,0,0-.731-.422l-4.008-.677a.18.18,0,0,1-.139-.24l1.417-3.809A1.21,1.21,0,0,0,358.38,109.994Z" transform="translate(-297.333 -91.801)"/>
          <path id="Path_1090356" data-name="Path 1090356" d="M394.039,150.23a4.369,4.369,0,1,0-4.369-4.369A4.374,4.374,0,0,0,394.039,150.23Zm0-6.318a1.949,1.949,0,1,1-1.949,1.949A1.951,1.951,0,0,1,394.039,143.912Z" transform="translate(-326.803 -127.247)"/>
          <path id="Path_1090357" data-name="Path 1090357" d="M79.16,53.195H50.338A10.255,10.255,0,0,0,41.3,58.617a10.255,10.255,0,0,0-9.037-5.422H13.194a1.21,1.21,0,1,0,0,2.42H32.265a7.835,7.835,0,0,1,7.827,7.827v38.921a1.024,1.024,0,0,1-1.023,1.023H3.443a1.024,1.024,0,0,1-1.023-1.023V56.638a1.024,1.024,0,0,1,1.023-1.023h4.1a1.21,1.21,0,1,0,0-2.42h-4.1A3.447,3.447,0,0,0,0,56.638v51.588a3.447,3.447,0,0,0,3.443,3.443H28.426v4.361a2.6,2.6,0,0,0,1.409,2.319,3.088,3.088,0,0,0,3.375-.652l.667.469h0a2.672,2.672,0,0,0,2.707.182,2.6,2.6,0,0,0,1.409-2.319v-4.361h1.074a3.425,3.425,0,0,0,2.233-.827,3.425,3.425,0,0,0,2.233.827H79.16a3.447,3.447,0,0,0,3.443-3.443V56.638a3.447,3.447,0,0,0-3.443-3.443Zm-28.822,2.42H79.16a1.024,1.024,0,0,1,1.023,1.023v45.725a1.024,1.024,0,0,1-1.023,1.023H43.534a1.024,1.024,0,0,1-1.023-1.023V63.442A7.835,7.835,0,0,1,50.338,55.615ZM3.443,109.248a1.024,1.024,0,0,1-1.023-1.023V105.65a3.43,3.43,0,0,0,1.023.155H28.426v3.443Zm32.131,6.78a.193.193,0,0,1-.3.158l-1.363-.959a1.21,1.21,0,0,0-1.393,0l-1.363.959a.193.193,0,0,1-.3-.158V105.805h4.728Zm3.494-6.781H37.994v-3.443h1.074a3.43,3.43,0,0,0,1.023-.155v2.575A1.024,1.024,0,0,1,39.068,109.248Zm40.091,0H43.534a1.024,1.024,0,0,1-1.023-1.023V105.65a3.43,3.43,0,0,0,1.023.155H79.16a3.43,3.43,0,0,0,1.023-.155v2.575A1.024,1.024,0,0,1,79.16,109.248Z" transform="translate(0 -53.195)"/>
          <path id="Path_1090358" data-name="Path 1090358" d="M56.353,96.42a1.21,1.21,0,0,0-1.21,1.21v1.137c-1.815-.344-5.346-.214-7.677,1.9-1.806,1.453-2.967,2.3-3.866,1.853a1.21,1.21,0,1,0-1.082,2.164,3.492,3.492,0,0,0,1.584.384,3.715,3.715,0,0,0,.674-.064v3.887a1.21,1.21,0,1,0,2.42,0v-4.984c.553-.371,1.415-1.05,2.131-1.631,1.909-1.527,4.5-1.3,5.816-1.053v13.994H53.73a5.38,5.38,0,0,0-4.668,2.715l-.586,1.03a2.455,2.455,0,0,0,2.134,3.668H62.1a2.455,2.455,0,0,0,2.134-3.668l-.586-1.03a5.38,5.38,0,0,0-4.668-2.715H57.563V101.224c1.314-.313,4.368-.372,6.16,1.329.574.461,1.17.94,1.787,1.356v4.984a1.21,1.21,0,0,0,2.42,0v-3.887a3.716,3.716,0,0,0,.674.064,3.493,3.493,0,0,0,1.584-.384,1.21,1.21,0,1,0-1.082-2.164c-.9.449-2.06-.4-3.866-1.853-2.213-2.071-5.849-2.258-7.677-1.9V97.63A1.21,1.21,0,0,0,56.353,96.42Zm5.187,22.71.585,1.03a.026.026,0,0,1,0,.035c-.01.017-.016.017-.03.017H50.611c-.014,0-.02,0-.03-.017a.026.026,0,0,1,0-.035l.586-1.03a2.955,2.955,0,0,1,2.564-1.491h5.246A2.955,2.955,0,0,1,61.54,119.13Z" transform="translate(-35.098 -89.446)"/>
        </g>
      </g>
    </g>
  </g>
</svg>
