<svg xmlns="http://www.w3.org/2000/svg" xmlns:xlink="http://www.w3.org/1999/xlink" width="113" height="113" viewBox="0 0 113 113">
  <defs>
    <filter id="Path_982547" x="0" y="0" width="113" height="113" filterUnits="userSpaceOnUse">
      <feOffset dy="3" input="SourceAlpha"/>
      <feGaussianBlur stdDeviation="3" result="blur"/>
      <feFlood flood-opacity="0.161"/>
      <feComposite operator="in" in2="blur"/>
      <feComposite in="SourceGraphic"/>
    </filter>
  </defs>
  <g id="Group_1220459" data-name="Group 1220459" transform="translate(-1163 -3158.09)">
    <g id="Group_1220257" data-name="Group 1220257">
      <g id="Group_1219409" data-name="Group 1219409" transform="translate(0.5 -736.059)">
        <g id="Group_1210961" data-name="Group 1210961" transform="translate(0 -689.385)">
          <g id="Group_1209937" data-name="Group 1209937" transform="translate(0 -2945.274)">
            <g id="Group_1208707" data-name="Group 1208707" transform="translate(-1.454 3213.429)">
              <g id="Group_1148635" data-name="Group 1148635" transform="translate(908.908 600.047)">
                <g id="Group_1148525" data-name="Group 1148525" transform="translate(264.046 3721.333)">
                  <g transform="matrix(1, 0, 0, 1, -9, -6)" filter="url(#Path_982547)">
                    <g id="Path_982547-2" data-name="Path 982547" transform="translate(9 6)" fill="#e6d567">
                      <path d="M 47.5 93.5 C 41.28937149047852 93.5 35.26533508300781 92.28397369384766 29.59518623352051 89.88570404052734 C 24.11771965026855 87.56893157958984 19.19813346862793 84.25196075439453 14.97309303283691 80.02691650390625 C 10.74804019927979 75.80186462402344 7.431066513061523 70.88229370117188 5.114293098449707 65.40481567382812 C 2.716026782989502 59.73468017578125 1.5 53.71062850952148 1.5 47.5 C 1.5 41.28937149047852 2.716026782989502 35.26533508300781 5.114293098449707 29.59518623352051 C 7.431066513061523 24.11771965026855 10.74804019927979 19.19813346862793 14.97309303283691 14.97309303283691 C 19.19813346862793 10.74804019927979 24.11771965026855 7.431066513061523 29.59518623352051 5.114293098449707 C 35.26533508300781 2.716026782989502 41.28937149047852 1.5 47.5 1.5 C 53.71062850952148 1.5 59.73468017578125 2.716026782989502 65.40481567382812 5.114293098449707 C 70.88229370117188 7.431066513061523 75.80186462402344 10.74804019927979 80.02691650390625 14.97309303283691 C 84.25196075439453 19.19813346862793 87.56893157958984 24.11771965026855 89.88570404052734 29.59518623352051 C 92.28397369384766 35.26533508300781 93.5 41.28937149047852 93.5 47.5 C 93.5 53.71062850952148 92.28397369384766 59.73468017578125 89.88570404052734 65.40481567382812 C 87.56893157958984 70.88229370117188 84.25196075439453 75.80186462402344 80.02691650390625 80.02691650390625 C 75.80186462402344 84.25196075439453 70.88229370117188 87.56893157958984 65.40481567382812 89.88570404052734 C 59.73468017578125 92.28397369384766 53.71062850952148 93.5 47.5 93.5 Z" stroke="none"/>
                      <path d="M 47.5 3 C 41.49121475219727 3 35.66376876831055 4.176155090332031 30.17950439453125 6.495796203613281 C 24.88084411621094 8.736953735351562 20.12152099609375 11.94598388671875 16.03375244140625 16.03375244140625 C 11.94598388671875 20.12152099609375 8.736953735351562 24.88084411621094 6.495796203613281 30.17950439453125 C 4.176155090332031 35.66376876831055 3 41.49121475219727 3 47.5 C 3 53.50878524780273 4.176155090332031 59.33623123168945 6.495796203613281 64.82049560546875 C 8.736953735351562 70.11915588378906 11.94598388671875 74.87847900390625 16.03375244140625 78.96624755859375 C 20.12152099609375 83.05401611328125 24.88084411621094 86.26304626464844 30.17950439453125 88.50419616699219 C 35.66376876831055 90.82384490966797 41.49121475219727 92 47.5 92 C 53.50878524780273 92 59.33623123168945 90.82384490966797 64.82049560546875 88.50419616699219 C 70.11915588378906 86.26304626464844 74.87847900390625 83.05401611328125 78.96624755859375 78.96624755859375 C 83.05401611328125 74.87847900390625 86.26304626464844 70.11915588378906 88.50419616699219 64.82049560546875 C 90.82384490966797 59.33623123168945 92 53.50878524780273 92 47.5 C 92 41.49121475219727 90.82384490966797 35.66376876831055 88.50419616699219 30.17950439453125 C 86.26304626464844 24.88084411621094 83.05401611328125 20.12152099609375 78.96624755859375 16.03375244140625 C 74.87847900390625 11.94598388671875 70.11915588378906 8.736953735351562 64.82049560546875 6.495796203613281 C 59.33623123168945 4.176155090332031 53.50878524780273 3 47.5 3 M 47.5 0 C 73.7335205078125 0 95 21.2664794921875 95 47.5 C 95 73.7335205078125 73.7335205078125 95 47.5 95 C 21.2664794921875 95 0 73.7335205078125 0 47.5 C 0 21.2664794921875 21.2664794921875 0 47.5 0 Z" stroke="none" fill="#ba9c5a"/>
                    </g>
                  </g>
                </g>
              </g>
            </g>
          </g>
        </g>
      </g>
      <g id="ley_11_" data-name="ley (11)" transform="translate(1173.988 3171.318)">
        <g id="Group_1220248" data-name="Group 1220248" transform="translate(17.24 60.417)">
          <g id="Group_1220243" data-name="Group 1220243" transform="translate(0 4.227)">
            <path id="Path_1090404" data-name="Path 1090404" d="M160.267,359.446a13.455,13.455,0,0,0,3.23,8.861H114.808a1.54,1.54,0,0,1-1.257-.643,15.685,15.685,0,0,1,0-16.435,1.541,1.541,0,0,1,1.257-.643H163.5A13.456,13.456,0,0,0,160.267,359.446Z" transform="translate(-111.226 -350.585)" fill="#fb3a82"/>
            <path id="Path_1090405" data-name="Path 1090405" d="M126.084,350.587l-13.73,14.872a15.559,15.559,0,0,1-1.124-6.011,14.062,14.062,0,0,1,2.325-8.218,1.539,1.539,0,0,1,1.257-.643Z" transform="translate(-111.229 -350.587)" fill="#fb1466"/>
            <path id="Path_1090406" data-name="Path 1090406" d="M194.832,359.446a13.455,13.455,0,0,0,3.23,8.861h-49.43s-2.841-2.877-2.841-8.861,2.841-8.861,2.841-8.861h49.43A13.456,13.456,0,0,0,194.832,359.446Z" transform="translate(-140.433 -350.585)" fill="#e0d3ce"/>
            <g id="Group_1220242" data-name="Group 1220242" transform="translate(5.357 0)">
              <path id="Path_1090407" data-name="Path 1090407" d="M155.287,350.587l-9.446,10.232c-.033-.437-.051-.894-.051-1.37,0-5.985,2.841-8.861,2.841-8.861Z" transform="translate(-145.79 -350.587)" fill="#cdbfbb"/>
              <path id="Path_1090408" data-name="Path 1090408" d="M430.256,359.452a13.453,13.453,0,0,0,3.23,8.86h-5.857a13.767,13.767,0,0,1,0-17.721h5.857A13.449,13.449,0,0,0,430.256,359.452Z" transform="translate(-381.215 -350.591)" fill="#cdbfbb"/>
            </g>
          </g>
          <g id="Group_1220247" data-name="Group 1220247" transform="translate(6.67)">
            <g id="Group_1220245" data-name="Group 1220245" transform="translate(0)">
              <path id="Path_1090409" data-name="Path 1090409" d="M208.546,325.89a2.572,2.572,0,0,1-2.571,2.571H156.831a2.572,2.572,0,0,1,0-5.144h49.143A2.572,2.572,0,0,1,208.546,325.89Z" transform="translate(-154.26 -323.317)" fill="#fb3a82"/>
              <g id="Group_1220244" data-name="Group 1220244">
                <path id="Path_1090410" data-name="Path 1090410" d="M166.345,323.317l-4.748,5.144h-4.766a2.572,2.572,0,0,1,0-5.144Z" transform="translate(-154.26 -323.317)" fill="#fb1466"/>
                <path id="Path_1090411" data-name="Path 1090411" d="M463.275,325.892a2.575,2.575,0,0,1-2.573,2.573h-4.989a2.572,2.572,0,0,0,0-5.145H460.7A2.573,2.573,0,0,1,463.275,325.892Z" transform="translate(-408.988 -323.32)" fill="#fb1466"/>
              </g>
            </g>
            <g id="Group_1220246" data-name="Group 1220246" transform="translate(0 21.03)">
              <path id="Path_1090412" data-name="Path 1090412" d="M205.972,464.14H156.829a2.572,2.572,0,1,1,0-5.144h49.143a2.572,2.572,0,1,1,0,5.144Z" transform="translate(-154.257 -458.996)" fill="#fb3a82"/>
              <path id="Path_1090413" data-name="Path 1090413" d="M463.275,461.571a2.571,2.571,0,0,1-2.573,2.571h-4.989a2.571,2.571,0,0,0,0-5.143H460.7A2.573,2.573,0,0,1,463.275,461.571Z" transform="translate(-408.987 -458.999)" fill="#fb1466"/>
            </g>
          </g>
        </g>
        <g id="Group_1220256" data-name="Group 1220256" transform="translate(-0.001 12.193)">
          <g id="Group_1220251" data-name="Group 1220251" transform="translate(1.163 30.719)">
            <g id="Group_1220249" data-name="Group 1220249" transform="translate(0 9.839)">
              <path id="Path_1090414" data-name="Path 1090414" d="M41.359,278.009l-4.152-4.152L8.94,299.951a4.476,4.476,0,1,0,6.325,6.325Z" transform="translate(-7.5 -273.857)" fill="#873f30"/>
              <path id="Path_1090415" data-name="Path 1090415" d="M16.338,313.368a4.478,4.478,0,0,1-6.329,0,4.432,4.432,0,0,1-1.092-1.784A4.469,4.469,0,0,0,13.46,310.5c.043-.043.086-.089.127-.133L39.682,282.1l2.875,2.875L16.463,313.238C16.421,313.282,16.38,313.327,16.338,313.368Z" transform="translate(-8.698 -280.819)" fill="#6c3328"/>
            </g>
            <path id="Path_1090416" data-name="Path 1090416" d="M200.2,210.382l-9.561,11.406,3.906,3.906,11.405-9.561Z" transform="translate(-162.25 -210.382)" fill="#873f30"/>
            <path id="Path_1090417" data-name="Path 1090417" d="M208.585,210.382l-3.09,3.685.927.927a1.747,1.747,0,0,1,0,2.471l-5.86,5.86,2.367,2.367,11.405-9.561Z" transform="translate(-170.637 -210.382)" fill="#6c3328"/>
            <g id="Group_1220250" data-name="Group 1220250" transform="translate(25.222 9.07)">
              <path id="Path_1090418" data-name="Path 1090418" d="M174.836,277.482l-3.792-3.792a2.807,2.807,0,0,1,3.97-3.97l3.792,3.792a2.807,2.807,0,1,1-3.97,3.97Z" transform="translate(-170.222 -268.899)" fill="#ba5d4f"/>
              <path id="Path_1090419" data-name="Path 1090419" d="M188.284,286.966a2.807,2.807,0,0,1-3.969,0l-2.874-2.874a2.807,2.807,0,0,0,3.97-3.97L188.284,283A2.806,2.806,0,0,1,188.284,286.966Z" transform="translate(-179.702 -278.383)" fill="#a34f41"/>
            </g>
          </g>
          <g id="Group_1220252" data-name="Group 1220252" transform="translate(30.847 4.651)">
            <path id="Path_1090420" data-name="Path 1090420" d="M0,0H11.908V18.695H0Z" transform="translate(13.217 0) rotate(45)" fill="#ba5d4f"/>
            <path id="Path_1090421" data-name="Path 1090421" d="M0,0H11.908V18.695H0Z" transform="translate(26.86 40.089) rotate(-135)" fill="#a34f41"/>
          </g>
          <g id="Group_1220255" data-name="Group 1220255" transform="translate(0 0)">
            <path id="Path_1090422" data-name="Path 1090422" d="M177.6,39.3l-.292-.292a2.84,2.84,0,0,1,0-4.016l14.467-14.467a2.84,2.84,0,0,1,4.016,0l.292.292a2.84,2.84,0,0,1,0,4.016L181.62,39.3A2.84,2.84,0,0,1,177.6,39.3Z" transform="translate(-149.125 -18.531)" fill="#873f30"/>
            <path id="Path_1090423" data-name="Path 1090423" d="M349.075,210.772l.292.292a2.84,2.84,0,0,0,4.016,0L367.851,196.6a2.84,2.84,0,0,0,0-4.016l-.292-.292a2.84,2.84,0,0,0-4.016,0l-14.467,14.467A2.84,2.84,0,0,0,349.075,210.772Z" transform="translate(-294.266 -163.671)" fill="#6c3328"/>
            <g id="Group_1220254" data-name="Group 1220254">
              <path id="Path_1090424" data-name="Path 1090424" d="M0,0H13.372V28.235H0Z" transform="translate(56.137 9.977) rotate(45)" fill="#fcc16d"/>
              <path id="Path_1090425" data-name="Path 1090425" d="M0,0H28.235V6.768H0Z" transform="translate(40.838 34.62) rotate(-45)" fill="#fca62f"/>
              <path id="Path_1090426" data-name="Path 1090426" d="M245.169,67.971l-2.316-.947a2.13,2.13,0,0,0-2.312.465L224.276,83.754a2.13,2.13,0,0,0-.465,2.312l.947,2.316a1.42,1.42,0,0,0,2.318.467l18.56-18.56A1.42,1.42,0,0,0,245.169,67.971Z" transform="translate(-188.986 -58.392)" fill="#873f30"/>
              <path id="Path_1090427" data-name="Path 1090427" d="M309.715,132.518l.947,2.316a2.13,2.13,0,0,1-.465,2.312l-16.265,16.265a2.13,2.13,0,0,1-2.312.465l-2.316-.947a1.42,1.42,0,0,1-.467-2.318l18.56-18.56A1.42,1.42,0,0,1,309.715,132.518Z" transform="translate(-243.715 -113.122)" fill="#6c3328"/>
              <g id="Group_1220253" data-name="Group 1220253">
                <path id="Path_1090428" data-name="Path 1090428" d="M75.624,80.285h-.865a12.023,12.023,0,0,1-1-1.909,1.163,1.163,0,1,0-2.148.889c.144.347.3.686.474,1.019h-45.6a3.719,3.719,0,0,0-1.013.141A13.514,13.514,0,0,1,23.76,73.5c0-.507.022-1.007.066-1.5H46.1a1.163,1.163,0,1,0,0-2.325H24.8l2.732-2.959H72.077a14.511,14.511,0,0,0-1.119,2.959H55.678a1.163,1.163,0,1,0,0,2.325H70.551c-.046.472-.072.949-.074,1.431a1.163,1.163,0,0,0,1.158,1.167h0A1.163,1.163,0,0,0,72.8,73.449a12.439,12.439,0,0,1,1.955-6.724h.867a3.735,3.735,0,0,0,0-7.469H61.092L74.406,45.941a4,4,0,0,0,0-5.66l-.293-.293a4,4,0,0,0-5.454-.19L66.6,37.74l.7-.7a3.285,3.285,0,0,0,.72-3.574l-.947-2.316a2.577,2.577,0,0,0-1.87-1.552l-1.617-1.617a1.162,1.162,0,1,0-1.644,1.644l.8.8L44.419,48.741l-5.388-5.388L57.352,25.032l.713.713A1.162,1.162,0,1,0,59.709,24.1l-1.535-1.535a2.577,2.577,0,0,0-1.552-1.87h0l-2.316-.947a3.285,3.285,0,0,0-3.574.72l-.7.7-2.058-2.058a4,4,0,0,0-.19-5.454l-.293-.293a4,4,0,0,0-5.66,0L27.364,27.832a4,4,0,0,0,0,5.66l.292.292a4,4,0,0,0,5.454.19l2.058,2.058-.7.7a3.285,3.285,0,0,0-.72,3.574l.947,2.316a2.576,2.576,0,0,0,1.844,1.546L30.71,51.123a3.971,3.971,0,0,0-5.246,5.035L22.82,58.6A1.163,1.163,0,0,0,24.4,60.307l2.443-2.255,2.88,2.88L8.073,84.381A3.313,3.313,0,1,1,3.39,79.7L20.37,64.024a1.162,1.162,0,0,0-1.577-1.708L1.813,77.991a5.638,5.638,0,0,0,3.821,9.781H5.75a5.59,5.59,0,0,0,4.03-1.813l6.967-7.547A13.4,13.4,0,0,0,18.617,82.4a2.707,2.707,0,0,0,2.2,1.132H22.78a3.729,3.729,0,0,0,3.7,4.226H75.624a3.735,3.735,0,1,0,0-7.469ZM77.034,62.99a1.411,1.411,0,0,1-1.41,1.41H29.683l1.932-2.093a3.973,3.973,0,0,0,3.965-.726H75.624a1.411,1.411,0,0,1,1.409,1.41ZM41.963,49.574l-6.731,5.643-2.676-2.676L38.2,45.809Zm-5.071,9.682a3.992,3.992,0,0,0-.242-2.193L43.6,51.233a2.577,2.577,0,0,0,1.546,1.844l2.316.947a3.286,3.286,0,0,0,3.574-.72l.7-.7L53.8,54.662a4.01,4.01,0,0,0-.463,4.594H36.892ZM71.284,41.141a1.666,1.666,0,0,1,1.186.491l.293.293a1.677,1.677,0,0,1,0,2.372L58.3,58.764a1.677,1.677,0,0,1-2.372,0l-.292-.292a1.679,1.679,0,0,1,0-2.372L70.1,41.633A1.665,1.665,0,0,1,71.284,41.141Zm-4.276.293L55.433,53.01l-2.05-2.05L64.958,39.384ZM45.943,50.5,64.5,31.945a.245.245,0,0,1,.178-.076.284.284,0,0,1,.055.006.247.247,0,0,1,.187.155l.947,2.316a.965.965,0,0,1-.211,1.05L49.394,51.661a.965.965,0,0,1-1.05.211l-2.316-.947a.257.257,0,0,1-.085-.42ZM30.486,32.632a1.665,1.665,0,0,1-1.186-.491l-.292-.292a1.677,1.677,0,0,1,0-2.372L43.475,15.01a1.677,1.677,0,0,1,2.372,0l.293.293a1.677,1.677,0,0,1,0,2.372L31.672,32.141a1.668,1.668,0,0,1-1.186.491Zm4.276-.293L46.337,20.764l2.05,2.05L36.812,34.389Zm1.349,6.039L52.376,22.113a.965.965,0,0,1,1.05-.211l2.316.947a.257.257,0,0,1,.084.42l-18.56,18.56a.257.257,0,0,1-.42-.085L35.9,39.428a.965.965,0,0,1,.211-1.05ZM27.546,54.789a1.644,1.644,0,0,1,2.807-1.163l3.791,3.791a1.644,1.644,0,0,1-2.325,2.325l-3.791-3.791a1.634,1.634,0,0,1-.482-1.163ZM20.512,81.049a11.728,11.728,0,0,1-1.862-4.7l2.787-3.018c0,.058,0,.115,0,.173a16.129,16.129,0,0,0,1.8,7.7H20.822A.378.378,0,0,1,20.512,81.049Zm55.112,4.38H26.481a1.41,1.41,0,1,1,0-2.819H75.624a1.41,1.41,0,0,1,0,2.819Z" transform="translate(0.001 -12.193)"/>
                <path id="Path_1090429" data-name="Path 1090429" d="M203.489,417.166a1.163,1.163,0,0,0,0,2.325h27.083a1.163,1.163,0,0,0,0-2.325Z" transform="translate(-170.966 -354.395)"/>
              </g>
            </g>
          </g>
        </g>
      </g>
    </g>
  </g>
</svg>
