<svg xmlns="http://www.w3.org/2000/svg" xmlns:xlink="http://www.w3.org/1999/xlink" width="93.934" height="93.934" viewBox="0 0 93.934 93.934">
  <defs>
    <filter id="Path_978624" x="0" y="0" width="93.934" height="93.934" filterUnits="userSpaceOnUse">
      <feOffset dy="3" input="SourceAlpha"/>
      <feGaussianBlur stdDeviation="3" result="blur"/>
      <feFlood flood-opacity="0.161"/>
      <feComposite operator="in" in2="blur"/>
      <feComposite in="SourceGraphic"/>
    </filter>
  </defs>
  <g id="Group_1220453" data-name="Group 1220453" transform="translate(-604 -883.533)">
    <g id="Group_1220219" data-name="Group 1220219">
      <g id="Group_1219401" data-name="Group 1219401" transform="translate(-6 -4362.055)">
        <g id="Group_1208072" data-name="Group 1208072" transform="translate(413 3815.588)">
          <g id="Group_1144123" data-name="Group 1144123" transform="translate(206 1436)">
            <g transform="matrix(1, 0, 0, 1, -9, -6)" filter="url(#Path_978624)">
              <g id="Path_978624-2" data-name="Path 978624" transform="translate(9 6)" fill="#efeadd">
                <path d="M 37.966796875 74.43359375 C 33.04315185546875 74.43359375 28.26757431030273 73.46962738037109 23.77274131774902 71.56847381591797 C 19.43047523498535 69.73184967041016 15.53040790557861 67.10224914550781 12.18087482452393 63.75271987915039 C 8.831341743469238 60.4031867980957 6.201741218566895 56.50312042236328 4.365118980407715 52.16086196899414 C 2.463963508605957 47.66601943969727 1.499996900558472 42.89044189453125 1.499996900558472 37.966796875 C 1.499996900558472 33.04315185546875 2.463963508605957 28.26757431030273 4.365118980407715 23.77274131774902 C 6.201741218566895 19.43047523498535 8.831341743469238 15.53040790557861 12.18087482452393 12.18087482452393 C 15.53040790557861 8.831341743469238 19.43047523498535 6.201741218566895 23.77274131774902 4.365118980407715 C 28.26757431030273 2.463963508605957 33.04315185546875 1.499996900558472 37.966796875 1.499996900558472 C 42.89044189453125 1.499996900558472 47.66601943969727 2.463963508605957 52.16086196899414 4.365118980407715 C 56.50312042236328 6.201741218566895 60.4031867980957 8.831341743469238 63.75271987915039 12.18087482452393 C 67.10224914550781 15.53040790557861 69.73184967041016 19.43047523498535 71.56847381591797 23.77274131774902 C 73.46962738037109 28.26757431030273 74.43359375 33.04315185546875 74.43359375 37.966796875 C 74.43359375 42.89044189453125 73.46962738037109 47.66601943969727 71.56847381591797 52.16086196899414 C 69.73184967041016 56.50313186645508 67.10224914550781 60.4031867980957 63.75271987915039 63.75271987915039 C 60.4031867980957 67.10224914550781 56.50313186645508 69.73184967041016 52.16086196899414 71.56847381591797 C 47.66601943969727 73.46962738037109 42.89044189453125 74.43359375 37.966796875 74.43359375 Z" stroke="none"/>
                <path d="M 37.966796875 3 C 33.2449836730957 3 28.66600799560547 3.924095153808594 24.35705947875977 5.746635437011719 C 20.19359588623047 7.507621765136719 16.45379638671875 10.02927398681641 13.24153518676758 13.24153518676758 C 10.02927398681641 16.45379638671875 7.507621765136719 20.19359588623047 5.746635437011719 24.35705947875977 C 3.924095153808594 28.66600799560547 3 33.2449836730957 3 37.966796875 C 3 42.6886100769043 3.924095153808594 47.26758575439453 5.746635437011719 51.57653427124023 C 7.507621765136719 55.73999786376953 10.02927398681641 59.47979736328125 13.24153518676758 62.69205856323242 C 16.45379638671875 65.90431976318359 20.19359588623047 68.42597198486328 24.35705947875977 70.18695831298828 C 28.66600799560547 72.00949859619141 33.2449836730957 72.93359375 37.966796875 72.93359375 C 42.6886100769043 72.93359375 47.26758575439453 72.00949859619141 51.57653427124023 70.18695831298828 C 55.73999786376953 68.42597198486328 59.47979736328125 65.90431976318359 62.69205856323242 62.69205856323242 C 65.90431976318359 59.47979736328125 68.42597198486328 55.73999786376953 70.18695831298828 51.57653427124023 C 72.00949859619141 47.26758575439453 72.93359375 42.6886100769043 72.93359375 37.966796875 C 72.93359375 33.2449836730957 72.00949859619141 28.66600799560547 70.18695831298828 24.35705947875977 C 68.42597198486328 20.19359588623047 65.90431976318359 16.45379638671875 62.69205856323242 13.24153518676758 C 59.47979736328125 10.02927398681641 55.73999786376953 7.507621765136719 51.57653427124023 5.746635437011719 C 47.26758575439453 3.924095153808594 42.6886100769043 3 37.966796875 3 M 37.966796875 0 C 58.93528366088867 0 75.93359375 16.99831008911133 75.93359375 37.966796875 C 75.93359375 58.93528366088867 58.93528366088867 75.93359375 37.966796875 75.93359375 C 16.99831008911133 75.93359375 0 58.93528366088867 0 37.966796875 C 0 16.99831008911133 16.99831008911133 0 37.966796875 0 Z" stroke="none" fill="#847625"/>
              </g>
            </g>
          </g>
        </g>
      </g>
      <g id="salud_3_" data-name="salud (3)" transform="translate(614.792 885.93)">
        <path id="Path_1090303" data-name="Path 1090303" d="M0,333.664H7.275v17.2H0Zm0,0" transform="translate(0 -289.55)" fill="#96d1f3"/>
        <path id="Path_1090304" data-name="Path 1090304" d="M0,433.715H7.275v3.968H0Zm0,0" transform="translate(0 -376.373)" fill="#73c1ef"/>
        <path id="Path_1090305" data-name="Path 1090305" d="M113.985,336.175a6.349,6.349,0,0,0-8.207-1.883l-12.452,6.792a3.176,3.176,0,0,0-3.113-3.8H80.6s-1.506-3.284-2.722-4.133c-6.393-5.849-18.479.485-18.479.485H55.027V345.69h6.947l24.451,7.734,27.6-17.2Zm0,0" transform="translate(-47.752 -286.954)" fill="#f7e0ba"/>
        <path id="Path_1090306" data-name="Path 1090306" d="M113.986,357.98a6.326,6.326,0,0,0-2.749-2.179l-14.315,8.92a7.136,7.136,0,0,0,.277-3.944l-3.872,2.112a3.175,3.175,0,0,1-3.113,2.552H79.472a2.751,2.751,0,0,0-2.751,2.751l-14.747-4.665H55.028V367.5h6.947l24.451,7.734,27.6-17.2Zm0,0" transform="translate(-47.752 -308.759)" fill="#f5cc89"/>
        <path id="Path_1090307" data-name="Path 1090307" d="M130.864,49.527l-20.071-20.15a12.824,12.824,0,1,1,18.171-18.1l1.9,1.908,1.9-1.908a12.824,12.824,0,1,1,18.171,18.1Zm0,0" transform="translate(-92.9 -6.511)" fill="#e46a4a"/>
        <path id="Path_1090308" data-name="Path 1090308" d="M235.629,94.835h-5.291V89.544H222.4v5.291H217.11v7.937H222.4v5.291h7.937v-5.291h5.291Zm0,0" transform="translate(-188.405 -77.705)" fill="#fff"/>
        <path id="Path_1090309" data-name="Path 1090309" d="M130.887,125.989l-23.8-23.9a12.785,12.785,0,0,0,3.731,9.368l20.072,20.149,20.071-20.149a12.784,12.784,0,0,0,3.731-9.368Zm0,0" transform="translate(-92.923 -88.596)" fill="#db380e"/>
        <path id="Path_1090310" data-name="Path 1090310" d="M222.69,335.479A7.339,7.339,0,0,0,213.2,333.3l-11.048,6.026a4.174,4.174,0,0,0-4.042-3.153h-8.991a12.545,12.545,0,0,0-2.721-3.913,9.828,9.828,0,0,0-2.694-1.726l-.788,1.82a7.846,7.846,0,0,1,2.186,1.409l.048.044.054.038a12.779,12.779,0,0,1,2.388,3.733l.265.578H198.11a2.183,2.183,0,1,1,0,4.365H184.618v1.984H198.11a4.173,4.173,0,0,0,3.961-2.877l12.079-6.588a5.353,5.353,0,0,1,6.268.832l-26.233,16.346-14.225-4.5-.6,1.892,15.1,4.775,28.883-18Zm0,0" transform="translate(-155.649 -286.834)"/>
        <path id="Path_1090311" data-name="Path 1090311" d="M25.986,323.484a14.4,14.4,0,0,0-3.062-.312h0a28.677,28.677,0,0,0-11.515,2.964H8.267v-2.569H0v1.984H6.283v15.212H0v1.984H8.267v-2.575h5.8l7.753,2.452.6-1.892-8.045-2.545H8.267V328.12h3.621l.216-.113c.055-.028,5.517-2.852,10.818-2.852h0a12.452,12.452,0,0,1,2.639.267Zm0,0" transform="translate(0 -280.444)"/>
        <path id="Path_1090312" data-name="Path 1090312" d="M207.309,60.575a11.755,11.755,0,0,1-3.449,8.35L184.721,88.138l-.23.231L170.257,74.08l-1.406,1.4,15.64,15.7,20.774-20.855a13.825,13.825,0,0,0,2.3-16.443l-1.736.962a11.846,11.846,0,0,1,1.477,5.731Zm0,0" transform="translate(-146.527 -46.759)"/>
        <path id="Path_1090313" data-name="Path 1090313" d="M147.668,186.794l1.406-1.4,1.4,1.406-1.406,1.4Zm0,0" transform="translate(-128.145 -160.883)"/>
        <path id="Path_1090314" data-name="Path 1090314" d="M432.85,31.258l1.566-1.219a13.991,13.991,0,0,0-1.163-1.314q-.136-.135-.273-.264L431.618,29.9q.119.112.235.228a12.024,12.024,0,0,1,1,1.126Zm0,0" transform="translate(-374.553 -24.698)"/>
        <path id="Path_1090315" data-name="Path 1090315" d="M104.513,24.5l1.405-1.4-.934-.938a11.832,11.832,0,0,1,16.766-16.7l1.434,1.439,1.169,1.174,2.6-2.614a11.838,11.838,0,0,1,15.075-1.409l1.124-1.635a13.821,13.821,0,0,0-17.6,1.644l-1.2,1.2-1.2-1.2a13.816,13.816,0,0,0-19.577,19.5Zm0,0" transform="translate(-86.389)"/>
        <path id="Path_1090316" data-name="Path 1090316" d="M214.9,82.039V87.33h-5.291v9.921H214.9v5.291h9.921V97.251h5.291V87.33h-5.291V82.039Zm13.228,7.275v5.953h-5.291v5.291h-5.953V95.267H211.59V89.314h5.291V84.023h5.953v5.291Zm0,0" transform="translate(-181.893 -71.192)"/>
        <g id="Group_1220218" data-name="Group 1220218" transform="translate(2.182 3.969)">
          <path id="Path_1090317" data-name="Path 1090317" d="M18.492,362.628H16.508v-1.984h1.984Zm0-3.968H16.508v-1.984h1.984Zm0,0" transform="translate(-16.508 -313.487)" fill="#fff"/>
          <path id="Path_1090318" data-name="Path 1090318" d="M112.995,356.848l-.741-1.84c.629-.254,1.279-.489,1.933-.7l.609,1.889C114.186,356.393,113.58,356.612,112.995,356.848Zm3.636-1.168-.462-1.929a14.948,14.948,0,0,1,6.167-.366l-.377,1.948a13.1,13.1,0,0,0-5.329.347Zm0,0" transform="translate(-99.595 -310.477)" fill="#fff"/>
          <path id="Path_1090319" data-name="Path 1090319" d="M378.1,39.848a7.886,7.886,0,0,0-4.456-7.076l.861-1.788a9.872,9.872,0,0,1,5.58,8.861Zm-6.114-7.654A7.95,7.95,0,0,0,370.238,32V30.016a9.933,9.933,0,0,1,2.187.243Zm0,0" transform="translate(-323.471 -30.016)" fill="#fff"/>
        </g>
      </g>
    </g>
  </g>
</svg>
