<svg xmlns="http://www.w3.org/2000/svg" xmlns:xlink="http://www.w3.org/1999/xlink" width="93.934" height="93.934" viewBox="0 0 93.934 93.934">
  <defs>
    <filter id="Path_978624" x="0" y="0" width="93.934" height="93.934" filterUnits="userSpaceOnUse">
      <feOffset dy="3" input="SourceAlpha"/>
      <feGaussianBlur stdDeviation="3" result="blur"/>
      <feFlood flood-opacity="0.161"/>
      <feComposite operator="in" in2="blur"/>
      <feComposite in="SourceGraphic"/>
    </filter>
  </defs>
  <g id="Group_1220438" data-name="Group 1220438" transform="translate(-189 -7577)">
    <g id="Group_1220201" data-name="Group 1220201">
      <g id="Group_1219396" data-name="Group 1219396" transform="translate(198 7583)">
        <g id="Group_1208062" data-name="Group 1208062" transform="translate(0 0)">
          <g id="Group_1144123" data-name="Group 1144123">
            <g transform="matrix(1, 0, 0, 1, -9, -6)" filter="url(#Path_978624)">
              <g id="Path_978624-2" data-name="Path 978624" transform="translate(9 6)" fill="#efeadd">
                <path d="M 37.966796875 74.43359375 C 33.04315185546875 74.43359375 28.26757431030273 73.46962738037109 23.77274131774902 71.56847381591797 C 19.43047523498535 69.73184967041016 15.53040790557861 67.10224914550781 12.18087482452393 63.75271987915039 C 8.831341743469238 60.4031867980957 6.201741218566895 56.50312042236328 4.365118980407715 52.16086196899414 C 2.463963508605957 47.66601943969727 1.499996900558472 42.89044189453125 1.499996900558472 37.966796875 C 1.499996900558472 33.04315185546875 2.463963508605957 28.26757431030273 4.365118980407715 23.77274131774902 C 6.201741218566895 19.43047523498535 8.831341743469238 15.53040790557861 12.18087482452393 12.18087482452393 C 15.53040790557861 8.831341743469238 19.43047523498535 6.201741218566895 23.77274131774902 4.365118980407715 C 28.26757431030273 2.463963508605957 33.04315185546875 1.499996900558472 37.966796875 1.499996900558472 C 42.89044189453125 1.499996900558472 47.66601943969727 2.463963508605957 52.16086196899414 4.365118980407715 C 56.50312042236328 6.201741218566895 60.4031867980957 8.831341743469238 63.75271987915039 12.18087482452393 C 67.10224914550781 15.53040790557861 69.73184967041016 19.43047523498535 71.56847381591797 23.77274131774902 C 73.46962738037109 28.26757431030273 74.43359375 33.04315185546875 74.43359375 37.966796875 C 74.43359375 42.89044189453125 73.46962738037109 47.66601943969727 71.56847381591797 52.16086196899414 C 69.73184967041016 56.50313186645508 67.10224914550781 60.4031867980957 63.75271987915039 63.75271987915039 C 60.4031867980957 67.10224914550781 56.50313186645508 69.73184967041016 52.16086196899414 71.56847381591797 C 47.66601943969727 73.46962738037109 42.89044189453125 74.43359375 37.966796875 74.43359375 Z" stroke="none"/>
                <path d="M 37.966796875 3 C 33.2449836730957 3 28.66600799560547 3.924095153808594 24.35705947875977 5.746635437011719 C 20.19359588623047 7.507621765136719 16.45379638671875 10.02927398681641 13.24153518676758 13.24153518676758 C 10.02927398681641 16.45379638671875 7.507621765136719 20.19359588623047 5.746635437011719 24.35705947875977 C 3.924095153808594 28.66600799560547 3 33.2449836730957 3 37.966796875 C 3 42.6886100769043 3.924095153808594 47.26758575439453 5.746635437011719 51.57653427124023 C 7.507621765136719 55.73999786376953 10.02927398681641 59.47979736328125 13.24153518676758 62.69205856323242 C 16.45379638671875 65.90431976318359 20.19359588623047 68.42597198486328 24.35705947875977 70.18695831298828 C 28.66600799560547 72.00949859619141 33.2449836730957 72.93359375 37.966796875 72.93359375 C 42.6886100769043 72.93359375 47.26758575439453 72.00949859619141 51.57653427124023 70.18695831298828 C 55.73999786376953 68.42597198486328 59.47979736328125 65.90431976318359 62.69205856323242 62.69205856323242 C 65.90431976318359 59.47979736328125 68.42597198486328 55.73999786376953 70.18695831298828 51.57653427124023 C 72.00949859619141 47.26758575439453 72.93359375 42.6886100769043 72.93359375 37.966796875 C 72.93359375 33.2449836730957 72.00949859619141 28.66600799560547 70.18695831298828 24.35705947875977 C 68.42597198486328 20.19359588623047 65.90431976318359 16.45379638671875 62.69205856323242 13.24153518676758 C 59.47979736328125 10.02927398681641 55.73999786376953 7.507621765136719 51.57653427124023 5.746635437011719 C 47.26758575439453 3.924095153808594 42.6886100769043 3 37.966796875 3 M 37.966796875 0 C 58.93528366088867 0 75.93359375 16.99831008911133 75.93359375 37.966796875 C 75.93359375 58.93528366088867 58.93528366088867 75.93359375 37.966796875 75.93359375 C 16.99831008911133 75.93359375 0 58.93528366088867 0 37.966796875 C 0 16.99831008911133 16.99831008911133 0 37.966796875 0 Z" stroke="none" fill="#847625"/>
              </g>
            </g>
          </g>
        </g>
      </g>
      <g id="mexico" transform="translate(198 7516.526)">
        <path id="Path_1089960" data-name="Path 1089960" d="M80.225,136.49c-22.906,4.915-45.811-6.927-68.717-2.012-2.147.456-3.9-.749-3.9-2.9V91.173a5.314,5.314,0,0,1,3.9-4.911c22.906-4.915,45.811,6.927,68.717,2.012,2.147-.456,3.9.749,3.9,2.9v40.406A5.314,5.314,0,0,1,80.225,136.49Z" transform="translate(-6.433 -6.402)" fill="#5eac24"/>
        <g id="Group_1220200" data-name="Group 1220200" transform="translate(1.171 78.64)">
          <path id="Path_1089961" data-name="Path 1089961" d="M17.132,91.171a5.314,5.314,0,0,1,3.9-4.911,54.5,54.5,0,0,1,7.68-1.066,63.3,63.3,0,0,0-17.207,1.066,5.314,5.314,0,0,0-3.9,4.911v40.406c0,2.149,1.757,3.355,3.9,2.9a53.5,53.5,0,0,1,6.265-.95,3.029,3.029,0,0,1-.643-1.948Q17.131,111.374,17.132,91.171Z" transform="translate(-7.605 -85.04)" fill="#47821c"/>
          <path id="Path_1089962" data-name="Path 1089962" d="M80.225,326.166c-22.906,4.915-45.811-6.927-68.717-2.012-2.147.456-3.9-.749-3.9-2.9v10.151c0,2.149,1.757,3.355,3.9,2.9,22.906-4.915,45.811,6.927,68.717,2.012a5.314,5.314,0,0,0,3.9-4.911V321.255A5.314,5.314,0,0,1,80.225,326.166Z" transform="translate(-7.603 -284.869)" fill="#47821c"/>
        </g>
        <path id="Path_1089963" data-name="Path 1089963" d="M290.359,100.505c-11.453,2.457-22.906.726-34.359-1.006v48.215c11.453,1.732,22.906,3.464,34.359,1.006a5.314,5.314,0,0,0,3.9-4.911V103.4C294.263,101.254,292.506,100.049,290.359,100.505Z" transform="translate(-216.566 -18.632)" fill="#ff3f62"/>
        <path id="Path_1089964" data-name="Path 1089964" d="M294.262,331.405V321.254a5.314,5.314,0,0,1-3.9,4.911c-11.453,2.457-22.906.726-34.359-1.006V335.31c11.453,1.732,22.906,3.464,34.359,1.006A5.314,5.314,0,0,0,294.262,331.405Z" transform="translate(-216.565 -206.228)" fill="#ff0c38"/>
        <path id="Path_1089965" data-name="Path 1089965" d="M173.2,136.588c8.5.857,17.006,2.57,25.509,3.428V91.8c-8.5-.857-17.006-2.57-25.509-3.428v48.215Z" transform="translate(-146.525 -9.22)" fill="#fff"/>
        <path id="Path_1089966" data-name="Path 1089966" d="M198.714,338.9c-8.5-.857-17.006-2.57-25.509-3.428v10.151c8.5.857,17.006,2.57,25.509,3.428Z" transform="translate(-146.525 -218.259)" fill="#d1e7f8"/>
        <path id="Path_1089967" data-name="Path 1089967" d="M202.819,273.411a10.9,10.9,0,0,1-9.539-5.648,1.171,1.171,0,0,1,2.052-1.13,8.536,8.536,0,0,0,14.93.078,1.171,1.171,0,1,1,2.04,1.151A10.91,10.91,0,0,1,202.819,273.411Z" transform="translate(-163.384 -159.507)" fill="#ffe477"/>
        <circle id="Ellipse_14280" data-name="Ellipse 14280" cx="5.805" cy="5.805" r="5.805" transform="translate(33.629 97.217)" fill="#aa6100"/>
        <path id="Path_1089968" data-name="Path 1089968" d="M280.72,98.885q.785.113,1.57.222a1.114,1.114,0,0,0,1.321-1,1.173,1.173,0,0,0-1-1.321q-.779-.108-1.558-.22a1.171,1.171,0,1,0-.334,2.319Z" transform="translate(-236.628 -16.141)"/>
        <path id="Path_1089969" data-name="Path 1089969" d="M77.4,81.523a4.568,4.568,0,0,0-3.855-.8c-8.672,1.861-17.145,1.22-24.289.347a1.171,1.171,0,0,0-.284,2.325q1.005.123,2.044.238v41.405a1.171,1.171,0,0,0,2.343,0V83.874a68.336,68.336,0,0,0,20.676-.855,2.254,2.254,0,0,1,1.892.325,1.759,1.759,0,0,1,.6,1.428v40.406a4.157,4.157,0,0,1-2.979,3.765c-11.244,2.413-22.781.668-33.938-1.019-3.88-.587-7.806-1.18-11.758-1.608V80.459c3.829.421,7.64,1,11.408,1.566l1.34.2a1.171,1.171,0,0,0,.349-2.316l-1.338-.2c-11.365-1.719-23.118-3.5-34.778-.994A6.521,6.521,0,0,0,0,84.771v40.406a4.074,4.074,0,0,0,1.466,3.248,4.569,4.569,0,0,0,3.855.8c11.244-2.413,22.78-.668,33.938,1.019,7.309,1.105,14.777,2.235,22.279,2.235a59.336,59.336,0,0,0,12.5-1.241,6.521,6.521,0,0,0,4.832-6.056V84.771A4.074,4.074,0,0,0,77.4,81.523ZM4.832,126.93a2.254,2.254,0,0,1-1.892-.325,1.759,1.759,0,0,1-.6-1.428V84.771a4.157,4.157,0,0,1,2.979-3.765,66.8,66.8,0,0,1,20.188-.784v45.861A68.648,68.648,0,0,0,4.832,126.93Z" transform="translate(0 0)"/>
      </g>
    </g>
  </g>
</svg>
