<svg xmlns="http://www.w3.org/2000/svg" xmlns:xlink="http://www.w3.org/1999/xlink" width="93.934" height="93.934" viewBox="0 0 93.934 93.934">
  <defs>
    <filter id="Path_978624" x="0" y="0" width="93.934" height="93.934" filterUnits="userSpaceOnUse">
      <feOffset dy="3" input="SourceAlpha"/>
      <feGaussianBlur stdDeviation="3" result="blur"/>
      <feFlood flood-opacity="0.161"/>
      <feComposite operator="in" in2="blur"/>
      <feComposite in="SourceGraphic"/>
    </filter>
  </defs>
  <g id="Group_1220452" data-name="Group 1220452" transform="translate(-189 -883.533)">
    <g id="Group_1220217" data-name="Group 1220217">
      <g id="Group_1219400" data-name="Group 1219400" transform="translate(-2 -4362.055)">
        <g id="Group_1208071" data-name="Group 1208071" transform="translate(-6 3815.588)">
          <g id="Group_1144123" data-name="Group 1144123" transform="translate(206 1436)">
            <g transform="matrix(1, 0, 0, 1, -9, -6)" filter="url(#Path_978624)">
              <g id="Path_978624-2" data-name="Path 978624" transform="translate(9 6)" fill="#efeadd">
                <path d="M 37.966796875 74.43359375 C 33.04315185546875 74.43359375 28.26757431030273 73.46962738037109 23.77274131774902 71.56847381591797 C 19.43047523498535 69.73184967041016 15.53040790557861 67.10224914550781 12.18087482452393 63.75271987915039 C 8.831341743469238 60.4031867980957 6.201741218566895 56.50312042236328 4.365118980407715 52.16086196899414 C 2.463963508605957 47.66601943969727 1.499996900558472 42.89044189453125 1.499996900558472 37.966796875 C 1.499996900558472 33.04315185546875 2.463963508605957 28.26757431030273 4.365118980407715 23.77274131774902 C 6.201741218566895 19.43047523498535 8.831341743469238 15.53040790557861 12.18087482452393 12.18087482452393 C 15.53040790557861 8.831341743469238 19.43047523498535 6.201741218566895 23.77274131774902 4.365118980407715 C 28.26757431030273 2.463963508605957 33.04315185546875 1.499996900558472 37.966796875 1.499996900558472 C 42.89044189453125 1.499996900558472 47.66601943969727 2.463963508605957 52.16086196899414 4.365118980407715 C 56.50312042236328 6.201741218566895 60.4031867980957 8.831341743469238 63.75271987915039 12.18087482452393 C 67.10224914550781 15.53040790557861 69.73184967041016 19.43047523498535 71.56847381591797 23.77274131774902 C 73.46962738037109 28.26757431030273 74.43359375 33.04315185546875 74.43359375 37.966796875 C 74.43359375 42.89044189453125 73.46962738037109 47.66601943969727 71.56847381591797 52.16086196899414 C 69.73184967041016 56.50313186645508 67.10224914550781 60.4031867980957 63.75271987915039 63.75271987915039 C 60.4031867980957 67.10224914550781 56.50313186645508 69.73184967041016 52.16086196899414 71.56847381591797 C 47.66601943969727 73.46962738037109 42.89044189453125 74.43359375 37.966796875 74.43359375 Z" stroke="none"/>
                <path d="M 37.966796875 3 C 33.2449836730957 3 28.66600799560547 3.924095153808594 24.35705947875977 5.746635437011719 C 20.19359588623047 7.507621765136719 16.45379638671875 10.02927398681641 13.24153518676758 13.24153518676758 C 10.02927398681641 16.45379638671875 7.507621765136719 20.19359588623047 5.746635437011719 24.35705947875977 C 3.924095153808594 28.66600799560547 3 33.2449836730957 3 37.966796875 C 3 42.6886100769043 3.924095153808594 47.26758575439453 5.746635437011719 51.57653427124023 C 7.507621765136719 55.73999786376953 10.02927398681641 59.47979736328125 13.24153518676758 62.69205856323242 C 16.45379638671875 65.90431976318359 20.19359588623047 68.42597198486328 24.35705947875977 70.18695831298828 C 28.66600799560547 72.00949859619141 33.2449836730957 72.93359375 37.966796875 72.93359375 C 42.6886100769043 72.93359375 47.26758575439453 72.00949859619141 51.57653427124023 70.18695831298828 C 55.73999786376953 68.42597198486328 59.47979736328125 65.90431976318359 62.69205856323242 62.69205856323242 C 65.90431976318359 59.47979736328125 68.42597198486328 55.73999786376953 70.18695831298828 51.57653427124023 C 72.00949859619141 47.26758575439453 72.93359375 42.6886100769043 72.93359375 37.966796875 C 72.93359375 33.2449836730957 72.00949859619141 28.66600799560547 70.18695831298828 24.35705947875977 C 68.42597198486328 20.19359588623047 65.90431976318359 16.45379638671875 62.69205856323242 13.24153518676758 C 59.47979736328125 10.02927398681641 55.73999786376953 7.507621765136719 51.57653427124023 5.746635437011719 C 47.26758575439453 3.924095153808594 42.6886100769043 3 37.966796875 3 M 37.966796875 0 C 58.93528366088867 0 75.93359375 16.99831008911133 75.93359375 37.966796875 C 75.93359375 58.93528366088867 58.93528366088867 75.93359375 37.966796875 75.93359375 C 16.99831008911133 75.93359375 0 58.93528366088867 0 37.966796875 C 0 16.99831008911133 16.99831008911133 0 37.966796875 0 Z" stroke="none" fill="#847625"/>
              </g>
            </g>
          </g>
        </g>
      </g>
      <g id="educacion_3_" data-name="educacion (3)" transform="translate(207.547 902.802)">
        <g id="Group_1220216" data-name="Group 1220216" transform="translate(0.973 5.68)">
          <path id="Path_1090280" data-name="Path 1090280" d="M97.777,233.591a11.184,11.184,0,0,0-.067,8.283l.912,1.787H59.243s-7.332-4.12,0-11.451l39.04-.8Z" transform="translate(-50.742 -206.968)" fill="#f1f2f2"/>
          <path id="Path_1090281" data-name="Path 1090281" d="M98.625,243.661H59.245s-7.332-4.12,0-11.451l39.04-.8-.506,2.186a10.723,10.723,0,0,0-.556,1.776H61.489a2.51,2.51,0,1,0,0,5.019H97.237a9.64,9.64,0,0,0,.476,1.488Z" transform="translate(-50.745 -206.967)" fill="#dee1e1"/>
          <path id="Path_1090282" data-name="Path 1090282" d="M81.9,234.627l-36-.057c-4.312,0-8.016-2.751-8.016-7.063a9.825,9.825,0,0,1,.146-3.045,7.811,7.811,0,0,1,7.326-5.1H82.29a1.761,1.761,0,1,1,0,3.523H54.342l-2.729.641-2.374-.641H45.362a4.286,4.286,0,0,0,0,8.572H82.29a1.762,1.762,0,0,1,1.749,1.969c-.1.875-1.235,1.2-2.138,1.2Z" transform="translate(-34.618 -196.261)" fill="#b7e546"/>
          <path id="Path_1090283" data-name="Path 1090283" d="M81.694,270.649a1.76,1.76,0,0,1-1.749,1.554L61.7,273.3,43.017,272.2a7.812,7.812,0,0,1-7.143-10.969v1.605a7.809,7.809,0,0,0,7.809,7.809Z" transform="translate(-32.273 -233.485)" fill="#abd641"/>
          <path id="Path_1090284" data-name="Path 1090284" d="M146.724,256.227v-5.135h-3.66l-1.3.13.078,4.782a.222.222,0,0,0,.3.207l.918-.224,1.027-.4a.222.222,0,0,1,.162,0l2.168.849A.222.222,0,0,0,146.724,256.227Z" transform="translate(-127 -224.468)" fill="#ef5227"/>
          <path id="Path_1090285" data-name="Path 1090285" d="M141.913,251.1v4.895l-1.14.446a.222.222,0,0,1-.3-.206V251.1Z" transform="translate(-125.849 -224.471)" fill="#d83724"/>
          <path id="Path_1090286" data-name="Path 1090286" d="M134.811,173.163v2.5l-.111,1.11a.777.777,0,0,1-.777.777l-29.587-.111a.777.777,0,0,1-.777-.777l-.222-3.5,15.189-.726Z" transform="translate(-92.837 -154.545)" fill="#fdcd08"/>
          <path id="Path_1090287" data-name="Path 1090287" d="M437.889,197.8c-.7,1.713-1.394,3.4-2.089,5.117a1.555,1.555,0,0,0,1.427,2.146l1.285.111h3.126a1.555,1.555,0,0,0,1.427-2.146l-1.449-3.573L440.7,197.8h-2.816Z" transform="translate(-388.288 -177.091)" fill="#fdcd08"/>
          <path id="Path_1090288" data-name="Path 1090288" d="M438.122,197.74a4.22,4.22,0,0,0,2.608-.631l-.779-1.948-1.288.385h0l-1.679-.224c-.212.523-.52,1.265-.732,1.788h0l-1.449,3.571a1.555,1.555,0,0,0,1.427,2.146h1.776a1.555,1.555,0,0,1-1.427-2.146l1.082-2.667A.449.449,0,0,1,438.122,197.74Z" transform="translate(-387.403 -174.747)" fill="#faab18"/>
          <path id="Path_1090289" data-name="Path 1090289" d="M452.416,160.411a2.586,2.586,0,0,0-1.73-2.447c-.261-.09-.64.07-.932.07a2.18,2.18,0,0,0-2.286,2.377,2.258,2.258,0,0,0,2.474,2.286c.291,0,.483.252.744.161A2.586,2.586,0,0,0,452.416,160.411Z" transform="translate(-398.765 -141.655)" fill="#fdcd08"/>
          <path id="Path_1090290" data-name="Path 1090290" d="M449.271,161.96a2.525,2.525,0,0,1-.833.14,2.587,2.587,0,0,1,0-5.175,2.526,2.526,0,0,1,.833.14,2.6,2.6,0,0,0,0,4.895Z" transform="translate(-397.349 -140.756)" fill="#faab18"/>
          <path id="Path_1090291" data-name="Path 1090291" d="M64.469,21.49l-7.323,2.535-2-.2L40.935,29.637a4.658,4.658,0,0,1-3.048,0l-14.213-5.59-2-.022L14.352,21.49a.932.932,0,0,1,0-1.761l23.812-8.243a3.809,3.809,0,0,1,2.493,0l23.812,8.243A.932.932,0,0,1,64.469,21.49Z" transform="translate(-13.175 -11.277)" fill="#868491"/>
          <path id="Path_1090292" data-name="Path 1090292" d="M120.807,82.87v.752L104.6,89.234a4.658,4.658,0,0,1-3.049,0L85.336,83.622V82.87a3.266,3.266,0,0,1,2.691-3.217,85.264,85.264,0,0,1,30.089,0,3.269,3.269,0,0,1,2.691,3.217Z" transform="translate(-76.836 -70.873)" fill="#77777f"/>
          <path id="Path_1090293" data-name="Path 1090293" d="M136.588,98.872v6.62H105.447l-.111-6.4a1.27,1.27,0,0,1,1.046-1.25c.317-.057.413-.334.73-.387a83.241,83.241,0,0,1,28.43.165,1.271,1.271,0,0,1,1.046,1.25Z" transform="translate(-94.615 -86.874)" fill="#868491"/>
          <path id="Path_1090294" data-name="Path 1090294" d="M134.811,175.666v1.221a.777.777,0,0,1-.777.777h-29.92a.777.777,0,0,1-.777-.777v-3.725l1-.726,1,.726v1.948a.555.555,0,0,0,.555.555Z" transform="translate(-92.837 -154.545)" fill="#faab18"/>
          <path id="Path_1090295" data-name="Path 1090295" d="M105.334,106.6v8.034h-2v-6.62a1.27,1.27,0,0,1,1.046-1.25C104.7,106.713,105.017,106.657,105.334,106.6Z" transform="translate(-92.837 -96.022)" fill="#77777f"/>
          <path id="Path_1090296" data-name="Path 1090296" d="M80.629,390.107a10.445,10.445,0,0,1,0-7.995l.338-1.5H35.57s-5.11,5.556.332,11l45.36.34Z" transform="translate(-30.66 -339.608)" fill="#f1f2f2"/>
          <path id="Path_1090297" data-name="Path 1090297" d="M81.262,391.952l-45.359-.34c-5.443-5.442-.332-11-.332-11l45.614.084-.556,1.416a10.4,10.4,0,0,0-.5,1.514H38.469a2.51,2.51,0,1,0,0,5.019H80.146a10.531,10.531,0,0,0,.483,1.462Z" transform="translate(-30.66 -339.612)" fill="#dee1e1"/>
          <path id="Path_1090298" data-name="Path 1090298" d="M63.384,375.261l-41.043-.076c-4.312,0-8.107-2.434-8.107-6.746,0-1.369-.335-3.253.284-4.372a7.807,7.807,0,0,1,6.838-4.035h42.8a1.761,1.761,0,0,1,0,3.523h-10.6l-2.771.613-2.332-.613H21.356a4.286,4.286,0,0,0,0,8.572h42.8a1.763,1.763,0,0,1,1.733,2.079c-.15.821-1.64,1.055-2.5,1.055Z" transform="translate(-13.547 -321.315)" fill="#ef5227"/>
          <path id="Path_1090299" data-name="Path 1090299" d="M61.109,403.145a1.763,1.763,0,0,1-1.733,1.443h-42.8a7.81,7.81,0,0,1-6.588-12v2.751a7.809,7.809,0,0,0,7.809,7.809Z" transform="translate(-8.768 -350.253)" fill="#d83724"/>
          <path id="Path_1090300" data-name="Path 1090300" d="M329.367,396.925v-5.176h-3.438l-1.525.093.082,4.861a.222.222,0,0,0,.3.207l1.14-.311.806-.315a.222.222,0,0,1,.162,0l2.168.849A.222.222,0,0,0,329.367,396.925Z" transform="translate(-289.363 -349.51)" fill="#fdcd08"/>
          <path id="Path_1090301" data-name="Path 1090301" d="M324.805,391.745v4.85l-1.362.533a.222.222,0,0,1-.3-.206v-5.177Z" transform="translate(-288.239 -349.506)" fill="#faab18"/>
        </g>
        <path id="Path_1090302" data-name="Path 1090302" d="M56.665,30.941l-1.848-4.555A3.383,3.383,0,0,0,53.1,20.927c0-.219,0-5.706,0-5.938a1.728,1.728,0,0,0-1.177-1.652l-23.409-8.1a4.6,4.6,0,0,0-3,0L19.691,7.25a.833.833,0,1,0,.545,1.574l5.828-2.018a2.924,2.924,0,0,1,1.906,0l23.409,8.1a.083.083,0,0,1,0,.158l-8.058,2.79v-.249a2.079,2.079,0,0,0-1.714-2.048,82.377,82.377,0,0,0-29.179,0,2.079,2.079,0,0,0-1.714,2.048v.249l-8.058-2.79a.083.083,0,0,1,0-.158L16.5,10.118a.833.833,0,1,0-.545-1.574L2.111,13.336a1.749,1.749,0,0,0,0,3.3l8.6,2.978v8.24A8.638,8.638,0,0,0,6.776,43.638,8.64,8.64,0,0,0,8.641,60.715h42.8a2.594,2.594,0,0,0,.053-5.187,9.539,9.539,0,0,1-.02-6.908,2.594,2.594,0,0,0-.033-5.187h-.514a2.593,2.593,0,0,0-2.421-3.523h-.022a9.533,9.533,0,0,1-.157-6.469,2.339,2.339,0,0,0,1.719.754H54.49a2.342,2.342,0,0,0,1.944-1.037,2.37,2.37,0,0,0,.23-2.218ZM53.954,24.2a1.687,1.687,0,1,1-1.687-1.71A1.7,1.7,0,0,1,53.954,24.2ZM51.435,16.81v4.117a3.383,3.383,0,0,0-1.717,5.458l-.581,1.431H43.321v-8.2ZM12.722,17.2a80.732,80.732,0,0,1,28.591,0,.415.415,0,0,1,.342.409v5.675H36.525a.833.833,0,1,0,0,1.665h5.131v2.868H12.379V24.948h20.26a.833.833,0,1,0,0-1.665H12.379V17.608a.415.415,0,0,1,.342-.409ZM52.37,46.027a.93.93,0,0,1-.929.929H8.641a5.118,5.118,0,1,0,0,10.237H41.52a.833.833,0,1,0,0-1.665H8.641a3.453,3.453,0,1,1,0-6.906H34.9v4.667a.833.833,0,0,0,1.136.775l2.248-.88,2.248.88a.833.833,0,0,0,1.136-.775V48.621h8.037a11.175,11.175,0,0,0,.016,6.906H45.406a.833.833,0,0,0,0,1.665h6.035a.929.929,0,1,1,0,1.857H8.641a6.976,6.976,0,1,1,0-13.952h42.8a.93.93,0,0,1,.929.929Zm-15.8,2.594H40v3.447l-1.415-.554a.832.832,0,0,0-.607,0l-1.415.554ZM22.314,41.576H48.505a.929.929,0,1,1,0,1.857H11.577a6.976,6.976,0,0,1,0-13.952H48.462c-.206.552-.586,1.335-.714,1.857H11.577a5.118,5.118,0,1,0,0,10.237h6.852a.833.833,0,0,0,0-1.665H11.577a3.453,3.453,0,1,1,0-6.906h3.044v4.627a.833.833,0,0,0,1.136.775l2.248-.88,2.248.88a.833.833,0,0,0,1.136-.775V33H46.714a11.176,11.176,0,0,0,0,6.906h-24.4a.833.833,0,0,0,0,1.665ZM16.286,33h3.438v3.407l-1.415-.554a.832.832,0,0,0-.607,0l-1.415.554Zm38.768-.776a.675.675,0,0,1-.563.3H50.045a.675.675,0,0,1-.563-.3.7.7,0,0,1-.068-.662l1.7-4.2a3.333,3.333,0,0,0,2.3,0l1.7,4.2A.7.7,0,0,1,55.054,32.229Z" transform="translate(0 0)"/>
      </g>
    </g>
  </g>
</svg>
