<svg xmlns="http://www.w3.org/2000/svg" xmlns:xlink="http://www.w3.org/1999/xlink" width="113" height="113" viewBox="0 0 113 113">
  <defs>
    <filter id="Path_982547" x="0" y="0" width="113" height="113" filterUnits="userSpaceOnUse">
      <feOffset dy="3" input="SourceAlpha"/>
      <feGaussianBlur stdDeviation="3" result="blur"/>
      <feFlood flood-opacity="0.161"/>
      <feComposite operator="in" in2="blur"/>
      <feComposite in="SourceGraphic"/>
    </filter>
  </defs>
  <g id="Group_1220443" data-name="Group 1220443" transform="translate(-1059 -1349.946)">
    <g id="Group_1220209" data-name="Group 1220209">
      <g id="Group_1214349" data-name="Group 1214349" transform="translate(0 -2817)">
        <g id="Group_1212851" data-name="Group 1212851" transform="translate(1068 4172.946)">
          <g id="Group_1209935" data-name="Group 1209935">
            <g id="Group_1208705" data-name="Group 1208705">
              <g id="Group_1148633" data-name="Group 1148633">
                <g id="Group_1148525" data-name="Group 1148525">
                  <g transform="matrix(1, 0, 0, 1, -9, -6)" filter="url(#Path_982547)">
                    <g id="Path_982547-2" data-name="Path 982547" transform="translate(9 6)" fill="#e6d567">
                      <path d="M 47.5 93.5 C 41.28937149047852 93.5 35.26533508300781 92.28397369384766 29.59518623352051 89.88570404052734 C 24.11771965026855 87.56893157958984 19.19813346862793 84.25196075439453 14.97309303283691 80.02691650390625 C 10.74804019927979 75.80186462402344 7.431066513061523 70.88229370117188 5.114293098449707 65.40481567382812 C 2.716026782989502 59.73468017578125 1.5 53.71062850952148 1.5 47.5 C 1.5 41.28937149047852 2.716026782989502 35.26533508300781 5.114293098449707 29.59518623352051 C 7.431066513061523 24.11771965026855 10.74804019927979 19.19813346862793 14.97309303283691 14.97309303283691 C 19.19813346862793 10.74804019927979 24.11771965026855 7.431066513061523 29.59518623352051 5.114293098449707 C 35.26533508300781 2.716026782989502 41.28937149047852 1.5 47.5 1.5 C 53.71062850952148 1.5 59.73468017578125 2.716026782989502 65.40481567382812 5.114293098449707 C 70.88229370117188 7.431066513061523 75.80186462402344 10.74804019927979 80.02691650390625 14.97309303283691 C 84.25196075439453 19.19813346862793 87.56893157958984 24.11771965026855 89.88570404052734 29.59518623352051 C 92.28397369384766 35.26533508300781 93.5 41.28937149047852 93.5 47.5 C 93.5 53.71062850952148 92.28397369384766 59.73468017578125 89.88570404052734 65.40481567382812 C 87.56893157958984 70.88229370117188 84.25196075439453 75.80186462402344 80.02691650390625 80.02691650390625 C 75.80186462402344 84.25196075439453 70.88229370117188 87.56893157958984 65.40481567382812 89.88570404052734 C 59.73468017578125 92.28397369384766 53.71062850952148 93.5 47.5 93.5 Z" stroke="none"/>
                      <path d="M 47.5 3 C 41.49121475219727 3 35.66376876831055 4.176155090332031 30.17950439453125 6.495796203613281 C 24.88084411621094 8.736953735351562 20.12152099609375 11.94598388671875 16.03375244140625 16.03375244140625 C 11.94598388671875 20.12152099609375 8.736953735351562 24.88084411621094 6.495796203613281 30.17950439453125 C 4.176155090332031 35.66376876831055 3 41.49121475219727 3 47.5 C 3 53.50878524780273 4.176155090332031 59.33623123168945 6.495796203613281 64.82049560546875 C 8.736953735351562 70.11915588378906 11.94598388671875 74.87847900390625 16.03375244140625 78.96624755859375 C 20.12152099609375 83.05401611328125 24.88084411621094 86.26304626464844 30.17950439453125 88.50419616699219 C 35.66376876831055 90.82384490966797 41.49121475219727 92 47.5 92 C 53.50878524780273 92 59.33623123168945 90.82384490966797 64.82049560546875 88.50419616699219 C 70.11915588378906 86.26304626464844 74.87847900390625 83.05401611328125 78.96624755859375 78.96624755859375 C 83.05401611328125 74.87847900390625 86.26304626464844 70.11915588378906 88.50419616699219 64.82049560546875 C 90.82384490966797 59.33623123168945 92 53.50878524780273 92 47.5 C 92 41.49121475219727 90.82384490966797 35.66376876831055 88.50419616699219 30.17950439453125 C 86.26304626464844 24.88084411621094 83.05401611328125 20.12152099609375 78.96624755859375 16.03375244140625 C 74.87847900390625 11.94598388671875 70.11915588378906 8.736953735351562 64.82049560546875 6.495796203613281 C 59.33623123168945 4.176155090332031 53.50878524780273 3 47.5 3 M 47.5 0 C 73.7335205078125 0 95 21.2664794921875 95 47.5 C 95 73.7335205078125 73.7335205078125 95 47.5 95 C 21.2664794921875 95 0 73.7335205078125 0 47.5 C 0 21.2664794921875 21.2664794921875 0 47.5 0 Z" stroke="none" fill="#ba9c5a"/>
                    </g>
                  </g>
                </g>
              </g>
            </g>
          </g>
        </g>
      </g>
      <g id="hombre" transform="translate(1084.092 1369.854)">
        <path id="Path_1090002" data-name="Path 1090002" d="M112.256,20.2c0-7.011-9.095-12.7-20.314-12.7S71.629,13.184,71.629,20.2V36.7h40.627Zm0,0" transform="translate(-60.284 -6.312)" fill="#b57f5f"/>
        <path id="Path_1090003" data-name="Path 1090003" d="M85.6,29.3s.733-8.936.761-13.965a8.223,8.223,0,0,1,4.282-7.576C80.03,8.183,71.629,13.68,71.629,20.416V36.921h14.9c-.376-3.187-.93-7.618-.93-7.618Zm0,0" transform="translate(-60.284 -6.532)" fill="#9f6e50"/>
        <path id="Path_1090004" data-name="Path 1090004" d="M62.973,318.994l-13.381-3.936a3.808,3.808,0,0,1-2.734-3.654V304.1H29.083V311.4a3.808,3.808,0,0,1-2.734,3.654l-13.381,3.936A7.618,7.618,0,0,0,7.5,326.3v9.536H68.441V326.3a7.617,7.617,0,0,0-5.468-7.308Zm0,0" transform="translate(-6.312 -255.934)" fill="#e3aa75"/>
        <path id="Path_1090005" data-name="Path 1090005" d="M62.973,389.956l-5.245-1.542c-2.106,6.169-10.142,10.768-19.758,10.768s-17.652-4.6-19.758-10.768l-5.245,1.542A7.617,7.617,0,0,0,7.5,397.264V406.8H68.441v-9.536a7.617,7.617,0,0,0-5.468-7.308Zm0,0" transform="translate(-6.312 -326.896)" fill="#ffe09f"/>
        <path id="Path_1090006" data-name="Path 1090006" d="M143.773,309.647a20.129,20.129,0,0,0,17.775,0V304.1H143.773Zm0,0" transform="translate(-121.002 -255.934)" fill="#d29b6e"/>
        <path id="Path_1090007" data-name="Path 1090007" d="M103.426,131.153H101.7a2.539,2.539,0,0,1-2.539-2.539V124.8a43.116,43.116,0,0,1-19.044-5.078H71.233v8.887a2.54,2.54,0,0,1-2.539,2.54H66.97A3.3,3.3,0,0,0,63.632,134a3.174,3.174,0,0,0,3.157,3.5h1.969a16.488,16.488,0,0,0,32.882,0h1.969a3.175,3.175,0,0,0,3.158-3.5,3.3,3.3,0,0,0-3.339-2.847Zm0,0" transform="translate(-53.54 -100.764)" fill="#f5b97d"/>
        <path id="Path_1090008" data-name="Path 1090008" d="M176.881,110.351c-3.715.183-11.064-.448-19.044-6.655,0,0-.693.69-1.88,1.687.031.034.051.075.084.108.3.3,7.383,7.234,20.269,7.234.189,0,.38-.01.57-.013v-2.362Zm0,0" transform="translate(-131.256 -87.272)" fill="#e3aa75"/>
        <path id="Path_1090009" data-name="Path 1090009" d="M142.683,42.559a5.516,5.516,0,0,0-.661,4.406.639.639,0,0,0,.719.436,5.763,5.763,0,0,0,4.265-7.024.639.639,0,0,0-.719-.436A5.517,5.517,0,0,0,142.683,42.559Zm0,0" transform="translate(-119.358 -33.606)" fill="#f6d190"/>
        <path id="Path_1090010" data-name="Path 1090010" d="M138.754,92.185a5.515,5.515,0,0,0,4.4.661.64.64,0,0,0,.437-.719,5.765,5.765,0,0,0-7.024-4.265.64.64,0,0,0-.436.72A5.513,5.513,0,0,0,138.754,92.185Zm0,0" transform="translate(-114.566 -73.776)" fill="#f6d190"/>
        <path id="Path_1090011" data-name="Path 1090011" d="M94.9,55.247a5.531,5.531,0,0,0,.791,4.315.692.692,0,0,0,.93.2A5.775,5.775,0,0,0,98.3,51.818a.692.692,0,0,0-.93-.2A5.531,5.531,0,0,0,94.9,55.247Zm0,0" transform="translate(-79.757 -43.36)" fill="#ecbd83"/>
        <path id="Path_1090012" data-name="Path 1090012" d="M102.45,107.1a5.532,5.532,0,0,0,4.315-.791.692.692,0,0,0,.2-.93,5.775,5.775,0,0,0-7.941-1.679.692.692,0,0,0-.2.93A5.529,5.529,0,0,0,102.45,107.1Zm0,0" transform="translate(-83.087 -86.499)" fill="#ecbd83"/>
        <path id="Path_1090013" data-name="Path 1090013" d="M52.6,86.94a5.532,5.532,0,0,0,3,3.2.7.7,0,0,0,.893-.353,5.776,5.776,0,0,0-2.9-7.573.7.7,0,0,0-.892.353A5.534,5.534,0,0,0,52.6,86.94Zm0,0" transform="translate(-43.933 -69.149)" fill="#ecbd83"/>
        <g id="Group_1220207" data-name="Group 1220207" transform="translate(34.256 6.335)">
          <path id="Path_1090014" data-name="Path 1090014" d="M228.328,42.618a5.516,5.516,0,0,1,.661,4.406.639.639,0,0,1-.719.436,5.77,5.77,0,0,1-4.288-6.941.7.7,0,0,1,.827-.5,5.533,5.533,0,0,1,3.519,2.6Zm0,0" transform="translate(-222.613 -40)" fill="#f6d190"/>
          <path id="Path_1090015" data-name="Path 1090015" d="M221.137,92.185a5.514,5.514,0,0,1-4.4.661.639.639,0,0,1-.436-.719,5.764,5.764,0,0,1,7.023-4.265.641.641,0,0,1,.437.72A5.516,5.516,0,0,1,221.137,92.185Zm0,0" transform="translate(-216.285 -80.112)" fill="#f6d190"/>
          <path id="Path_1090016" data-name="Path 1090016" d="M281.062,55.247a5.531,5.531,0,0,1-.791,4.315.692.692,0,0,1-.93.2,5.775,5.775,0,0,1-1.679-7.941.693.693,0,0,1,.931-.2A5.531,5.531,0,0,1,281.062,55.247Zm0,0" transform="translate(-267.164 -49.695)" fill="#f6d190"/>
          <path id="Path_1090017" data-name="Path 1090017" d="M252.875,107.1a5.53,5.53,0,0,1-4.315-.791.692.692,0,0,1-.2-.93A5.775,5.775,0,0,1,256.3,103.7a.692.692,0,0,1,.2.93A5.531,5.531,0,0,1,252.875,107.1Zm0,0" transform="translate(-243.198 -92.835)" fill="#f6d190"/>
          <path id="Path_1090018" data-name="Path 1090018" d="M321.554,86.94a5.53,5.53,0,0,1-3,3.2.7.7,0,0,1-.892-.353,5.775,5.775,0,0,1,2.9-7.573.7.7,0,0,1,.893.353A5.534,5.534,0,0,1,321.554,86.94Zm0,0" transform="translate(-301.178 -75.485)" fill="#f6d190"/>
        </g>
        <path id="Path_1090019" data-name="Path 1090019" d="M175.859,377.289,170.173,375a1.268,1.268,0,0,0-1.27.189l-25.13,20.244h30.471l2.4-16.788a1.27,1.27,0,0,0-.783-1.358Zm0,0" transform="translate(-121.002 -315.532)" fill="#ff8086"/>
        <path id="Path_1090020" data-name="Path 1090020" d="M60.676,378.781a2.539,2.539,0,1,1-2.539-2.539A2.539,2.539,0,0,1,60.676,378.781Zm0,0" transform="translate(-46.792 -316.652)" fill="#f6d190"/>
        <path id="Path_1090021" data-name="Path 1090021" d="M272.031,461.1l6.035-7.759a1.045,1.045,0,0,1,1.845.867l-1.532,6.892Zm0,0" transform="translate(-228.946 -381.195)" fill="#e5646e"/>
        <path id="Path_1090022" data-name="Path 1090022" d="M170.174,375a1.27,1.27,0,0,0-1.27.189l-25.13,20.244h11.387l16.894-19.676Zm0,0" transform="translate(-121.003 -315.531)" fill="#e5646e"/>
        <path id="Path_1090023" data-name="Path 1090023" d="M73.828,144.247l-.058-16.505H71.231v7.618a2.54,2.54,0,0,1-2.539,2.539h-1.9a3.174,3.174,0,0,0,0,6.348h1.969a16.387,16.387,0,0,0,18.988,15.022,16.493,16.493,0,0,1-13.915-15.021Zm0,0" transform="translate(-53.538 -107.51)" fill="#e3aa75"/>
        <path id="Path_1090024" data-name="Path 1090024" d="M145.477,192.387a1.188,1.188,0,0,0-1.188,1.188v1.27a1.188,1.188,0,1,0,2.376,0v-1.27A1.188,1.188,0,0,0,145.477,192.387Zm0,0" transform="translate(-121.436 -161.916)"/>
        <path id="Path_1090025" data-name="Path 1090025" d="M241.672,192.387a1.188,1.188,0,0,0-1.188,1.188v1.27a1.188,1.188,0,0,0,2.376,0v-1.27A1.188,1.188,0,0,0,241.672,192.387Zm0,0" transform="translate(-202.396 -161.916)"/>
        <path id="Path_1090026" data-name="Path 1090026" d="M177.977,250.534a1.188,1.188,0,0,0-1.669-1.691,5.234,5.234,0,0,1-5.949,0,1.188,1.188,0,0,0-1.669,1.691,7.494,7.494,0,0,0,9.286,0Zm0,0" transform="translate(-141.676 -209.142)"/>
        <path id="Path_1090027" data-name="Path 1090027" d="M57,61.92l-.439-.129A2.454,2.454,0,0,0,55.3,60.655l-5.686-2.287a2.459,2.459,0,0,0-2.458.366l-.265.213-3.277-.963a2.636,2.636,0,0,1-1.881-2.515V50A17.833,17.833,0,0,0,46.224,45.5a4.7,4.7,0,0,0,1.29,1.373,1.188,1.188,0,1,0,1.377-1.936,2.731,2.731,0,0,1-1.058-2.3,17.545,17.545,0,0,0,.817-2.235,6.116,6.116,0,0,0,2.832,2.5,1.188,1.188,0,1,0,.978-2.165,3.936,3.936,0,0,1-2.257-2.82,4.486,4.486,0,0,0,4.2-3.9,4.379,4.379,0,0,0-1.1-3.366,7.74,7.74,0,0,0,2.186.9,1.188,1.188,0,0,0,.576-2.3,4.306,4.306,0,0,1-3.262-2.8,5.7,5.7,0,0,1-.291-2.247,1.17,1.17,0,0,0,.009-.147,8.065,8.065,0,0,0-.262-2.033,6.721,6.721,0,0,0,3.478-3.795,6.548,6.548,0,0,0-.545-6,1.187,1.187,0,0,0-1.274-.486,5.7,5.7,0,0,0-.943.331C52.361,8.944,50.169,6.1,46.652,3.9A28.626,28.626,0,0,0,31.658,0,28.631,28.631,0,0,0,16.665,3.9c-3.52,2.2-5.713,5.05-6.328,8.164a5.749,5.749,0,0,0-.962-.34,1.188,1.188,0,0,0-1.274.486,6.551,6.551,0,0,0-.545,6,6.719,6.719,0,0,0,3.5,3.8,8.057,8.057,0,0,0-.26,2.025,1.169,1.169,0,0,0,.009.147,4.58,4.58,0,0,1-3.553,5.048,1.188,1.188,0,0,0,.576,2.305,7.683,7.683,0,0,0,2.326-.986,4.218,4.218,0,0,0-1.24,2.562,4.361,4.361,0,0,0,4.2,4.8,3.935,3.935,0,0,1-2.255,2.811,1.188,1.188,0,0,0,.978,2.165,6.115,6.115,0,0,0,2.831-2.5,17.551,17.551,0,0,0,.819,2.238,2.746,2.746,0,0,1-1.058,2.3A1.188,1.188,0,0,0,15.8,46.87,4.689,4.689,0,0,0,17.091,45.5,17.848,17.848,0,0,0,21.583,50V55.47A2.634,2.634,0,0,1,19.7,57.984L14.108,59.63a3.725,3.725,0,0,0-6.44,1.894l-1.346.4A8.854,8.854,0,0,0,0,70.368V79.9a1.188,1.188,0,1,0,2.376,0V70.368A6.465,6.465,0,0,1,6.991,64.2l1.068-.314A3.723,3.723,0,0,0,12.7,65.6c3.741,4.37,9.661,7.165,16.305,7.755l-6.981,5.624a1.188,1.188,0,1,0,1.49,1.85l25.13-20.244a.083.083,0,0,1,.082-.012l.483.194L47.6,62.621a1.188,1.188,0,0,0,1.8,1.556L51.542,61.7l2.872,1.155a.081.081,0,0,1,.05.087l-2.4,16.788a1.187,1.187,0,0,0,1.008,1.344,1.209,1.209,0,0,0,.17.012,1.188,1.188,0,0,0,1.174-1.02l2.251-15.759a6.469,6.469,0,0,1,4.272,6.056V79.9a1.188,1.188,0,1,0,2.376,0V70.368A8.854,8.854,0,0,0,57,61.921ZM53.521,17.367a4.515,4.515,0,0,1-1.9,2.306,4.68,4.68,0,0,1,2.017-5.291A4.515,4.515,0,0,1,53.521,17.367ZM17.924,5.914A26.236,26.236,0,0,1,31.658,2.376,26.24,26.24,0,0,1,45.393,5.914c3.409,2.131,5.315,4.894,5.387,7.8a7.189,7.189,0,0,0-1.262,2.129,7.351,7.351,0,0,0-.356,1.272q-.3-.275-.62-.541a6.755,6.755,0,0,0,.774-4.931A6.55,6.55,0,0,0,45.605,6.89a1.188,1.188,0,0,0-1.334.282A6.55,6.55,0,0,0,42.8,13.019c.026.122.056.242.087.361q-.473-.181-.961-.345a6.789,6.789,0,0,0-.941-4.7,6.55,6.55,0,0,0-5.074-3.255,1.191,1.191,0,0,0-1.166.708,6.518,6.518,0,0,0,.442,5.817,34.67,34.67,0,0,0-7.081,0,6.517,6.517,0,0,0,.442-5.82,1.188,1.188,0,0,0-1.166-.708,6.549,6.549,0,0,0-5.074,3.256,6.784,6.784,0,0,0-.94,4.7c-.326.111-.648.226-.964.347.032-.122.062-.245.088-.37a6.547,6.547,0,0,0-1.47-5.847A1.187,1.187,0,0,0,17.69,6.89a6.55,6.55,0,0,0-3.711,4.751,6.75,6.75,0,0,0,.781,4.943q-.325.268-.624.546a7.406,7.406,0,0,0-.359-1.288,7.2,7.2,0,0,0-1.242-2.107c.063-2.912,1.97-5.684,5.389-7.821ZM43.687,19.439a4.518,4.518,0,0,1-2.967-.348,4.678,4.678,0,0,1,5.54-1.171,4.519,4.519,0,0,1-2.572,1.519Zm-6.362-8.88a4.522,4.522,0,0,1-.654-2.915,4.679,4.679,0,0,1,2.95,4.718c-.187-.046-.377-.088-.567-.131a4.656,4.656,0,0,1-1.729-1.672Zm9.319,4.54a4.68,4.68,0,0,1-1.171-5.54,4.678,4.678,0,0,1,1.171,5.54Zm-9.143.663a4.513,4.513,0,0,1,2.915-.654,4.678,4.678,0,0,1-4.84,2.938A4.519,4.519,0,0,1,37.5,15.763ZM18.17,12.528A4.523,4.523,0,0,1,16.651,15.1a4.678,4.678,0,0,1,1.171-5.54A4.514,4.514,0,0,1,18.17,12.528ZM24.34,9.57a4.515,4.515,0,0,1,2.285-1.925,4.513,4.513,0,0,1-.654,2.915,4.653,4.653,0,0,1-1.744,1.68c-.184.041-.369.084-.551.129a4.546,4.546,0,0,1,.664-2.8Zm-4.337,8a4.519,4.519,0,0,1,2.572,1.519,4.678,4.678,0,0,1-5.54-1.171A4.514,4.514,0,0,1,20,17.573Zm4.8-.179a4.515,4.515,0,0,1-1.925-2.285,4.678,4.678,0,0,1,4.84,2.939A4.52,4.52,0,0,1,24.8,17.394Zm-15.03-.027a4.519,4.519,0,0,1-.118-2.985,4.678,4.678,0,0,1,2.017,5.291,4.517,4.517,0,0,1-1.9-2.306Zm6.567,18.1a1.188,1.188,0,1,0-2.376,0v.082h-.717a1.988,1.988,0,0,1-1.975-2.2,2.107,2.107,0,0,1,2.157-1.777h1.724a3.731,3.731,0,0,0,3.727-3.727V24.887a1.188,1.188,0,1,0-2.376,0V27.85A1.353,1.353,0,0,1,15.154,29.2H13.43a4.658,4.658,0,0,0-2.385.658,7.219,7.219,0,0,0,2.123-5.884A6.814,6.814,0,0,1,15.2,19.426a6.835,6.835,0,0,0,3.92,2.337,7.356,7.356,0,0,0,1.516.16,6.312,6.312,0,0,0,4.331-1.63,1.163,1.163,0,0,0,.145-.168,6.725,6.725,0,0,0,2.071.338,5.943,5.943,0,0,0,2.4-.492,1.188,1.188,0,0,0,.708-1.166,6.46,6.46,0,0,0-2.759-4.741,32.632,32.632,0,0,1,8.249,0,6.457,6.457,0,0,0-2.761,4.743,1.187,1.187,0,0,0,.708,1.166,5.94,5.94,0,0,0,2.395.492,6.726,6.726,0,0,0,2.071-.338,1.162,1.162,0,0,0,.145.168,6.311,6.311,0,0,0,4.331,1.63,7.358,7.358,0,0,0,1.516-.16,6.832,6.832,0,0,0,3.93-2.349,6.825,6.825,0,0,1,2.04,4.56,7.248,7.248,0,0,0,1.976,5.744,4.36,4.36,0,0,0-2.058-.518h-1.9a1.353,1.353,0,0,1-1.351-1.351V24.041a1.188,1.188,0,0,0-2.376,0V27.85a3.731,3.731,0,0,0,3.727,3.727h1.9a1.987,1.987,0,0,1,1.975,2.2,2.107,2.107,0,0,1-2.157,1.777h-.536v-.07a1.188,1.188,0,0,0-2.376,0,15.317,15.317,0,0,1-30.633-.011ZM9.993,62.129a1.351,1.351,0,1,1,1.351,1.351A1.353,1.353,0,0,1,9.993,62.129Zm4.53,1.944a3.7,3.7,0,0,0,.548-1.944c0-.1,0-.2-.013-.3l5.314-1.563a5.025,5.025,0,0,0,3.586-4.794V51.395a17.67,17.67,0,0,0,15.4,0V55.47a5.025,5.025,0,0,0,3.586,4.794l1.695.5L31.81,71.1c-7.1-.027-13.556-2.7-17.287-7.024Zm0,0"/>
        <path id="Path_1090028" data-name="Path 1090028" d="M140,168.34h-2.54a1.188,1.188,0,0,0,0,2.376H140a1.188,1.188,0,0,0,0-2.376Zm0,0" transform="translate(-114.691 -141.678)"/>
        <path id="Path_1090029" data-name="Path 1090029" d="M233.657,170.716H236.2a1.188,1.188,0,0,0,0-2.376h-2.539a1.188,1.188,0,0,0,0,2.376Zm0,0" transform="translate(-195.65 -141.678)"/>
        <path id="Path_1090030" data-name="Path 1090030" d="M221.323,415.593a1.188,1.188,0,0,0-1.675.12l-11.185,12.905a1.188,1.188,0,0,0,1.8,1.557l11.184-12.906A1.188,1.188,0,0,0,221.323,415.593Zm0,0" transform="translate(-175.202 -349.526)"/>
      </g>
    </g>
  </g>
</svg>
