<svg xmlns="http://www.w3.org/2000/svg" xmlns:xlink="http://www.w3.org/1999/xlink" width="103" height="103" viewBox="0 0 103 103">
  <defs>
    <filter id="Path_978624" x="0" y="0" width="103" height="103" filterUnits="userSpaceOnUse">
      <feOffset dy="3" input="SourceAlpha"/>
      <feGaussianBlur stdDeviation="3" result="blur"/>
      <feFlood flood-opacity="0.161"/>
      <feComposite operator="in" in2="blur"/>
      <feComposite in="SourceGraphic"/>
    </filter>
  </defs>
  <g id="Group_1220416" data-name="Group 1220416" transform="translate(-199 -297)">
    <g id="Group_1219758" data-name="Group 1219758">
      <g id="Group_1209735" data-name="Group 1209735" transform="translate(7 -17)">
        <g id="Group_1180764" data-name="Group 1180764" transform="translate(1 -4144)">
          <g id="Group_1179463" data-name="Group 1179463" transform="translate(200 4464)">
            <g id="Group_1144531" data-name="Group 1144531">
              <g transform="matrix(1, 0, 0, 1, -9, -6)" filter="url(#Path_978624)">
                <g id="Path_978624-2" data-name="Path 978624" transform="translate(9 6)" fill="#f7f4ed">
                  <path d="M 42.5 83.5 C 36.96437835693359 83.5 31.59512901306152 82.41617584228516 26.54141235351562 80.27863311767578 C 21.65934181213379 78.21369171142578 17.27447128295898 75.25723266601562 13.50862312316895 71.49137878417969 C 9.742764472961426 67.72553253173828 6.786305904388428 63.34066009521484 4.721364498138428 58.45858764648438 C 2.583823442459106 53.40486907958984 1.5 48.03562164306641 1.5 42.5 C 1.5 36.96437835693359 2.583823442459106 31.59512901306152 4.721364498138428 26.54141235351562 C 6.786305904388428 21.65934181213379 9.742764472961426 17.27447128295898 13.50862312316895 13.50862312316895 C 17.27447128295898 9.742764472961426 21.65934181213379 6.786305904388428 26.54141235351562 4.721364498138428 C 31.59512901306152 2.583823442459106 36.96437835693359 1.5 42.5 1.5 C 48.03562164306641 1.5 53.40486907958984 2.583823442459106 58.45858764648438 4.721364498138428 C 63.34066009521484 6.786305904388428 67.72553253173828 9.742764472961426 71.49137878417969 13.50862312316895 C 75.25723266601562 17.27447128295898 78.21369171142578 21.65934181213379 80.27863311767578 26.54141235351562 C 82.41617584228516 31.59512901306152 83.5 36.96437835693359 83.5 42.5 C 83.5 48.03562164306641 82.41617584228516 53.40486907958984 80.27863311767578 58.45858764648438 C 78.21369171142578 63.34066009521484 75.25723266601562 67.72553253173828 71.49137878417969 71.49137878417969 C 67.72553253173828 75.25723266601562 63.34066009521484 78.21369171142578 58.45858764648438 80.27863311767578 C 53.40486907958984 82.41617584228516 48.03562164306641 83.5 42.5 83.5 Z" stroke="none"/>
                  <path d="M 42.5 3 C 37.16621398925781 3 31.99356079101562 4.043960571289062 27.125732421875 6.102882385253906 C 22.42246627807617 8.092185974121094 18.19785308837891 10.94070434570312 14.56928253173828 14.56928253173828 C 10.94070434570312 18.19785308837891 8.092185974121094 22.42246627807617 6.102882385253906 27.125732421875 C 4.043960571289062 31.99356079101562 3 37.16621398925781 3 42.5 C 3 47.83378601074219 4.043960571289062 53.00643920898438 6.102882385253906 57.87425231933594 C 8.092185974121094 62.57753372192383 10.94070434570312 66.80213165283203 14.56928253173828 70.43071746826172 C 18.19786834716797 74.05929565429688 22.42246627807617 76.90781402587891 27.125732421875 78.89711761474609 C 31.99356079101562 80.95603942871094 37.16621398925781 82 42.5 82 C 47.83378601074219 82 53.00642395019531 80.95603942871094 57.87425231933594 78.89711761474609 C 62.57753372192383 76.90781402587891 66.80213165283203 74.05929565429688 70.43071746826172 70.43071746826172 C 74.05929565429688 66.80213165283203 76.90781402587891 62.57753372192383 78.89711761474609 57.87425231933594 C 80.95603942871094 53.00642395019531 82 47.83378601074219 82 42.5 C 82 37.16621398925781 80.95603942871094 31.99356079101562 78.89711761474609 27.125732421875 C 76.90781402587891 22.42246627807617 74.05929565429688 18.19786834716797 70.43071746826172 14.56928253173828 C 66.80213165283203 10.94070434570312 62.57753372192383 8.092185974121094 57.87425231933594 6.102882385253906 C 53.00643920898438 4.043960571289062 47.83378601074219 3 42.5 3 M 42.5 0 C 65.97209167480469 0 85 19.02789306640625 85 42.5 C 85 65.97209167480469 65.97209167480469 85 42.5 85 C 19.02789306640625 85 0 65.97209167480469 0 42.5 C 0 19.02789306640625 19.02789306640625 0 42.5 0 Z" stroke="none" fill="#655531"/>
                </g>
              </g>
            </g>
          </g>
        </g>
      </g>
      <g id="gobierno_4_" data-name="gobierno (4)" transform="translate(215.778 318.556)">
        <g id="Group_1219756" data-name="Group 1219756" transform="translate(1.019 1.019)">
          <g id="Group_1219744" data-name="Group 1219744" transform="translate(4.279 26.006)">
            <path id="Path_1089378" data-name="Path 1089378" d="M97.912,204.04v-2.814a1.981,1.981,0,0,0-1.976-1.976h-54.9a1.98,1.98,0,0,0-1.972,1.976v2.814Z" transform="translate(-39.061 -199.249)" fill="#d9c1e1" fill-rule="evenodd"/>
          </g>
          <g id="Group_1219745" data-name="Group 1219745" transform="translate(57.863 26.006)">
            <path id="Path_1089379" data-name="Path 1089379" d="M439.4,203.382v-2.157a1.981,1.981,0,0,0-1.976-1.976h-3.291a1.981,1.981,0,0,1,1.976,1.976v2.157H439.4Z" transform="translate(-434.131 -199.249)" fill="#d2b1de" fill-rule="evenodd"/>
          </g>
          <g id="Group_1219746" data-name="Group 1219746" transform="translate(33.703)">
            <path id="Path_1089380" data-name="Path 1089380" d="M256,7.512h11.142c.692,0,.877.288.507.9l-1.038,1.73a1.566,1.566,0,0,0,0,1.8l1.038,1.726c.388.642.058.9-.507.9H256Z" transform="translate(-256 -7.512)" fill="#ff6270" fill-rule="evenodd"/>
          </g>
          <g id="Group_1219747" data-name="Group 1219747" transform="translate(40.736)">
            <path id="Path_1089381" data-name="Path 1089381" d="M308.675,7.512h3.291c.692,0,.877.288.507.9l-1.038,1.73a1.566,1.566,0,0,0,0,1.8l1.038,1.726c.388.642.058.9-.507.9h-3.291c.565,0,.9-.261.507-.9l-1.038-1.726a1.56,1.56,0,0,1,0-1.8l1.038-1.73C309.552,7.8,309.367,7.512,308.675,7.512Z" transform="translate(-307.858 -7.512)" fill="#f64b51" fill-rule="evenodd"/>
          </g>
          <g id="Group_1219748" data-name="Group 1219748" transform="translate(15.394 11.83)">
            <path id="Path_1089382" data-name="Path 1089382" d="M139.321,94.735a18.308,18.308,0,0,1,18.308,18.308H121.013A18.308,18.308,0,0,1,139.321,94.735Z" transform="translate(-121.013 -94.735)" fill="#d9c1e1" fill-rule="evenodd"/>
          </g>
          <g id="Group_1219749" data-name="Group 1219749" transform="translate(32.057 11.83)">
            <path id="Path_1089383" data-name="Path 1089383" d="M245.513,94.735a18.308,18.308,0,0,1,18.309,18.308h-3.291a18.313,18.313,0,0,0-16.663-18.235C244.41,94.762,244.96,94.735,245.513,94.735Z" transform="translate(-243.868 -94.735)" fill="#d2b1de" fill-rule="evenodd"/>
          </g>
          <g id="Group_1219750" data-name="Group 1219750" transform="translate(1.972 37.405)">
            <path id="Path_1089384" data-name="Path 1089384" d="M22.054,283.3H85.515v25.371H22.054Z" transform="translate(-22.054 -283.298)" fill="#e7daec" fill-rule="evenodd"/>
          </g>
          <g id="Group_1219751" data-name="Group 1219751" transform="translate(62.142 38.22)">
            <path id="Path_1089385" data-name="Path 1089385" d="M465.681,289.307h3.291v23.737h-3.291Z" transform="translate(-465.681 -289.307)" fill="#d9c1e1" fill-rule="evenodd"/>
          </g>
          <g id="Group_1219752" data-name="Group 1219752" transform="translate(6.582 44.053)">
            <path id="Path_1089386" data-name="Path 1089386" d="M64.47,350.876V336.524a4.214,4.214,0,1,0-8.427,0v14.352Zm45.025,0V336.524a4.214,4.214,0,1,0-8.427,0v14.352Zm-15.01,0V336.524a4.212,4.212,0,1,0-8.424,0v14.352Zm-15.01,0V336.524a4.212,4.212,0,1,0-8.424,0v14.352Z" transform="translate(-56.043 -332.31)" fill="#d9c1e1" fill-rule="evenodd"/>
          </g>
          <g id="Group_1219753" data-name="Group 1219753" transform="translate(0 30.139)">
            <path id="Path_1089387" data-name="Path 1089387" d="M9.484,266.994H72.945a1.98,1.98,0,0,0,1.976-1.976v-1.5a1.983,1.983,0,0,0-1.976-1.976H9.484a1.982,1.982,0,0,0-1.972,1.976v1.5a1.98,1.98,0,0,0,1.972,1.976Zm0-29.189H72.945a1.98,1.98,0,0,0,1.976-1.976V231.7a1.98,1.98,0,0,0-1.976-1.972H9.484A1.979,1.979,0,0,0,7.512,231.7v4.133A1.98,1.98,0,0,0,9.484,237.8Z" transform="translate(-7.512 -229.723)" fill="#f8f6f7" fill-rule="evenodd"/>
          </g>
          <g id="Group_1219754" data-name="Group 1219754" transform="translate(62.142 30.139)">
            <path id="Path_1089388" data-name="Path 1089388" d="M465.681,266.994h3.291a1.98,1.98,0,0,0,1.976-1.976v-1.5a1.983,1.983,0,0,0-1.976-1.976h-3.291a1.986,1.986,0,0,1,1.976,1.976v1.5A1.983,1.983,0,0,1,465.681,266.994Zm0-29.189h3.291a1.98,1.98,0,0,0,1.976-1.976V231.7a1.98,1.98,0,0,0-1.976-1.972h-3.291a1.982,1.982,0,0,1,1.976,1.972v4.133A1.983,1.983,0,0,1,465.681,237.8Z" transform="translate(-465.681 -229.723)" fill="#e7daec" fill-rule="evenodd"/>
          </g>
          <g id="Group_1219755" data-name="Group 1219755" transform="translate(9.151 44.053)">
            <path id="Path_1089389" data-name="Path 1089389" d="M80.837,350.215V336.524a4.228,4.228,0,0,0-4.214-4.214,4.185,4.185,0,0,0-1.646.338,4.225,4.225,0,0,1,2.564,3.876v13.691Zm45.025,0V336.524A4.207,4.207,0,0,0,120,332.648a4.223,4.223,0,0,1,2.568,3.876v13.691Zm-15.01,0V336.524a4.207,4.207,0,0,0-5.859-3.876,4.223,4.223,0,0,1,2.568,3.876v13.691Zm-15.01,0V336.524a4.2,4.2,0,0,0-5.855-3.876,4.226,4.226,0,0,1,2.564,3.876v13.691Z" transform="translate(-74.978 -332.31)" fill="#d2b1de" fill-rule="evenodd"/>
          </g>
        </g>
        <g id="Group_1219757" data-name="Group 1219757" transform="translate(0 0)">
          <path id="Path_1089390" data-name="Path 1089390" d="M2.991,67.409H66.452a.958.958,0,0,0,.957-.957v-1.5A.958.958,0,0,0,66.452,64H2.991a.965.965,0,0,0-.957.957v1.5a.965.965,0,0,0,.957.957ZM15.01,61.961V49.285a3.2,3.2,0,0,0-6.394,0V61.961Zm2.034-12.676V61.961h4.548V49.285a5.231,5.231,0,0,1,10.461,0V61.961H36.6V49.285a5.231,5.231,0,0,1,10.462,0V61.961h4.548V49.285a5.231,5.231,0,0,1,10.462,0V61.961h3.364v-21.7H4.01V48.8a1.017,1.017,0,1,1-2.034,0V40.077A3.01,3.01,0,0,1,0,37.263V33.13a3.006,3.006,0,0,1,2.991-2.991H4.279V29a3,3,0,0,1,2.991-3h8.823c.169-.607.365-1.2.592-1.788a19.356,19.356,0,0,1,3.7-6.017,1.013,1.013,0,0,1,1.5,1.357,17.206,17.206,0,0,0-4.433,10.581H51.985a17.285,17.285,0,0,0-26.794-13.41,1.015,1.015,0,0,1-1.123-1.692,19.191,19.191,0,0,1,9.639-3.18V1.019A1.017,1.017,0,0,1,34.722,0h12.2a1.017,1.017,0,0,1,1.015,1.019.993.993,0,0,1-.173.565L45.975,4.548l1.811,3.007a1.018,1.018,0,0,1-.346,1.4,1,1,0,0,1-.523.146H35.74v2.761A19.353,19.353,0,0,1,53.353,26.006h8.82a3,3,0,0,1,2.991,3v1.138h1.288a3,3,0,0,1,2.991,2.991v4.133a3,3,0,0,1-1.972,2.814V62.138a3.04,3.04,0,0,1,1.1.7,2.986,2.986,0,0,1,.877,2.115v1.5a2.993,2.993,0,0,1-2.991,2.991H2.991A3,3,0,0,1,0,66.452v-1.5a3.01,3.01,0,0,1,1.976-2.814V53.411a1.017,1.017,0,0,1,2.034,0v8.551H6.582V49.285a5.231,5.231,0,0,1,10.461,0Zm43,12.676V49.285a3.2,3.2,0,0,0-6.394,0V61.961Zm-15.01,0V49.285a3.2,3.2,0,0,0-6.394,0V61.961Zm-15.01,0V49.285a3.2,3.2,0,0,0-6.394,0V61.961Zm15.1-59.928H35.74V7.063h9.377L43.926,5.09a1.021,1.021,0,0,1-.008-1.065ZM53.8,28.043a19.751,19.751,0,0,1,.223,2.1H63.13V29a.958.958,0,0,0-.957-.957Zm-38.374,2.1a18.869,18.869,0,0,1,.223-2.1H7.27a.95.95,0,0,0-.673.281A.94.94,0,0,0,6.313,29v1.138ZM2.991,38.22H66.452a.958.958,0,0,0,.957-.957V33.13a.951.951,0,0,0-.28-.673.963.963,0,0,0-.677-.285H2.991a.954.954,0,0,0-.673.285.938.938,0,0,0-.285.673v4.133a.941.941,0,0,0,.285.677.951.951,0,0,0,.673.28Z" transform="translate(0 0)"/>
        </g>
      </g>
    </g>
  </g>
</svg>
