<svg xmlns="http://www.w3.org/2000/svg" xmlns:xlink="http://www.w3.org/1999/xlink" width="93.934" height="93.934" viewBox="0 0 93.934 93.934">
  <defs>
    <filter id="Path_978624" x="0" y="0" width="93.934" height="93.934" filterUnits="userSpaceOnUse">
      <feOffset dy="3" input="SourceAlpha"/>
      <feGaussianBlur stdDeviation="3" result="blur"/>
      <feFlood flood-opacity="0.161"/>
      <feComposite operator="in" in2="blur"/>
      <feComposite in="SourceGraphic"/>
    </filter>
  </defs>
  <g id="Group_1220454" data-name="Group 1220454" transform="translate(-1031 -880.55)">
    <g id="Group_1220220" data-name="Group 1220220">
      <g id="Group_1219402" data-name="Group 1219402" transform="translate(-2 -4365.038)">
        <g id="Group_1208073" data-name="Group 1208073" transform="translate(836 3815.588)">
          <g id="Group_1144123" data-name="Group 1144123" transform="translate(206 1436)">
            <g transform="matrix(1, 0, 0, 1, -9, -6)" filter="url(#Path_978624)">
              <g id="Path_978624-2" data-name="Path 978624" transform="translate(9 6)" fill="#efeadd">
                <path d="M 37.966796875 74.43359375 C 33.04315185546875 74.43359375 28.26757431030273 73.46962738037109 23.77274131774902 71.56847381591797 C 19.43047523498535 69.73184967041016 15.53040790557861 67.10224914550781 12.18087482452393 63.75271987915039 C 8.831341743469238 60.4031867980957 6.201741218566895 56.50312042236328 4.365118980407715 52.16086196899414 C 2.463963508605957 47.66601943969727 1.499996900558472 42.89044189453125 1.499996900558472 37.966796875 C 1.499996900558472 33.04315185546875 2.463963508605957 28.26757431030273 4.365118980407715 23.77274131774902 C 6.201741218566895 19.43047523498535 8.831341743469238 15.53040790557861 12.18087482452393 12.18087482452393 C 15.53040790557861 8.831341743469238 19.43047523498535 6.201741218566895 23.77274131774902 4.365118980407715 C 28.26757431030273 2.463963508605957 33.04315185546875 1.499996900558472 37.966796875 1.499996900558472 C 42.89044189453125 1.499996900558472 47.66601943969727 2.463963508605957 52.16086196899414 4.365118980407715 C 56.50312042236328 6.201741218566895 60.4031867980957 8.831341743469238 63.75271987915039 12.18087482452393 C 67.10224914550781 15.53040790557861 69.73184967041016 19.43047523498535 71.56847381591797 23.77274131774902 C 73.46962738037109 28.26757431030273 74.43359375 33.04315185546875 74.43359375 37.966796875 C 74.43359375 42.89044189453125 73.46962738037109 47.66601943969727 71.56847381591797 52.16086196899414 C 69.73184967041016 56.50313186645508 67.10224914550781 60.4031867980957 63.75271987915039 63.75271987915039 C 60.4031867980957 67.10224914550781 56.50313186645508 69.73184967041016 52.16086196899414 71.56847381591797 C 47.66601943969727 73.46962738037109 42.89044189453125 74.43359375 37.966796875 74.43359375 Z" stroke="none"/>
                <path d="M 37.966796875 3 C 33.2449836730957 3 28.66600799560547 3.924095153808594 24.35705947875977 5.746635437011719 C 20.19359588623047 7.507621765136719 16.45379638671875 10.02927398681641 13.24153518676758 13.24153518676758 C 10.02927398681641 16.45379638671875 7.507621765136719 20.19359588623047 5.746635437011719 24.35705947875977 C 3.924095153808594 28.66600799560547 3 33.2449836730957 3 37.966796875 C 3 42.6886100769043 3.924095153808594 47.26758575439453 5.746635437011719 51.57653427124023 C 7.507621765136719 55.73999786376953 10.02927398681641 59.47979736328125 13.24153518676758 62.69205856323242 C 16.45379638671875 65.90431976318359 20.19359588623047 68.42597198486328 24.35705947875977 70.18695831298828 C 28.66600799560547 72.00949859619141 33.2449836730957 72.93359375 37.966796875 72.93359375 C 42.6886100769043 72.93359375 47.26758575439453 72.00949859619141 51.57653427124023 70.18695831298828 C 55.73999786376953 68.42597198486328 59.47979736328125 65.90431976318359 62.69205856323242 62.69205856323242 C 65.90431976318359 59.47979736328125 68.42597198486328 55.73999786376953 70.18695831298828 51.57653427124023 C 72.00949859619141 47.26758575439453 72.93359375 42.6886100769043 72.93359375 37.966796875 C 72.93359375 33.2449836730957 72.00949859619141 28.66600799560547 70.18695831298828 24.35705947875977 C 68.42597198486328 20.19359588623047 65.90431976318359 16.45379638671875 62.69205856323242 13.24153518676758 C 59.47979736328125 10.02927398681641 55.73999786376953 7.507621765136719 51.57653427124023 5.746635437011719 C 47.26758575439453 3.924095153808594 42.6886100769043 3 37.966796875 3 M 37.966796875 0 C 58.93528366088867 0 75.93359375 16.99831008911133 75.93359375 37.966796875 C 75.93359375 58.93528366088867 58.93528366088867 75.93359375 37.966796875 75.93359375 C 16.99831008911133 75.93359375 0 58.93528366088867 0 37.966796875 C 0 16.99831008911133 16.99831008911133 0 37.966796875 0 Z" stroke="none" fill="#847625"/>
              </g>
            </g>
          </g>
        </g>
      </g>
      <g id="economico" transform="translate(1029 886)">
        <path id="Path_1090320" data-name="Path 1090320" d="M94,46.986a23,23,0,1,1-46,0q0-1.011.086-2a23,23,0,0,1,45.914,2Z" transform="translate(-28 -6.986)" fill="#9ce6ed"/>
        <path id="Path_1090321" data-name="Path 1090321" d="M248,87.513a22.984,22.984,0,0,1-10.927,19.58L232,101.513v-8h-4l-4-6,4-3h5l3-4-2-5,6.256-5.213A22.946,22.946,0,0,1,248,87.513Z" transform="translate(-182 -47.513)" fill="#02c26a"/>
        <rect id="Rectangle_420465" data-name="Rectangle 420465" width="8" height="10" transform="translate(51 64)" fill="#4367e0"/>
        <rect id="Rectangle_420466" data-name="Rectangle 420466" width="8" height="18" transform="translate(59 56)" fill="#4976f2"/>
        <rect id="Rectangle_420467" data-name="Rectangle 420467" width="8" height="28" transform="translate(67 46)" fill="#548aff"/>
        <path id="Path_1090322" data-name="Path 1090322" d="M117.736,25.871l-7.12,7.12v6l-6,4-4-4h-5v-4L90.99,32.215a23.02,23.02,0,0,1,26.746-6.344Z" transform="translate(-65.616 -6.991)" fill="#02c26a"/>
        <path id="Path_1090323" data-name="Path 1090323" d="M68,201l-4,3v11.915A23.01,23.01,0,0,1,48,194q0-1.011.086-2H54l3,4h8Z" transform="translate(-28 -154)" fill="#02c26a"/>
        <path id="Path_1090324" data-name="Path 1090324" d="M34,258c0-1.1-2.239-2-5-2s-5,.9-5,2v25c0,1.1,2.239,2,5,2s5-.9,5-2Z" transform="translate(-7 -210)" fill="#ffc431"/>
        <ellipse id="Ellipse_14281" data-name="Ellipse 14281" cx="5" cy="2" rx="5" ry="2" transform="translate(17 46)" fill="#ffd873"/>
        <path id="Path_1090325" data-name="Path 1090325" d="M114,338c0-1.1-2.239-2-5-2s-5,.9-5,2v15c0,1.1,2.239,2,5,2s5-.9,5-2Z" transform="translate(-77 -280)" fill="#ffc431"/>
        <ellipse id="Ellipse_14282" data-name="Ellipse 14282" cx="5" cy="2" rx="5" ry="2" transform="translate(27 56)" fill="#ffd873"/>
        <path id="Path_1090326" data-name="Path 1090326" d="M194,378c0-1.1-2.239-2-5-2s-5,.9-5,2v10c0,1.1,2.239,2,5,2s5-.9,5-2Z" transform="translate(-147 -315)" fill="#ffc431"/>
        <ellipse id="Ellipse_14283" data-name="Ellipse 14283" cx="5" cy="2" rx="5" ry="2" transform="translate(37 61)" fill="#ffd873"/>
        <path id="Path_1090327" data-name="Path 1090327" d="M75,248H67a1,1,0,0,0-1,1v9H59a1,1,0,0,0-1,1v7H51a1,1,0,0,0-1,1v9H48V266c0-.562-.272-1.614-2.093-2.343a11.939,11.939,0,0,0-7.814,0L38,263.7V261c0-.562-.272-1.614-2.093-2.343A10.85,10.85,0,0,0,32,258a10.851,10.851,0,0,0-3.907.657L28,258.7V251c0-.562-.272-1.614-2.093-2.343A10.85,10.85,0,0,0,22,248a10.851,10.851,0,0,0-3.907.657C16.272,249.386,16,250.438,16,251v25c0,.562.272,1.614,2.093,2.343A10.85,10.85,0,0,0,22,279a10.851,10.851,0,0,0,3.907-.657A4.817,4.817,0,0,0,27,277.75a4.817,4.817,0,0,0,1.093.593A10.85,10.85,0,0,0,32,279a10.851,10.851,0,0,0,3.907-.657A4.817,4.817,0,0,0,37,277.75a4.817,4.817,0,0,0,1.093.593,11.939,11.939,0,0,0,7.814,0,5.441,5.441,0,0,0,.711-.343H75a1,1,0,0,0,1-1V249A1,1,0,0,0,75,248ZM18,268.3l.093.039A10.85,10.85,0,0,0,22,269a10.851,10.851,0,0,0,3.907-.657L26,268.3v2.658c-.174.31-1.557,1.038-4,1.038s-3.826-.728-4-1.038Zm0-5,.093.039A10.85,10.85,0,0,0,22,264a10.851,10.851,0,0,0,3.907-.657L26,263.3v2.658c-.174.31-1.557,1.038-4,1.038s-3.826-.728-4-1.038Zm0-5,.093.039A10.85,10.85,0,0,0,22,259a10.851,10.851,0,0,0,3.907-.657L26,258.3v2.658c-.174.31-1.557,1.038-4,1.038s-3.826-.728-4-1.038Zm0-5,.093.039A10.85,10.85,0,0,0,22,254a10.851,10.851,0,0,0,3.907-.657L26,253.3v2.658c-.174.31-1.557,1.038-4,1.038s-3.826-.728-4-1.038ZM32,267c-2.443,0-3.826-.728-4-1.038V263.3l.093.039A10.849,10.849,0,0,0,32,264a10.851,10.851,0,0,0,3.907-.657L36,263.3v2.658C35.826,266.272,34.443,267,32,267Zm-4,1.3.093.039A10.85,10.85,0,0,0,32,269a10.851,10.851,0,0,0,3.907-.657L36,268.3v2.658c-.174.31-1.557,1.038-4,1.038s-3.826-.728-4-1.038Zm10,0,.093.039a11.939,11.939,0,0,0,7.814,0L46,268.3v2.658c-.174.31-1.557,1.038-4,1.038s-3.826-.728-4-1.038Zm4-3.3c2.353,0,3.721.675,3.973,1-.26.328-1.629,1-3.973,1s-3.713-.671-3.973-1C38.279,265.675,39.647,265,42,265Zm-10-5c2.353,0,3.721.675,3.973,1-.26.328-1.629,1-3.973,1s-3.717-.673-3.975-1C28.283,260.673,29.652,260,32,260ZM22,250c2.353,0,3.721.675,3.973,1-.26.328-1.629,1-3.973,1s-3.713-.671-3.973-1C18.279,250.675,19.647,250,22,250Zm0,27c-2.438,0-3.822-.726-4-1.036V273.3l.093.039A10.85,10.85,0,0,0,22,274a10.851,10.851,0,0,0,3.907-.657L26,273.3v2.66C25.822,276.274,24.438,277,22,277Zm10,0c-2.443,0-3.826-.728-4-1.038V273.3l.093.039A10.849,10.849,0,0,0,32,274a10.851,10.851,0,0,0,3.907-.657L36,273.3v2.66C35.822,276.274,34.438,277,32,277Zm10,0c-2.438,0-3.822-.726-4-1.036V273.3l.093.039a11.939,11.939,0,0,0,7.814,0L46,273.3v2.66C45.822,276.274,44.438,277,42,277Zm10-9h6v8H52Zm8-8h6v16H60Zm8,16V250h6v26Z" transform="translate(0 -203)"/>
        <rect id="Rectangle_420468" data-name="Rectangle 420468" width="2" height="2" transform="translate(42 56)"/>
        <path id="Path_1090328" data-name="Path 1090328" d="M256,182v2h5a1,1,0,0,0,.707-.293L282,163.414V165h2v-4a1,1,0,0,0-1-1h-4v2h1.586l-20,20Z" transform="translate(-210 -126)"/>
        <path id="Path_1090329" data-name="Path 1090329" d="M80.266,22.352A24,24,0,0,0,40,40a24.309,24.309,0,0,0,.2,3.129l1.983-.258A22.3,22.3,0,0,1,42,40c0-.335.009-.668.024-1H46.5l2.7,3.6a1,1,0,0,0,.8.4h7.434l2.245,3.741L56.4,49.2a1,1,0,0,0-.4.8v3h2V50.5l3.6-2.7a1,1,0,0,0,.258-1.315l-3-5A1,1,0,0,0,58,41H50.5l-2.7-3.6A1,1,0,0,0,47,37H42.205a21.9,21.9,0,0,1,4.409-10.465L50,28.566V32a1,1,0,0,0,1,1h4.586l3.707,3.707a1,1,0,0,0,1.262.125l6-4A1,1,0,0,0,67,32V26.414l6.338-6.338A21.949,21.949,0,0,1,77.7,22.784L72.36,27.232a1,1,0,0,0-.288,1.14l1.791,4.478L71.5,36H67a1,1,0,0,0-.6.2l-4,3a1,1,0,0,0-.232,1.355l4,6A1,1,0,0,0,67,47h3v6h2V46a1,1,0,0,0-1-1H67.535l-3.178-4.768L67.333,38H72a1,1,0,0,0,.8-.4l3-4a1,1,0,0,0,.128-.971L74.2,28.3l5.023-4.186a21.919,21.919,0,0,1,6.7,13.969l1.993-.172a23.921,23.921,0,0,0-7.645-15.562Zm-14.973,2.94A1,1,0,0,0,65,26v5.465l-4.873,3.248-3.42-3.42A1,1,0,0,0,56,31H52V28a1,1,0,0,0-.486-.858L47.93,24.992a21.991,21.991,0,0,1,23.4-5.738Z" transform="translate(-21)"/>
      </g>
    </g>
  </g>
</svg>
