<svg xmlns="http://www.w3.org/2000/svg" xmlns:xlink="http://www.w3.org/1999/xlink" width="93.934" height="93.934" viewBox="0 0 93.934 93.934">
  <defs>
    <filter id="Path_978624" x="0" y="0" width="93.934" height="93.934" filterUnits="userSpaceOnUse">
      <feOffset dy="3" input="SourceAlpha"/>
      <feGaussianBlur stdDeviation="3" result="blur"/>
      <feFlood flood-opacity="0.161"/>
      <feComposite operator="in" in2="blur"/>
      <feComposite in="SourceGraphic"/>
    </filter>
  </defs>
  <g id="Group_1220437" data-name="Group 1220437" transform="translate(-189 -7435.165)">
    <g id="Group_1220203" data-name="Group 1220203">
      <g id="Group_1219395" data-name="Group 1219395" transform="translate(198 7441.165)">
        <g id="Group_1208063" data-name="Group 1208063">
          <g id="Group_1144123" data-name="Group 1144123">
            <g transform="matrix(1, 0, 0, 1, -9, -6)" filter="url(#Path_978624)">
              <g id="Path_978624-2" data-name="Path 978624" transform="translate(9 6)" fill="#efeadd">
                <path d="M 37.966796875 74.43359375 C 33.04315185546875 74.43359375 28.26757431030273 73.46962738037109 23.77274131774902 71.56847381591797 C 19.43047523498535 69.73184967041016 15.53040790557861 67.10224914550781 12.18087482452393 63.75271987915039 C 8.831341743469238 60.4031867980957 6.201741218566895 56.50312042236328 4.365118980407715 52.16086196899414 C 2.463963508605957 47.66601943969727 1.499996900558472 42.89044189453125 1.499996900558472 37.966796875 C 1.499996900558472 33.04315185546875 2.463963508605957 28.26757431030273 4.365118980407715 23.77274131774902 C 6.201741218566895 19.43047523498535 8.831341743469238 15.53040790557861 12.18087482452393 12.18087482452393 C 15.53040790557861 8.831341743469238 19.43047523498535 6.201741218566895 23.77274131774902 4.365118980407715 C 28.26757431030273 2.463963508605957 33.04315185546875 1.499996900558472 37.966796875 1.499996900558472 C 42.89044189453125 1.499996900558472 47.66601943969727 2.463963508605957 52.16086196899414 4.365118980407715 C 56.50312042236328 6.201741218566895 60.4031867980957 8.831341743469238 63.75271987915039 12.18087482452393 C 67.10224914550781 15.53040790557861 69.73184967041016 19.43047523498535 71.56847381591797 23.77274131774902 C 73.46962738037109 28.26757431030273 74.43359375 33.04315185546875 74.43359375 37.966796875 C 74.43359375 42.89044189453125 73.46962738037109 47.66601943969727 71.56847381591797 52.16086196899414 C 69.73184967041016 56.50313186645508 67.10224914550781 60.4031867980957 63.75271987915039 63.75271987915039 C 60.4031867980957 67.10224914550781 56.50313186645508 69.73184967041016 52.16086196899414 71.56847381591797 C 47.66601943969727 73.46962738037109 42.89044189453125 74.43359375 37.966796875 74.43359375 Z" stroke="none"/>
                <path d="M 37.966796875 3 C 33.2449836730957 3 28.66600799560547 3.924095153808594 24.35705947875977 5.746635437011719 C 20.19359588623047 7.507621765136719 16.45379638671875 10.02927398681641 13.24153518676758 13.24153518676758 C 10.02927398681641 16.45379638671875 7.507621765136719 20.19359588623047 5.746635437011719 24.35705947875977 C 3.924095153808594 28.66600799560547 3 33.2449836730957 3 37.966796875 C 3 42.6886100769043 3.924095153808594 47.26758575439453 5.746635437011719 51.57653427124023 C 7.507621765136719 55.73999786376953 10.02927398681641 59.47979736328125 13.24153518676758 62.69205856323242 C 16.45379638671875 65.90431976318359 20.19359588623047 68.42597198486328 24.35705947875977 70.18695831298828 C 28.66600799560547 72.00949859619141 33.2449836730957 72.93359375 37.966796875 72.93359375 C 42.6886100769043 72.93359375 47.26758575439453 72.00949859619141 51.57653427124023 70.18695831298828 C 55.73999786376953 68.42597198486328 59.47979736328125 65.90431976318359 62.69205856323242 62.69205856323242 C 65.90431976318359 59.47979736328125 68.42597198486328 55.73999786376953 70.18695831298828 51.57653427124023 C 72.00949859619141 47.26758575439453 72.93359375 42.6886100769043 72.93359375 37.966796875 C 72.93359375 33.2449836730957 72.00949859619141 28.66600799560547 70.18695831298828 24.35705947875977 C 68.42597198486328 20.19359588623047 65.90431976318359 16.45379638671875 62.69205856323242 13.24153518676758 C 59.47979736328125 10.02927398681641 55.73999786376953 7.507621765136719 51.57653427124023 5.746635437011719 C 47.26758575439453 3.924095153808594 42.6886100769043 3 37.966796875 3 M 37.966796875 0 C 58.93528366088867 0 75.93359375 16.99831008911133 75.93359375 37.966796875 C 75.93359375 58.93528366088867 58.93528366088867 75.93359375 37.966796875 75.93359375 C 16.99831008911133 75.93359375 0 58.93528366088867 0 37.966796875 C 0 16.99831008911133 16.99831008911133 0 37.966796875 0 Z" stroke="none" fill="#847625"/>
              </g>
            </g>
          </g>
        </g>
      </g>
      <g id="alemania" transform="translate(199.934 7367.332)">
        <g id="Group_1220202" data-name="Group 1220202" transform="translate(1.056 89.234)">
          <path id="Path_1089970" data-name="Path 1089970" d="M77.454,110.722V97.935A2.257,2.257,0,0,0,75.2,95.678H9.757A2.257,2.257,0,0,0,7.5,97.935v12.787l3.384,3.009H74.07Z" transform="translate(-7.5 -95.678)" fill="#5d5360"/>
          <path id="Path_1089971" data-name="Path 1089971" d="M10.885,95.677H9.757A2.257,2.257,0,0,0,7.5,97.934v12.787l3.384,3.009h0Z" transform="translate(-7.5 -95.677)" fill="#4b3f4e"/>
          <path id="Path_1089972" data-name="Path 1089972" d="M7.5,291.074v12.787a2.257,2.257,0,0,0,2.257,2.257H75.2a2.257,2.257,0,0,0,2.257-2.257V291.074l-3.384-3.009H10.885Z" transform="translate(-7.5 -260.986)" fill="#ffe07d"/>
          <path id="Path_1089973" data-name="Path 1089973" d="M10.885,297.091v-9.026L7.5,291.074v12.787a2.257,2.257,0,0,0,2.257,2.257H75.2a2.257,2.257,0,0,0,2.257-2.257v-1.128H16.526a5.648,5.648,0,0,1-5.642-5.641Z" transform="translate(-7.5 -260.986)" fill="#ffd064"/>
          <path id="Path_1089974" data-name="Path 1089974" d="M7.5,202.559H77.454V217.6H7.5Z" transform="translate(-7.5 -187.515)" fill="#e5646e"/>
          <path id="Path_1089975" data-name="Path 1089975" d="M7.5,202.559h3.385V217.6H7.5Z" transform="translate(-7.5 -187.515)" fill="#db4655"/>
        </g>
        <path id="Path_1089976" data-name="Path 1089976" d="M68.753,88.178H3.312A3.316,3.316,0,0,0,0,91.49v40.619a3.316,3.316,0,0,0,3.312,3.312H68.753a3.316,3.316,0,0,0,3.312-3.312V91.49A3.316,3.316,0,0,0,68.753,88.178Zm0,45.132H3.312a1.2,1.2,0,0,1-1.2-1.2V120.377h61a1.056,1.056,0,0,0,0-2.111h-61V105.333H5.569a1.056,1.056,0,1,0,0-2.111H2.111V91.49a1.2,1.2,0,0,1,1.2-1.2H68.753a1.2,1.2,0,0,1,1.2,1.2v11.732H10.082a1.056,1.056,0,1,0,0,2.111H69.954v12.933H67.625a1.056,1.056,0,0,0,0,2.111h2.329v11.732A1.2,1.2,0,0,1,68.753,133.31Z" transform="translate(0)"/>
      </g>
    </g>
  </g>
</svg>
