<svg xmlns="http://www.w3.org/2000/svg" xmlns:xlink="http://www.w3.org/1999/xlink" width="113" height="113" viewBox="0 0 113 113">
  <defs>
    <filter id="Path_982547" x="0" y="0" width="113" height="113" filterUnits="userSpaceOnUse">
      <feOffset dy="3" input="SourceAlpha"/>
      <feGaussianBlur stdDeviation="3" result="blur"/>
      <feFlood flood-opacity="0.161"/>
      <feComposite operator="in" in2="blur"/>
      <feComposite in="SourceGraphic"/>
    </filter>
  </defs>
  <g id="Group_1220433" data-name="Group 1220433" transform="translate(-272 -6251.844)">
    <g id="Group_1219910" data-name="Group 1219910">
      <g id="Group_1219059" data-name="Group 1219059" transform="translate(0 -838)">
        <g id="Group_1217866" data-name="Group 1217866" transform="translate(-0.234 -2607)">
          <g id="Group_1216305" data-name="Group 1216305" transform="translate(281.234 9702.844)">
            <g id="Group_1208705" data-name="Group 1208705">
              <g id="Group_1148633" data-name="Group 1148633">
                <g id="Group_1148525" data-name="Group 1148525">
                  <g transform="matrix(1, 0, 0, 1, -9, -6)" filter="url(#Path_982547)">
                    <g id="Path_982547-2" data-name="Path 982547" transform="translate(9 6)" fill="#e6d567">
                      <path d="M 47.5 93.5 C 41.28937149047852 93.5 35.26533508300781 92.28397369384766 29.59518623352051 89.88570404052734 C 24.11771965026855 87.56893157958984 19.19813346862793 84.25196075439453 14.97309303283691 80.02691650390625 C 10.74804019927979 75.80186462402344 7.431066513061523 70.88229370117188 5.114293098449707 65.40481567382812 C 2.716026782989502 59.73468017578125 1.5 53.71062850952148 1.5 47.5 C 1.5 41.28937149047852 2.716026782989502 35.26533508300781 5.114293098449707 29.59518623352051 C 7.431066513061523 24.11771965026855 10.74804019927979 19.19813346862793 14.97309303283691 14.97309303283691 C 19.19813346862793 10.74804019927979 24.11771965026855 7.431066513061523 29.59518623352051 5.114293098449707 C 35.26533508300781 2.716026782989502 41.28937149047852 1.5 47.5 1.5 C 53.71062850952148 1.5 59.73468017578125 2.716026782989502 65.40481567382812 5.114293098449707 C 70.88229370117188 7.431066513061523 75.80186462402344 10.74804019927979 80.02691650390625 14.97309303283691 C 84.25196075439453 19.19813346862793 87.56893157958984 24.11771965026855 89.88570404052734 29.59518623352051 C 92.28397369384766 35.26533508300781 93.5 41.28937149047852 93.5 47.5 C 93.5 53.71062850952148 92.28397369384766 59.73468017578125 89.88570404052734 65.40481567382812 C 87.56893157958984 70.88229370117188 84.25196075439453 75.80186462402344 80.02691650390625 80.02691650390625 C 75.80186462402344 84.25196075439453 70.88229370117188 87.56893157958984 65.40481567382812 89.88570404052734 C 59.73468017578125 92.28397369384766 53.71062850952148 93.5 47.5 93.5 Z" stroke="none"/>
                      <path d="M 47.5 3 C 41.49121475219727 3 35.66376876831055 4.176155090332031 30.17950439453125 6.495796203613281 C 24.88084411621094 8.736953735351562 20.12152099609375 11.94598388671875 16.03375244140625 16.03375244140625 C 11.94598388671875 20.12152099609375 8.736953735351562 24.88084411621094 6.495796203613281 30.17950439453125 C 4.176155090332031 35.66376876831055 3 41.49121475219727 3 47.5 C 3 53.50878524780273 4.176155090332031 59.33623123168945 6.495796203613281 64.82049560546875 C 8.736953735351562 70.11915588378906 11.94598388671875 74.87847900390625 16.03375244140625 78.96624755859375 C 20.12152099609375 83.05401611328125 24.88084411621094 86.26304626464844 30.17950439453125 88.50419616699219 C 35.66376876831055 90.82384490966797 41.49121475219727 92 47.5 92 C 53.50878524780273 92 59.33623123168945 90.82384490966797 64.82049560546875 88.50419616699219 C 70.11915588378906 86.26304626464844 74.87847900390625 83.05401611328125 78.96624755859375 78.96624755859375 C 83.05401611328125 74.87847900390625 86.26304626464844 70.11915588378906 88.50419616699219 64.82049560546875 C 90.82384490966797 59.33623123168945 92 53.50878524780273 92 47.5 C 92 41.49121475219727 90.82384490966797 35.66376876831055 88.50419616699219 30.17950439453125 C 86.26304626464844 24.88084411621094 83.05401611328125 20.12152099609375 78.96624755859375 16.03375244140625 C 74.87847900390625 11.94598388671875 70.11915588378906 8.736953735351562 64.82049560546875 6.495796203613281 C 59.33623123168945 4.176155090332031 53.50878524780273 3 47.5 3 M 47.5 0 C 73.7335205078125 0 95 21.2664794921875 95 47.5 C 95 73.7335205078125 73.7335205078125 95 47.5 95 C 21.2664794921875 95 0 73.7335205078125 0 47.5 C 0 21.2664794921875 21.2664794921875 0 47.5 0 Z" stroke="none" fill="#ba9c5a"/>
                    </g>
                  </g>
                </g>
              </g>
            </g>
          </g>
        </g>
      </g>
      <g id="gobierno_5_" data-name="gobierno (5)" transform="translate(272.693 6258.77)">
        <g id="Group_1219906" data-name="Group 1219906" transform="translate(16.447 14.575)">
          <path id="Path_1089634" data-name="Path 1089634" d="M22.2,187.1H100v5.384H22.2Z" transform="translate(-22.2 -159.349)" fill="#e6e6e6" fill-rule="evenodd"/>
          <path id="Path_1089635" data-name="Path 1089635" d="M61.1,20.1,80.545,33.976,100,47.851H22.2L41.659,33.976Z" transform="translate(-22.2 -20.1)" fill="gray" fill-rule="evenodd"/>
          <path id="Path_1089636" data-name="Path 1089636" d="M108.514,219.6h10.718v4.553H108.514ZM51,219.6H61.718v4.553H51Zm19.177,0H80.9v4.553H70.177Zm19.177,0h10.718v4.553H89.354Z" transform="translate(-46.214 -186.448)" fill="gray" fill-rule="evenodd"/>
          <path id="Path_1089637" data-name="Path 1089637" d="M69.9,247h4.67v29.131H69.9Zm38.187,0h4.67v29.131h-4.67Zm19.11,0h4.67v29.131H127.2Zm-38.2,0h4.67v29.131h-4.67Z" transform="translate(-61.973 -209.295)" fill="gray" fill-rule="evenodd"/>
          <path id="Path_1089638" data-name="Path 1089638" d="M36.8,422.9h72.951v5.982H36.8Z" transform="translate(-34.374 -355.964)" fill="gray" fill-rule="evenodd"/>
          <path id="Path_1089639" data-name="Path 1089639" d="M99.054,319.3h-6.9a8.886,8.886,0,0,0-8.857,8.857v3.938h24.611v-3.938A8.876,8.876,0,0,0,99.054,319.3Zm-3.44-12.5a6.107,6.107,0,1,0,6.115,6.115A6.106,6.106,0,0,0,95.614,306.8Zm32.87,0a6.107,6.107,0,1,0,6.1,6.115A6.12,6.12,0,0,0,128.483,306.8Zm3.44,12.5h-6.9a8.886,8.886,0,0,0-8.857,8.857v3.938H140.78v-3.938A8.865,8.865,0,0,0,131.923,319.3Z" transform="translate(-73.147 -259.157)" fill="#cc8f30" fill-rule="evenodd"/>
          <path id="Path_1089640" data-name="Path 1089640" d="M194.434,335.623h-7.328a9.429,9.429,0,0,0-9.406,9.406v4.188h26.14v-4.188A9.44,9.44,0,0,0,194.434,335.623ZM190.761,320.8a7.179,7.179,0,1,0,7.179,7.179A7.17,7.17,0,0,0,190.761,320.8Z" transform="translate(-151.86 -270.831)" fill="#fcb13b" fill-rule="evenodd"/>
          <path id="Path_1089641" data-name="Path 1089641" d="M217.233,78.7a5.452,5.452,0,1,1,0,7.711A5.456,5.456,0,0,1,217.233,78.7Z" transform="translate(-183.482 -67.628)" fill="#e6e6e6" fill-rule="evenodd"/>
        </g>
        <path id="Path_1089642" data-name="Path 1089642" d="M59.337,33.286l3.49,3.49a1.1,1.1,0,0,1-1.562,1.562l-3.49-3.49a6.541,6.541,0,1,1,1.562-1.562ZM54,25.144a4.356,4.356,0,1,0,4.37,4.354A4.353,4.353,0,0,0,54,25.144Zm5.035,55.087H51.576a8.518,8.518,0,0,0-8.492,8.492V91.9H67.513V88.723A8.5,8.5,0,0,0,59.038,80.231Zm-15.006.931a10.665,10.665,0,0,1,4.2-2.592,7.741,7.741,0,0,0-5.916-2.759h-6.9a7.78,7.78,0,0,0-7.76,7.76v2.842H41.14a10.583,10.583,0,0,1,2.891-5.251ZM47.9,75.346a8.379,8.379,0,0,1-1.014-4,7.93,7.93,0,0,1,.1-1.263v-16.7H44.514V63.863a7.18,7.18,0,0,1-.847,9.838A10.013,10.013,0,0,1,47.9,75.346Zm1.28-9.771a8.4,8.4,0,0,1,12.231,0V53.394H59.52a1.107,1.107,0,0,1-1.1-1.1V48.824H52.158V52.28a1.1,1.1,0,0,1-1.1,1.1H49.167v12.2Zm14.424,4.5a8.335,8.335,0,0,1-.931,5.268A9.8,9.8,0,0,1,66.914,73.7a7.207,7.207,0,0,1-.864-9.838V53.377H63.607ZM62.361,78.57a10.758,10.758,0,0,1,7.1,7.844H82.95V83.571a7.791,7.791,0,0,0-7.76-7.76h-6.9a7.749,7.749,0,0,0-5.932,2.759Zm7.345,10.037v4.37a1.1,1.1,0,0,1-1.1,1.1H41.988a1.085,1.085,0,0,1-1.1-1.1v-4.37H18.823a1.085,1.085,0,0,1-1.1-1.1V81.528a1.085,1.085,0,0,1,1.1-1.1H23.21V53.377H21.183a1.1,1.1,0,0,1-1.1-1.1V48.807H16.4a1.1,1.1,0,0,1-1.1-1.1v-5.4a1.081,1.081,0,0,1,.532-.931l38.835-27.7a1.1,1.1,0,0,1,1.3.017L94.782,41.379a1.124,1.124,0,0,1,.532.947v5.384a1.085,1.085,0,0,1-1.1,1.1H90.528V52.28a1.1,1.1,0,0,1-1.1,1.1H87.387V80.414h4.387a1.1,1.1,0,0,1,1.1,1.1v5.982a1.1,1.1,0,0,1-1.1,1.1H69.706ZM55.3,65.126a6.215,6.215,0,1,0,6.215,6.215A6.216,6.216,0,0,0,55.3,65.126ZM25.47,86.4V83.555a9.042,9.042,0,0,1,.05-.947h-5.6V86.4Zm.515-5.982a9.675,9.675,0,0,1,1.911-3.34v-23.7H25.42V80.414Zm4.088-5.251A9.958,9.958,0,0,1,34.045,73.7,7.209,7.209,0,0,1,42.3,62V53.377H40.343a1.1,1.1,0,0,1-1.1-1.1V48.807H32.981V52.28a1.1,1.1,0,0,1-1.1,1.1H30.073Zm8.791-11.848a5.01,5.01,0,1,0,5.019,5.019A5.011,5.011,0,0,0,38.864,63.315Zm32.87,0a5.01,5.01,0,1,0,5.019,5.019A5.011,5.011,0,0,0,71.733,63.315ZM68.277,62a7.217,7.217,0,0,1,10.669,6.331,7.139,7.139,0,0,1-2.41,5.367,10.126,10.126,0,0,1,3.988,1.462V53.377H78.713a1.1,1.1,0,0,1-1.1-1.1V48.807H71.351V52.28a1.106,1.106,0,0,1-1.1,1.1H68.294V62ZM82.718,77.074a10.112,10.112,0,0,1,1.911,3.34h.565V53.377H82.718Zm2.376,5.534a9.041,9.041,0,0,1,.05.947V86.4h5.534V82.608ZM24.323,51.184H30.8V48.807H22.279v2.376Zm38.187,0h6.63V48.807H60.616v2.376Zm19.11,0h6.714V48.807H79.81v2.376Zm-38.2,0h6.564V48.807H41.456v2.376ZM78.7,46.63H93.1V43.44H17.494V46.63ZM74.11,29.348,55.3,15.921,19.82,41.23H90.777Z"/>
      </g>
    </g>
  </g>
</svg>
